<?xml version="1.0" encoding="UTF-8" standalone="no"?>
<!-- Created with Inkscape (http://www.inkscape.org/) -->

<svg
   xmlns:dc="http://purl.org/dc/elements/1.1/"
   xmlns:cc="http://creativecommons.org/ns#"
   xmlns:rdf="http://www.w3.org/1999/02/22-rdf-syntax-ns#"
   xmlns:svg="http://www.w3.org/2000/svg"
   xmlns="http://www.w3.org/2000/svg"
   xmlns:xlink="http://www.w3.org/1999/xlink"
   xmlns:sodipodi="http://sodipodi.sourceforge.net/DTD/sodipodi-0.dtd"
   xmlns:inkscape="http://www.inkscape.org/namespaces/inkscape"
   width="165.1671"
   height="72"
   id="svg4117"
   version="1.1"
   inkscape:version="0.48.4 r9939"
   sodipodi:docname="New document 18">
  <defs
     id="defs4119">
    <linearGradient
       inkscape:collect="always"
       xlink:href="#linearGradient18940"
       id="linearGradient3487"
       gradientUnits="userSpaceOnUse"
       gradientTransform="translate(186.42856,-100)"
       x1="67.698997"
       y1="506.00449"
       x2="398.38049"
       y2="506.00449" />
    <linearGradient
       id="linearGradient18940">
      <stop
         style="stop-color:#0000cf;stop-opacity:1;"
         offset="0"
         id="stop18942" />
      <stop
         style="stop-color:#0079bf;stop-opacity:1;"
         offset="1"
         id="stop18944" />
    </linearGradient>
    <radialGradient
       inkscape:collect="always"
       xlink:href="#linearGradient4088"
       id="radialGradient3489"
       gradientUnits="userSpaceOnUse"
       cx="-230.71428"
       cy="53.076481"
       fx="-230.71428"
       fy="53.076481"
       r="35" />
    <linearGradient
       id="linearGradient4088">
      <stop
         style="stop-color:#8b89ff;stop-opacity:1;"
         offset="0"
         id="stop4090" />
      <stop
         style="stop-color:#d1bca3;stop-opacity:0;"
         offset="1"
         id="stop4092" />
    </linearGradient>
    <radialGradient
       r="35"
       fy="53.076481"
       fx="-230.71428"
       cy="53.076481"
       cx="-230.71428"
       gradientUnits="userSpaceOnUse"
       id="radialGradient4115"
       xlink:href="#linearGradient4088"
       inkscape:collect="always" />
    <linearGradient
       inkscape:collect="always"
       xlink:href="#linearGradient18940"
       id="linearGradient4160"
       gradientUnits="userSpaceOnUse"
       gradientTransform="translate(186.42856,-100)"
       x1="67.698997"
       y1="506.00449"
       x2="398.38049"
       y2="506.00449" />
    <radialGradient
       inkscape:collect="always"
       xlink:href="#linearGradient4088"
       id="radialGradient4162"
       gradientUnits="userSpaceOnUse"
       cx="-230.71428"
       cy="53.076481"
       fx="-230.71428"
       fy="53.076481"
       r="35" />
  </defs>
  <sodipodi:namedview
     id="base"
     pagecolor="#ffffff"
     bordercolor="#666666"
     borderopacity="1.0"
     inkscape:pageopacity="0.0"
     inkscape:pageshadow="2"
     inkscape:zoom="0.35"
     inkscape:cx="82.583549"
     inkscape:cy="36.000003"
     inkscape:document-units="px"
     inkscape:current-layer="layer1"
     showgrid="false"
     fit-margin-top="0"
     fit-margin-left="0"
     fit-margin-right="0"
     fit-margin-bottom="0"
     inkscape:window-width="484"
     inkscape:window-height="413"
     inkscape:window-x="717"
     inkscape:window-y="305"
     inkscape:window-maximized="0" />
  <metadata
     id="metadata4122">
    <rdf:RDF>
      <cc:Work
         rdf:about="">
        <dc:format>image/svg+xml</dc:format>
        <dc:type
           rdf:resource="http://purl.org/dc/dcmitype/StillImage" />
        <dc:title></dc:title>
      </cc:Work>
    </rdf:RDF>
  </metadata>
  <g
     inkscape:label="Layer 1"
     inkscape:groupmode="layer"
     id="layer1"
     transform="translate(-292.41645,-496.36218)">
    <g
       id="g3483"
       transform="matrix(0.40766081,0,0,0.40766081,188.8186,355.70678)">
      <path
         inkscape:export-ydpi="41.740002"
         inkscape:export-xdpi="41.740002"
         inkscape:export-filename="C:\Users\jouke\Desktop\app_005_water.png"
         id="path15423"
         d="m 270.32757,447.17729 13.1625,-0.003 23.73749,-73.79698 23.7375,73.79698 21.2625,0.003 -32.2875,-102.14681 -17.325,0 -32.28749,102.14681 z m -12.35904,-4.30692 c -0.47959,1.91772 -1.88492,3.18192 -3.84096,3.18192 l 0,4.725 27.45,0 c 1.10892,-0.91433 1.58741,-3.04777 1.80228,-4.5 l -4.05228,0 0,-93.15001 -21.15,0 c -0.33738,29.90788 0.48851,59.83888 -0.20904,89.74309 z m 85.25903,-4.69308 -4.05,0 0,8.1 -8.1,0 c 0.0743,1.42833 0.27296,3.59697 1.51066,4.5 l 35.83934,0 0,-4.725 c -2.03399,0.14083 -3.2388,-1.40339 -3.84096,-3.18192 l -0.20904,-89.74309 -21.15,0 0,85.05001 z m -88.64999,-88.74334 c 2.36348,0.36571 3.5589,1.95821 4.14333,4.14333 l 20.06334,0 c 0.3657,-2.36348 1.95821,-3.5589 4.14333,-4.14333 l 0,-3.95667 -28.35,0 0,3.95667 z m 113.39999,0 c -2.36348,0.36571 -3.5589,1.95821 -4.14333,4.14333 l -20.06333,0 c -0.36571,-2.36348 -1.95822,-3.5589 -4.14334,-4.14333 l 0,-3.95667 28.35,0 0,3.95667 z m 61.23493,85.14334 -16.2,0 0,-32.4 16.2,0 0,32.4 z m 0,7.82762 c 0.007,2.53365 1.7792,3.75716 4.05,4.41571 l 0,3.95667 -20.25,0 0,-2.67782 c -3.7339,2.1535 -7.94161,2.53577 -12.15,2.74403 l 0,-4.03553 c 6.87457,-0.77202 11.21957,-5.56426 12.23068,-12.23068 l 16.11932,0 0,7.82762 z M 372.6035,418.60324 c -0.18347,15.72526 11.61007,32.17405 28.25899,32.17405 l 0,-3.94351 c -8.42495,-2.28276 -11.91287,-19.20465 -12.0375,-28.45649 0.16815,-9.03378 3.67445,-26.27824 12.0375,-28.4565 l 0,-3.94351 c -17.21398,0.14452 -28.08783,16.68913 -28.25899,32.62596 z m 56.60899,-24.25358 c 0.007,-2.53365 1.7792,-3.75716 4.05,-4.41571 l 0,-3.95667 -20.25,0 0,2.67782 c -3.7339,-2.1535 -7.94161,-2.53577 -12.15,-2.74403 l 0,4.03553 c 6.87457,0.77202 11.21957,5.56427 12.23068,12.23069 l 16.11932,0 0,-7.82763 z m 16.20001,7.82763 16.2,0 0,32.4 -16.2,0 0,-32.4 z m 0,-12.15001 -4.05,0 0,-4.05 28.35,0 0,4.05 -8.1,0 0,12.15001 -16.2,0 0,-12.15001 z m 0,-20.25 16.2,0 0,16.2 -16.2,0 0,-16.2 z m 28.35,-24.075 0,3.76703 c -9.16062,1.29371 -12.14101,12.30162 -12.15,20.30797 l -16.25243,0 c 1.03363,-14.59386 14.5719,-24.01147 28.40243,-24.075 z m 15.97354,15.77732 c -4.01661,-1.52212 -4.51765,-5.25359 -2.29133,-8.53425 -4.27491,-2.09431 -8.90523,-3.41213 -13.68221,-3.41807 l 0,-4.11642 c 7.54413,0.21098 14.88185,2.695 20.66564,7.56975 1.9889,1.67631 2.00078,5.08008 0.17679,7.08732 -1.05227,1.15798 -3.50824,1.92729 -4.86889,1.41167 z m -48.38914,81.24474 0,-3.99955 c 2.36982,-0.36647 3.57241,-1.95459 4.15893,-4.1475 l 16.10667,0 0,16.18937 -20.2656,-8.04232 z m 28.33483,-24.57301 c -0.18347,-15.72526 11.61007,-32.17405 28.25899,-32.17405 l 0,3.94351 c -8.42495,2.28277 -11.91287,19.20465 -12.0375,28.4565 0.16815,9.03377 3.67445,26.27823 12.0375,28.45649 l 0,3.94351 c -17.21399,-0.14452 -28.08783,-16.68913 -28.25899,-32.62596 z m 16.10899,-3.82404 24.20964,0 c -0.85065,-8.30173 -2.44726,-22.12656 -12.05964,-24.4065 l 0,-3.94351 c 18.06734,0.24929 27.28996,16.01834 28.41433,32.40001 l -40.56433,0 0,-4.05 z m 12.15,32.46207 c 12.38591,-0.88187 18.89512,-8.42909 20.31964,-20.31207 l 3.98036,0 0,20.25 -3.9989,0 c -0.17382,-1.34334 -0.4118,-2.84118 -1.7339,-3.50643 -0.60319,-0.15139 -0.5785,-0.16725 -3.37395,2.16745 -4.32901,3.6461 -9.68499,5.02292 -15.19325,5.45536 l 0,-4.05431 z m 36.33359,-44.61207 16.2,0 0,32.4 -16.2,0 0,-32.4 z m 0,-7.82763 c -0.007,-2.53365 -1.7792,-3.75716 -4.05,-4.41571 l 0,-3.95667 20.25,0 0,2.67782 c 3.7339,-2.1535 7.94162,-2.53577 12.15,-2.74403 l 0,4.03553 c -6.87457,0.77202 -11.21957,5.56427 -12.23068,12.23069 l -16.11932,0 0,-7.82763 z m 44.32354,7.62994 c -4.01661,-1.52211 -4.51765,-5.25359 -2.29133,-8.53425 -4.27491,-2.09431 -8.90523,-3.41213 -13.68221,-3.41807 l 0,-4.11642 c 7.54413,0.21098 14.88185,2.69501 20.66565,7.56976 1.98889,1.6763 2.00077,5.08007 0.17678,7.08731 -1.05227,1.15798 -3.50824,1.92729 -4.86889,1.41167 z m -44.32354,44.74769 -4.05,0 0,4.05 28.35,0 0,-4.05 -8.1,0 0,-12.15 -16.2,0 0,12.15 z m 0,12.14878 16.2,8.10244 0,-16.20122 -16.2,0 0,8.09878 z"
         style="fill:url(#linearGradient4160);fill-opacity:1;stroke:none"
         inkscape:connector-curvature="0" />
      <path
         transform="translate(854.99998,433.57142)"
         d="m -195.71428,53.076481 c 0,19.329966 -15.67003,35 -35,35 -19.32997,0 -35,-15.670034 -35,-35 0,-19.329966 15.67003,-35 35,-35 19.32997,0 35,15.670034 35,35 z"
         sodipodi:ry="35"
         sodipodi:rx="35"
         sodipodi:cy="53.076481"
         sodipodi:cx="-230.71428"
         id="path3269-1"
         style="fill:url(#radialGradient4162);fill-opacity:1;stroke:none"
         sodipodi:type="arc" />
    </g>
    <g
       transform="matrix(0.40766081,0,0,0.40766081,188.8186,355.70678)"
       id="g4154">
      <path
         inkscape:connector-curvature="0"
         style="fill:url(#linearGradient3487);fill-opacity:1;stroke:none"
         d="m 270.32757,447.17729 13.1625,-0.003 23.73749,-73.79698 23.7375,73.79698 21.2625,0.003 -32.2875,-102.14681 -17.325,0 -32.28749,102.14681 z m -12.35904,-4.30692 c -0.47959,1.91772 -1.88492,3.18192 -3.84096,3.18192 l 0,4.725 27.45,0 c 1.10892,-0.91433 1.58741,-3.04777 1.80228,-4.5 l -4.05228,0 0,-93.15001 -21.15,0 c -0.33738,29.90788 0.48851,59.83888 -0.20904,89.74309 z m 85.25903,-4.69308 -4.05,0 0,8.1 -8.1,0 c 0.0743,1.42833 0.27296,3.59697 1.51066,4.5 l 35.83934,0 0,-4.725 c -2.03399,0.14083 -3.2388,-1.40339 -3.84096,-3.18192 l -0.20904,-89.74309 -21.15,0 0,85.05001 z m -88.64999,-88.74334 c 2.36348,0.36571 3.5589,1.95821 4.14333,4.14333 l 20.06334,0 c 0.3657,-2.36348 1.95821,-3.5589 4.14333,-4.14333 l 0,-3.95667 -28.35,0 0,3.95667 z m 113.39999,0 c -2.36348,0.36571 -3.5589,1.95821 -4.14333,4.14333 l -20.06333,0 c -0.36571,-2.36348 -1.95822,-3.5589 -4.14334,-4.14333 l 0,-3.95667 28.35,0 0,3.95667 z m 61.23493,85.14334 -16.2,0 0,-32.4 16.2,0 0,32.4 z m 0,7.82762 c 0.007,2.53365 1.7792,3.75716 4.05,4.41571 l 0,3.95667 -20.25,0 0,-2.67782 c -3.7339,2.1535 -7.94161,2.53577 -12.15,2.74403 l 0,-4.03553 c 6.87457,-0.77202 11.21957,-5.56426 12.23068,-12.23068 l 16.11932,0 0,7.82762 z M 372.6035,418.60324 c -0.18347,15.72526 11.61007,32.17405 28.25899,32.17405 l 0,-3.94351 c -8.42495,-2.28276 -11.91287,-19.20465 -12.0375,-28.45649 0.16815,-9.03378 3.67445,-26.27824 12.0375,-28.4565 l 0,-3.94351 c -17.21398,0.14452 -28.08783,16.68913 -28.25899,32.62596 z m 56.60899,-24.25358 c 0.007,-2.53365 1.7792,-3.75716 4.05,-4.41571 l 0,-3.95667 -20.25,0 0,2.67782 c -3.7339,-2.1535 -7.94161,-2.53577 -12.15,-2.74403 l 0,4.03553 c 6.87457,0.77202 11.21957,5.56427 12.23068,12.23069 l 16.11932,0 0,-7.82763 z m 16.20001,7.82763 16.2,0 0,32.4 -16.2,0 0,-32.4 z m 0,-12.15001 -4.05,0 0,-4.05 28.35,0 0,4.05 -8.1,0 0,12.15001 -16.2,0 0,-12.15001 z m 0,-20.25 16.2,0 0,16.2 -16.2,0 0,-16.2 z m 28.35,-24.075 0,3.76703 c -9.16062,1.29371 -12.14101,12.30162 -12.15,20.30797 l -16.25243,0 c 1.03363,-14.59386 14.5719,-24.01147 28.40243,-24.075 z m 15.97354,15.77732 c -4.01661,-1.52212 -4.51765,-5.25359 -2.29133,-8.53425 -4.27491,-2.09431 -8.90523,-3.41213 -13.68221,-3.41807 l 0,-4.11642 c 7.54413,0.21098 14.88185,2.695 20.66564,7.56975 1.9889,1.67631 2.00078,5.08008 0.17679,7.08732 -1.05227,1.15798 -3.50824,1.92729 -4.86889,1.41167 z m -48.38914,81.24474 0,-3.99955 c 2.36982,-0.36647 3.57241,-1.95459 4.15893,-4.1475 l 16.10667,0 0,16.18937 -20.2656,-8.04232 z m 28.33483,-24.57301 c -0.18347,-15.72526 11.61007,-32.17405 28.25899,-32.17405 l 0,3.94351 c -8.42495,2.28277 -11.91287,19.20465 -12.0375,28.4565 0.16815,9.03377 3.67445,26.27823 12.0375,28.45649 l 0,3.94351 c -17.21399,-0.14452 -28.08783,-16.68913 -28.25899,-32.62596 z m 16.10899,-3.82404 24.20964,0 c -0.85065,-8.30173 -2.44726,-22.12656 -12.05964,-24.4065 l 0,-3.94351 c 18.06734,0.24929 27.28996,16.01834 28.41433,32.40001 l -40.56433,0 0,-4.05 z m 12.15,32.46207 c 12.38591,-0.88187 18.89512,-8.42909 20.31964,-20.31207 l 3.98036,0 0,20.25 -3.9989,0 c -0.17382,-1.34334 -0.4118,-2.84118 -1.7339,-3.50643 -0.60319,-0.15139 -0.5785,-0.16725 -3.37395,2.16745 -4.32901,3.6461 -9.68499,5.02292 -15.19325,5.45536 l 0,-4.05431 z m 36.33359,-44.61207 16.2,0 0,32.4 -16.2,0 0,-32.4 z m 0,-7.82763 c -0.007,-2.53365 -1.7792,-3.75716 -4.05,-4.41571 l 0,-3.95667 20.25,0 0,2.67782 c 3.7339,-2.1535 7.94162,-2.53577 12.15,-2.74403 l 0,4.03553 c -6.87457,0.77202 -11.21957,5.56427 -12.23068,12.23069 l -16.11932,0 0,-7.82763 z m 44.32354,7.62994 c -4.01661,-1.52211 -4.51765,-5.25359 -2.29133,-8.53425 -4.27491,-2.09431 -8.90523,-3.41213 -13.68221,-3.41807 l 0,-4.11642 c 7.54413,0.21098 14.88185,2.69501 20.66565,7.56976 1.98889,1.6763 2.00077,5.08007 0.17678,7.08731 -1.05227,1.15798 -3.50824,1.92729 -4.86889,1.41167 z m -44.32354,44.74769 -4.05,0 0,4.05 28.35,0 0,-4.05 -8.1,0 0,-12.15 -16.2,0 0,12.15 z m 0,12.14878 16.2,8.10244 0,-16.20122 -16.2,0 0,8.09878 z"
         id="path4156"
         inkscape:export-filename="C:\Users\jouke\Desktop\app_005_water.png"
         inkscape:export-xdpi="41.740002"
         inkscape:export-ydpi="41.740002" />
      <path
         sodipodi:type="arc"
         style="fill:url(#radialGradient4115);fill-opacity:1;stroke:none"
         id="path4158"
         sodipodi:cx="-230.71428"
         sodipodi:cy="53.076481"
         sodipodi:rx="35"
         sodipodi:ry="35"
         d="m -195.71428,53.076481 c 0,19.329966 -15.67003,35 -35,35 -19.32997,0 -35,-15.670034 -35,-35 0,-19.329966 15.67003,-35 35,-35 19.32997,0 35,15.670034 35,35 z"
         transform="translate(854.99998,433.57142)" />
    </g>
  </g>
</svg>
