<?xml version="1.0" encoding="UTF-8" standalone="no"?>
<!-- Created with Inkscape (http://www.inkscape.org/) -->

<svg
   xmlns:osb="http://www.openswatchbook.org/uri/2009/osb"
   xmlns:dc="http://purl.org/dc/elements/1.1/"
   xmlns:cc="http://creativecommons.org/ns#"
   xmlns:rdf="http://www.w3.org/1999/02/22-rdf-syntax-ns#"
   xmlns:svg="http://www.w3.org/2000/svg"
   xmlns="http://www.w3.org/2000/svg"
   xmlns:xlink="http://www.w3.org/1999/xlink"
   xmlns:sodipodi="http://sodipodi.sourceforge.net/DTD/sodipodi-0.dtd"
   xmlns:inkscape="http://www.inkscape.org/namespaces/inkscape"
   width="100"
   height="100"
   id="svg6069"
   version="1.1"
   inkscape:version="0.48.4 r9939"
   sodipodi:docname="app_001.svg">
  <defs
     id="defs6071">
    <linearGradient
       id="linearGradient8347">
      <stop
         style="stop-color:#ebedff;stop-opacity:1;"
         offset="0"
         id="stop8349" />
      <stop
         style="stop-color:#ffe8e8;stop-opacity:1;"
         offset="1"
         id="stop8351" />
    </linearGradient>
    <linearGradient
       id="linearGradient8335">
      <stop
         style="stop-color:#0000ff;stop-opacity:1;"
         offset="0"
         id="stop8337" />
      <stop
         style="stop-color:#00a81b;stop-opacity:1;"
         offset="1"
         id="stop8339" />
    </linearGradient>
    <linearGradient
       id="linearGradient8207"
       osb:paint="solid">
      <stop
         style="stop-color:#d1d1cd;stop-opacity:1;"
         offset="0"
         id="stop8209" />
    </linearGradient>
    <linearGradient
       id="linearGradient8201"
       osb:paint="solid">
      <stop
         style="stop-color:#d1d1cd;stop-opacity:1;"
         offset="0"
         id="stop8203" />
    </linearGradient>
    <linearGradient
       id="linearGradient8195"
       osb:paint="solid">
      <stop
         style="stop-color:#ad67d2;stop-opacity:1;"
         offset="0"
         id="stop8197" />
    </linearGradient>
    <linearGradient
       id="linearGradient6747">
      <stop
         style="stop-color:#f4e8cf;stop-opacity:1;"
         offset="0"
         id="stop6749" />
      <stop
         style="stop-color:#8dcdff;stop-opacity:1;"
         offset="1"
         id="stop6751" />
    </linearGradient>
    <linearGradient
       id="linearGradient6739">
      <stop
         style="stop-color:#6867d2;stop-opacity:1;"
         offset="0"
         id="stop6741" />
      <stop
         style="stop-color:#d87bd2;stop-opacity:1;"
         offset="1"
         id="stop6743" />
    </linearGradient>
    <linearGradient
       inkscape:collect="always"
       xlink:href="#linearGradient6747"
       id="linearGradient6753"
       x1="129.8423"
       y1="300.31827"
       x2="190.30128"
       y2="300.31827"
       gradientUnits="userSpaceOnUse" />
    <linearGradient
       inkscape:collect="always"
       xlink:href="#linearGradient6747"
       id="linearGradient8259"
       gradientUnits="userSpaceOnUse"
       x1="129.8423"
       y1="300.31827"
       x2="190.30128"
       y2="300.31827" />
    <linearGradient
       inkscape:collect="always"
       xlink:href="#linearGradient6747"
       id="linearGradient8261"
       gradientUnits="userSpaceOnUse"
       x1="129.8423"
       y1="300.31827"
       x2="190.30128"
       y2="300.31827" />
    <linearGradient
       inkscape:collect="always"
       xlink:href="#linearGradient6747"
       id="linearGradient8263"
       gradientUnits="userSpaceOnUse"
       x1="129.8423"
       y1="300.31827"
       x2="190.30128"
       y2="300.31827" />
    <linearGradient
       inkscape:collect="always"
       xlink:href="#linearGradient6747"
       id="linearGradient8265"
       gradientUnits="userSpaceOnUse"
       x1="129.8423"
       y1="300.31827"
       x2="190.30128"
       y2="300.31827" />
    <linearGradient
       inkscape:collect="always"
       xlink:href="#linearGradient6747"
       id="linearGradient8267"
       gradientUnits="userSpaceOnUse"
       x1="129.8423"
       y1="300.31827"
       x2="190.30128"
       y2="300.31827" />
    <linearGradient
       inkscape:collect="always"
       xlink:href="#linearGradient6747"
       id="linearGradient8269"
       gradientUnits="userSpaceOnUse"
       x1="129.8423"
       y1="300.31827"
       x2="190.30128"
       y2="300.31827" />
    <linearGradient
       inkscape:collect="always"
       xlink:href="#linearGradient6747"
       id="linearGradient8271"
       gradientUnits="userSpaceOnUse"
       x1="129.8423"
       y1="300.31827"
       x2="190.30128"
       y2="300.31827" />
    <linearGradient
       inkscape:collect="always"
       xlink:href="#linearGradient6747"
       id="linearGradient8295"
       gradientUnits="userSpaceOnUse"
       x1="129.8423"
       y1="300.31827"
       x2="190.30128"
       y2="300.31827" />
    <linearGradient
       inkscape:collect="always"
       xlink:href="#linearGradient6747"
       id="linearGradient8310"
       gradientUnits="userSpaceOnUse"
       x1="129.8423"
       y1="300.31827"
       x2="190.30128"
       y2="300.31827" />
    <linearGradient
       inkscape:collect="always"
       xlink:href="#linearGradient6747"
       id="linearGradient8316"
       gradientUnits="userSpaceOnUse"
       x1="129.8423"
       y1="300.31827"
       x2="190.30128"
       y2="300.31827"
       gradientTransform="translate(-161.09373,47.01351)" />
    <linearGradient
       inkscape:collect="always"
       xlink:href="#linearGradient6747"
       id="linearGradient8353"
       x1="60.351959"
       y1="313.03177"
       x2="72.627533"
       y2="331.59332"
       gradientUnits="userSpaceOnUse"
       gradientTransform="translate(-1.764802,0.17166381)" />
    <linearGradient
       inkscape:collect="always"
       xlink:href="#linearGradient6747-0"
       id="linearGradient8353-2"
       x1="60.351959"
       y1="313.03177"
       x2="72.627533"
       y2="331.59332"
       gradientUnits="userSpaceOnUse"
       gradientTransform="matrix(1.3964034,0,0,1.3964034,-70.822326,521.44382)" />
    <linearGradient
       id="linearGradient6747-0">
      <stop
         style="stop-color:#f4e8cf;stop-opacity:1;"
         offset="0"
         id="stop6749-4" />
      <stop
         style="stop-color:#8dcdff;stop-opacity:1;"
         offset="1"
         id="stop6751-3" />
    </linearGradient>
    <linearGradient
       inkscape:collect="always"
       xlink:href="#linearGradient6747-0"
       id="linearGradient3048"
       x1="60.351959"
       y1="313.03177"
       x2="72.627533"
       y2="331.59332"
       gradientUnits="userSpaceOnUse"
       gradientTransform="translate(-1.764802,0.17166381)" />
    <linearGradient
       id="linearGradient3050">
      <stop
         style="stop-color:#f4e8cf;stop-opacity:1;"
         offset="0"
         id="stop3052" />
      <stop
         style="stop-color:#8dcdff;stop-opacity:1;"
         offset="1"
         id="stop3054" />
    </linearGradient>
    <linearGradient
       id="linearGradient3057">
      <stop
         style="stop-color:#f4e8cf;stop-opacity:1;"
         offset="0"
         id="stop3059" />
      <stop
         style="stop-color:#8dcdff;stop-opacity:1;"
         offset="1"
         id="stop3061" />
    </linearGradient>
    <linearGradient
       id="linearGradient3064">
      <stop
         style="stop-color:#f4e8cf;stop-opacity:1;"
         offset="0"
         id="stop3066" />
      <stop
         style="stop-color:#8dcdff;stop-opacity:1;"
         offset="1"
         id="stop3068" />
    </linearGradient>
    <linearGradient
       id="linearGradient3071">
      <stop
         style="stop-color:#f4e8cf;stop-opacity:1;"
         offset="0"
         id="stop3073" />
      <stop
         style="stop-color:#8dcdff;stop-opacity:1;"
         offset="1"
         id="stop3075" />
    </linearGradient>
    <linearGradient
       id="linearGradient3078">
      <stop
         style="stop-color:#f4e8cf;stop-opacity:1;"
         offset="0"
         id="stop3080" />
      <stop
         style="stop-color:#8dcdff;stop-opacity:1;"
         offset="1"
         id="stop3082" />
    </linearGradient>
    <linearGradient
       id="linearGradient3085">
      <stop
         style="stop-color:#f4e8cf;stop-opacity:1;"
         offset="0"
         id="stop3087" />
      <stop
         style="stop-color:#8dcdff;stop-opacity:1;"
         offset="1"
         id="stop3089" />
    </linearGradient>
    <linearGradient
       id="linearGradient3092">
      <stop
         style="stop-color:#f4e8cf;stop-opacity:1;"
         offset="0"
         id="stop3094" />
      <stop
         style="stop-color:#8dcdff;stop-opacity:1;"
         offset="1"
         id="stop3096" />
    </linearGradient>
    <linearGradient
       id="linearGradient3099">
      <stop
         style="stop-color:#f4e8cf;stop-opacity:1;"
         offset="0"
         id="stop3101" />
      <stop
         style="stop-color:#8dcdff;stop-opacity:1;"
         offset="1"
         id="stop3103" />
    </linearGradient>
    <linearGradient
       id="linearGradient3106">
      <stop
         style="stop-color:#f4e8cf;stop-opacity:1;"
         offset="0"
         id="stop3108" />
      <stop
         style="stop-color:#8dcdff;stop-opacity:1;"
         offset="1"
         id="stop3110" />
    </linearGradient>
    <linearGradient
       id="linearGradient3113">
      <stop
         style="stop-color:#f4e8cf;stop-opacity:1;"
         offset="0"
         id="stop3115" />
      <stop
         style="stop-color:#8dcdff;stop-opacity:1;"
         offset="1"
         id="stop3117" />
    </linearGradient>
    <linearGradient
       inkscape:collect="always"
       xlink:href="#linearGradient8335-2"
       id="linearGradient8341-5"
       x1="56.390106"
       y1="315.15781"
       x2="116.87299"
       y2="377.02963"
       gradientUnits="userSpaceOnUse"
       gradientTransform="matrix(1.0185038,0,0,1.0185038,-2.2116514,-7.0056596)" />
    <linearGradient
       id="linearGradient8335-2">
      <stop
         style="stop-color:#0000ff;stop-opacity:1;"
         offset="0"
         id="stop8337-5" />
      <stop
         style="stop-color:#00a81b;stop-opacity:1;"
         offset="1"
         id="stop8339-5" />
    </linearGradient>
    <linearGradient
       inkscape:collect="always"
       xlink:href="#linearGradient6747-0"
       id="linearGradient3298"
       gradientUnits="userSpaceOnUse"
       gradientTransform="matrix(1.3964034,0,0,1.3964034,-70.822326,521.44382)"
       x1="60.351959"
       y1="313.03177"
       x2="72.627533"
       y2="331.59332" />
    <linearGradient
       inkscape:collect="always"
       xlink:href="#linearGradient6747-0"
       id="linearGradient3304"
       gradientUnits="userSpaceOnUse"
       gradientTransform="matrix(1.4534049,0,0,1.4534049,-79.475301,505.27284)"
       x1="60.351959"
       y1="313.03177"
       x2="72.627533"
       y2="331.59332" />
    <linearGradient
       inkscape:collect="always"
       xlink:href="#linearGradient8335-2"
       id="linearGradient3334"
       gradientUnits="userSpaceOnUse"
       gradientTransform="matrix(1.4802983,0,0,1.4802983,-76.932117,491.90933)"
       x1="56.390106"
       y1="315.15781"
       x2="116.87299"
       y2="377.02963" />
  </defs>
  <sodipodi:namedview
     id="base"
     pagecolor="#ffffff"
     bordercolor="#666666"
     borderopacity="1.0"
     inkscape:pageopacity="0.0"
     inkscape:pageshadow="2"
     inkscape:zoom="3.959798"
     inkscape:cx="-18.324165"
     inkscape:cy="68.562983"
     inkscape:document-units="px"
     inkscape:current-layer="layer1"
     showgrid="true"
     showguides="true"
     inkscape:guide-bbox="true"
     inkscape:window-width="1855"
     inkscape:window-height="1056"
     inkscape:window-x="65"
     inkscape:window-y="24"
     inkscape:window-maximized="1"
     inkscape:object-paths="true"
     inkscape:snap-bbox="true">
    <inkscape:grid
       type="xygrid"
       id="grid3300"
       empspacing="5"
       visible="true"
       enabled="true"
       snapvisiblegridlinesonly="true" />
  </sodipodi:namedview>
  <metadata
     id="metadata6074">
    <rdf:RDF>
      <cc:Work
         rdf:about="">
        <dc:format>image/svg+xml</dc:format>
        <dc:type
           rdf:resource="http://purl.org/dc/dcmitype/StillImage" />
        <dc:title />
      </cc:Work>
    </rdf:RDF>
  </metadata>
  <g
     inkscape:label="Layer 1"
     inkscape:groupmode="layer"
     id="layer1"
     transform="translate(0,-952.36218)">
    <rect
       style="fill:url(#linearGradient3334);fill-opacity:1;stroke:none"
       id="rect6591"
       width="100"
       height="100"
       x="-4.7882413e-08"
       y="952.36218"
       ry="9.516202"
       inkscape:export-filename="C:\Users\jouke\Desktop\app_001_icon.png"
       inkscape:export-xdpi="130.81"
       inkscape:export-ydpi="130.81" />
    <path
       id="path6594"
       style="font-size:20px;font-style:normal;font-variant:normal;font-weight:bold;font-stretch:normal;line-height:125%;letter-spacing:0px;word-spacing:0px;fill:#ffffff;fill-opacity:1;stroke:none;font-family:Monospace;-inkscape-font-specification:Monospace Bold"
       d="m 22.88254,1021.9152 -6.216706,0 0,4.2155 0.454189,0 c 0.700207,0 1.199336,0.1352 1.4974,0.4044 0.298063,0.2697 0.447082,0.6221 0.447096,1.0574 -1.4e-5,0.4259 -0.149033,0.7735 -0.447096,1.0433 -0.298064,0.2696 -0.797193,0.4045 -1.4974,0.4045 l -3.562543,0 c -0.700206,0 -1.199349,-0.1352 -1.497413,-0.4045 -0.298049,-0.2698 -0.447082,-0.6223 -0.447082,-1.0576 0,-0.5298 0.231818,-0.9413 0.695468,-1.2348 0.227095,-0.1512 0.709669,-0.2223 1.447738,-0.2127 l 0,-11.3833 c -0.510974,-0.048 -0.896563,-0.2035 -1.156766,-0.4685 -0.260217,-0.265 -0.390326,-0.596 -0.390326,-0.9935 0,-0.4352 0.149032,-0.7876 0.447097,-1.0574 0.298063,-0.2696 0.797192,-0.4045 1.497399,-0.4045 l 2.966428,0.015 c 0.700207,0 1.199336,0.1323 1.4974,0.3974 0.298063,0.2649 0.447082,0.615 0.447096,1.0503 -1.4e-5,0.4354 -0.149033,0.7878 -0.447096,1.0574 -0.298064,0.2697 -0.797193,0.4044 -1.4974,0.4044 l -0.454189,0 0,4.2581 6.216706,0 0,-4.2581 -0.454189,0 c -0.700206,0 -1.199349,-0.1351 -1.497399,-0.4044 -0.298064,-0.2696 -0.447096,-0.622 -0.447096,-1.0574 0,-0.4353 0.149032,-0.7877 0.447096,-1.0575 0.29805,-0.2696 0.797193,-0.4045 1.497399,-0.4045 l 2.966428,0.015 c 0.700194,0 1.199322,0.1322 1.4974,0.3973 0.29805,0.265 0.447083,0.6151 0.447097,1.0504 -1.4e-5,0.3974 -0.13008,0.7286 -0.390313,0.9936 -0.260232,0.265 -0.645819,0.421 -1.156764,0.4684 l 0,11.3832 c 0.7475,0 1.230075,0.071 1.447722,0.2128 0.463636,0.2933 0.695454,0.7098 0.695483,1.2491 -2.9e-5,0.4257 -0.149047,0.7735 -0.447096,1.0431 -0.298079,0.2698 -0.797207,0.4047 -1.4974,0.4047 l -3.562557,0 c -0.700206,0 -1.199349,-0.1352 -1.497399,-0.4047 -0.298064,-0.2696 -0.447096,-0.6221 -0.447096,-1.0573 0,-0.4258 0.151387,-0.7735 0.454189,-1.0433 0.302788,-0.2695 0.799562,-0.4044 1.490306,-0.4044 l 0.454189,0 z"
       inkscape:connector-curvature="0"
       inkscape:export-filename="C:\Users\jouke\Desktop\app_001_icon.png"
       inkscape:export-xdpi="130.81"
       inkscape:export-ydpi="130.81" />
    <path
       id="path6596"
       style="font-size:20px;font-style:normal;font-variant:normal;font-weight:bold;font-stretch:normal;line-height:125%;letter-spacing:0px;word-spacing:0px;fill:#ffffff;fill-opacity:1;stroke:none;font-family:Monospace;-inkscape-font-specification:Monospace Bold"
       d="m 44.428134,1024.0725 -11.936654,0 c 0.302787,0.757 0.839777,1.3674 1.610953,1.831 0.771163,0.4636 1.814387,0.6954 3.129646,0.6954 1.078688,0 2.512225,-0.2318 4.300596,-0.6954 0.738054,-0.1893 1.249012,-0.2839 1.532892,-0.2839 0.387943,0 0.714392,0.1367 0.979347,0.4117 0.264927,0.2743 0.397405,0.6197 0.397419,1.0361 -1.4e-5,0.3784 -0.141998,0.7003 -0.425804,0.965 -0.37851,0.3502 -1.301073,0.6838 -2.767718,1.0007 -1.46666,0.317 -2.876536,0.4755 -4.229627,0.4755 -2.327729,0 -4.189424,-0.6576 -5.585115,-1.9727 -1.395675,-1.3154 -2.093528,-2.9335 -2.093528,-4.8543 0,-2.044 0.754623,-3.707 2.263853,-4.9891 1.50923,-1.2822 3.247924,-1.9232 5.216081,-1.9232 1.182766,0 2.268561,0.2083 3.257385,0.6245 0.988795,0.4164 1.72448,0.8658 2.207069,1.3484 0.681269,0.7001 1.244273,1.566 1.689016,2.5973 0.302773,0.7192 0.454174,1.552 0.454189,2.4982 z m -3.221894,-2.9096 c -0.444742,-0.8327 -1.02667,-1.4548 -1.745801,-1.8665 -0.719144,-0.4116 -1.575476,-0.6174 -2.568995,-0.6174 -0.984085,0 -1.835693,0.2058 -2.554823,0.6174 -0.719131,0.4117 -1.305798,1.0338 -1.759972,1.8665 z"
       inkscape:connector-curvature="0"
       inkscape:export-filename="C:\Users\jouke\Desktop\app_001_icon.png"
       inkscape:export-xdpi="130.81"
       inkscape:export-ydpi="130.81" />
    <path
       id="path6598"
       style="font-size:20px;font-style:normal;font-variant:normal;font-weight:bold;font-stretch:normal;line-height:125%;letter-spacing:0px;word-spacing:0px;fill:#ffffff;fill-opacity:1;stroke:none;font-family:Monospace;-inkscape-font-specification:Monospace Bold"
       d="m 56.009953,1010.6314 0,15.4993 3.491587,0 c 0.700192,0 1.199321,0.1352 1.497399,0.4044 0.298051,0.2697 0.447083,0.6221 0.447097,1.0574 -1.4e-5,0.4259 -0.149046,0.7735 -0.447097,1.0433 -0.298078,0.2696 -0.797207,0.4045 -1.497399,0.4045 l -9.892803,0 c -0.700221,0 -1.19935,-0.1352 -1.497414,-0.4045 -0.298064,-0.2698 -0.447096,-0.6223 -0.447096,-1.0576 0,-0.4257 0.149032,-0.7734 0.447096,-1.0431 0.298064,-0.2697 0.797193,-0.4044 1.497414,-0.4044 l 3.491572,0 0,-12.5898 -2.341914,0 c -0.690746,0 -1.18752,-0.1352 -1.490307,-0.4045 -0.302803,-0.2695 -0.454189,-0.6222 -0.454189,-1.0573 0,-0.4258 0.149032,-0.7737 0.447096,-1.0433 0.29805,-0.2697 0.797193,-0.4044 1.4974,-0.4044 z"
       inkscape:connector-curvature="0"
       inkscape:export-filename="C:\Users\jouke\Desktop\app_001_icon.png"
       inkscape:export-xdpi="130.81"
       inkscape:export-ydpi="130.81" />
    <path
       id="path6600"
       style="font-size:20px;font-style:normal;font-variant:normal;font-weight:bold;font-stretch:normal;line-height:125%;letter-spacing:0px;word-spacing:0px;fill:#ffffff;fill-opacity:1;stroke:none;font-family:Monospace;-inkscape-font-specification:Monospace Bold"
       d="m 73.439474,1010.6314 0,15.4993 3.491573,0 c 0.700192,0 1.199335,0.1352 1.497414,0.4044 0.298035,0.2697 0.447067,0.6221 0.447082,1.0574 -1.5e-5,0.4259 -0.149047,0.7735 -0.447082,1.0433 -0.298079,0.2696 -0.797222,0.4045 -1.497414,0.4045 l -9.892818,0 c -0.700207,0 -1.199335,-0.1352 -1.497399,-0.4045 -0.298065,-0.2698 -0.447097,-0.6223 -0.447097,-1.0576 0,-0.4257 0.149032,-0.7734 0.447097,-1.0431 0.298064,-0.2697 0.797192,-0.4044 1.497399,-0.4044 l 3.491587,0 0,-12.5898 -2.341915,0 c -0.690745,0 -1.187518,-0.1352 -1.490307,-0.4045 -0.302802,-0.2695 -0.454189,-0.6222 -0.454189,-1.0573 0,-0.4258 0.149018,-0.7737 0.447097,-1.0433 0.29805,-0.2697 0.797178,-0.4044 1.497399,-0.4044 z"
       inkscape:connector-curvature="0"
       inkscape:export-filename="C:\Users\jouke\Desktop\app_001_icon.png"
       inkscape:export-xdpi="130.81"
       inkscape:export-ydpi="130.81" />
    <path
       id="path6602"
       style="font-size:20px;font-style:normal;font-variant:normal;font-weight:bold;font-stretch:normal;line-height:125%;letter-spacing:0px;word-spacing:0px;fill:#ffffff;fill-opacity:1;stroke:none;font-family:Monospace;-inkscape-font-specification:Monospace Bold"
       d="m 96.972148,1022.8377 c -2.9e-5,1.1166 -0.309909,2.1977 -0.929671,3.2433 -0.61979,1.0455 -1.542367,1.8782 -2.767719,2.498 -1.225379,0.6198 -2.505146,0.9296 -3.839314,0.9296 -1.32472,0 -2.592671,-0.3051 -3.803837,-0.9155 -1.211165,-0.6102 -2.133742,-1.4406 -2.767718,-2.491 -0.633961,-1.0502 -0.950948,-2.1478 -0.950948,-3.2928 0,-1.1639 0.321711,-2.3064 0.965147,-3.4277 0.643438,-1.1213 1.56837,-2.0037 2.774813,-2.6472 1.206427,-0.6434 2.467285,-0.9651 3.782543,-0.9651 1.324706,0 2.599749,0.3289 3.825129,0.9864 1.225337,0.6577 2.150283,1.5424 2.774797,2.6542 0.624499,1.1119 0.936749,2.2545 0.936778,3.4278 z m -2.909659,0.015 c -1.4e-5,-0.9367 -0.335925,-1.7978 -1.007732,-2.5831 -0.91784,-1.0599 -2.124282,-1.5898 -3.619313,-1.5898 -1.315258,0 -2.412884,0.421 -3.292877,1.2632 -0.879993,0.8423 -1.319983,1.8169 -1.319983,2.9239 0,0.9085 0.444728,1.7577 1.334183,2.5478 0.88944,0.79 1.982342,1.1851 3.278677,1.1851 1.305783,0 2.403409,-0.3951 3.292864,-1.1851 0.88944,-0.7901 1.334167,-1.6441 1.334181,-2.562 z"
       inkscape:connector-curvature="0"
       inkscape:export-filename="C:\Users\jouke\Desktop\app_001_icon.png"
       inkscape:export-xdpi="130.81"
       inkscape:export-ydpi="130.81" />
    <path
       inkscape:connector-curvature="0"
       id="path6604"
       style="font-size:20px;font-style:normal;font-variant:normal;font-weight:bold;font-stretch:normal;line-height:125%;letter-spacing:0px;word-spacing:0px;fill:#ffffff;fill-opacity:1;stroke:none;font-family:Monospace;-inkscape-font-specification:Monospace Bold"
       d="m 72.611339,966.08869 -2.696749,8.26057 -3.264478,0 -1.731601,-14.29278 c -0.444728,-0.0567 -0.780624,-0.21045 -1.007719,-0.46131 -0.227094,-0.25071 -0.340649,-0.57003 -0.340649,-0.95794 0,-0.45419 0.149033,-0.81855 0.447097,-1.09296 0.298064,-0.27441 0.797192,-0.41161 1.497399,-0.41161 l 3.874807,0.0146 c 0.700192,0 1.199335,0.13226 1.497399,0.39736 0.29805,0.26496 0.447082,0.61508 0.447097,1.05038 -1.5e-5,0.43529 -0.149047,0.78775 -0.447097,1.05735 -0.298064,0.26975 -0.797207,0.40463 -1.497399,0.40463 l -1.518707,0 0.965163,8.13281 2.28513,-6.77024 3.023183,0 2.270946,6.77024 0.965148,-8.13281 -1.518691,0 c -0.700223,0 -1.199351,-0.13517 -1.4974,-0.40463 -0.298079,-0.2696 -0.447112,-0.62206 -0.447097,-1.05735 -1.5e-5,-0.4353 0.149018,-0.78775 0.447097,-1.05736 0.298049,-0.26975 0.797177,-0.40463 1.4974,-0.40463 l 3.860606,0.0146 c 0.700192,0 1.199335,0.13226 1.497413,0.3975 0.298036,0.26497 0.447068,0.61509 0.447082,1.05023 -1.4e-5,0.36903 -0.118306,0.68602 -0.354834,0.95097 -0.23657,0.26496 -0.577219,0.43529 -1.021918,0.51102 l -1.67483,14.29278 -3.207709,0 z"
       inkscape:export-filename="C:\Users\jouke\Desktop\app_001_icon.png"
       inkscape:export-xdpi="130.81"
       inkscape:export-ydpi="130.81" />
    <path
       inkscape:connector-curvature="0"
       id="path6606"
       style="font-size:20px;font-style:normal;font-variant:normal;font-weight:bold;font-stretch:normal;line-height:125%;letter-spacing:0px;word-spacing:0px;fill:#ffffff;fill-opacity:1;stroke:none;font-family:Monospace;-inkscape-font-specification:Monospace Bold"
       d="m 80.148027,984.29651 c -1.4e-5,1.11665 -0.309894,2.19769 -0.929655,3.24328 -0.619804,1.04557 -1.542367,1.87823 -2.767719,2.49796 -1.22538,0.61973 -2.505147,0.92975 -3.839314,0.92975 -1.324735,0 -2.592671,-0.30522 -3.803837,-0.91551 -1.21118,-0.61028 -2.133743,-1.44061 -2.767718,-2.49098 -0.633975,-1.05024 -0.950964,-2.14785 -0.950949,-3.29285 -1.5e-5,-1.16388 0.321711,-2.3064 0.965148,-3.4277 0.643423,-1.1213 1.56837,-2.00367 2.774811,-2.64708 1.206429,-0.64343 2.467272,-0.96521 3.782545,-0.96521 1.324706,0 2.599748,0.3289 3.825114,0.98642 1.225352,0.65767 2.150284,1.5425 2.774811,2.65421 0.6245,1.11185 0.936749,2.25438 0.936763,3.42771 z m -2.909643,0.0146 c -1.4e-5,-0.93672 -0.335925,-1.79786 -1.007733,-2.58314 -0.917854,-1.05983 -2.124282,-1.58974 -3.619312,-1.58974 -1.315273,0 -2.412884,0.42105 -3.292878,1.26331 -0.879993,0.84209 -1.319982,1.81675 -1.319982,2.92381 0,0.90837 0.444712,1.7576 1.334182,2.54767 0.88944,0.79007 1.982328,1.18511 3.278678,1.18511 1.305782,0 2.403393,-0.39504 3.292863,-1.18511 0.88944,-0.79007 1.334168,-1.64409 1.334182,-2.56191 z"
       inkscape:export-filename="C:\Users\jouke\Desktop\app_001_icon.png"
       inkscape:export-xdpi="130.81"
       inkscape:export-ydpi="130.81" />
    <path
       inkscape:connector-curvature="0"
       id="path6608"
       style="font-size:20px;font-style:normal;font-variant:normal;font-weight:bold;font-stretch:normal;line-height:125%;letter-spacing:0px;word-spacing:0px;fill:#ffffff;fill-opacity:1;stroke:none;font-family:Monospace;-inkscape-font-specification:Monospace Bold"
       d="m 71.646191,994.86233 0,1.81675 c 1.220599,-0.88003 2.183392,-1.46663 2.888337,-1.75992 0.70493,-0.29345 1.364921,-0.44009 1.979988,-0.44009 0.946209,0 1.864049,0.35012 2.753519,1.05037 0.60556,0.47309 0.908363,0.95561 0.908378,1.44773 -1.5e-5,0.41626 -0.144324,0.76886 -0.432897,1.05736 -0.288618,0.28864 -0.636359,0.43297 -1.043225,0.43297 -0.359572,0 -0.738068,-0.17979 -1.135472,-0.53936 -0.39742,-0.35957 -0.752254,-0.53936 -1.064503,-0.53936 -0.406895,0 -1.01484,0.25551 -1.823849,0.76638 -0.809038,0.51101 -1.819139,1.2774 -3.030276,2.29944 l 0,4.3857 4.144456,0 c 0.700192,0 1.199335,0.1352 1.4974,0.4045 0.298049,0.2697 0.447081,0.6221 0.447096,1.0574 -1.5e-5,0.4259 -0.149047,0.7735 -0.447096,1.0433 -0.298065,0.2696 -0.797208,0.4045 -1.4974,0.4045 l -8.7857,0 c -0.700223,0 -1.199351,-0.1352 -1.497415,-0.4045 -0.298064,-0.2698 -0.447082,-0.6222 -0.447082,-1.0576 0,-0.4257 0.149018,-0.7734 0.447082,-1.0431 0.298064,-0.2697 0.797192,-0.4045 1.497415,-0.4045 l 1.731585,0 0,-7.06825 -1.050302,0 c -0.700222,0 -1.19935,-0.13517 -1.497415,-0.40463 -0.298063,-0.26962 -0.447081,-0.62206 -0.447081,-1.05736 0,-0.42584 0.149018,-0.7735 0.447081,-1.04325 0.298065,-0.26961 0.797193,-0.40448 1.497415,-0.40448 z"
       inkscape:export-filename="C:\Users\jouke\Desktop\app_001_icon.png"
       inkscape:export-xdpi="130.81"
       inkscape:export-ydpi="130.81" />
    <path
       inkscape:connector-curvature="0"
       id="path6612"
       style="font-size:20px;font-style:normal;font-variant:normal;font-weight:bold;font-stretch:normal;line-height:125%;letter-spacing:0px;word-spacing:0px;fill:#ffffff;fill-opacity:1;stroke:none;font-family:Monospace;-inkscape-font-specification:Monospace Bold"
       d="m 78.657735,1031.3673 0,15.4992 0.49676,0 c 0.690731,0 1.187504,0.1352 1.490307,0.4046 0.302788,0.2696 0.454174,0.6222 0.454189,1.0572 -1.5e-5,0.4259 -0.149047,0.7737 -0.447083,1.0433 -0.298078,0.2697 -0.797221,0.4045 -1.497413,0.4045 l -3.406418,0 0,-0.7095 c -0.66236,0.3879 -1.355474,0.6812 -2.079328,0.8799 -0.723869,0.1986 -1.473753,0.2981 -2.249653,0.2981 -2.18579,0 -3.945776,-0.6317 -5.279943,-1.8948 -1.334182,-1.2632 -2.001281,-2.8364 -2.001281,-4.7194 0,-1.9681 0.700208,-3.6476 2.100635,-5.0386 1.4004,-1.391 3.108339,-2.0865 5.12382,-2.0865 0.756961,0 1.499753,0.1163 2.228359,0.3477 0.728578,0.232 1.447708,0.5796 2.157391,1.0433 l 0,-3.6193 -0.496759,0 c -0.700221,0 -1.199364,-0.1352 -1.497414,-0.4045 -0.298064,-0.2697 -0.447096,-0.6174 -0.447082,-1.0432 -1.4e-5,-0.4353 0.149018,-0.7878 0.447082,-1.0575 0.29805,-0.2697 0.797193,-0.4045 1.497414,-0.4045 z m -2.909658,12.3482 c 0,-1.2016 -0.42108,-2.2189 -1.263213,-3.0516 -0.842146,-0.8326 -1.873539,-1.2489 -3.094153,-1.2489 -1.21118,0 -2.237836,0.4163 -3.079968,1.2489 -0.842146,0.8327 -1.263227,1.8357 -1.263212,3.009 -1.5e-5,1.0694 0.378481,1.9469 1.135472,2.6329 0.756977,0.686 1.826203,1.0292 3.207708,1.0292 1.372014,0 2.441255,-0.3432 3.207708,-1.0292 0.766425,-0.686 1.149658,-1.5494 1.149658,-2.5903 z"
       inkscape:export-filename="C:\Users\jouke\Desktop\app_001_icon.png"
       inkscape:export-xdpi="130.81"
       inkscape:export-ydpi="130.81" />
    <text
       xml:space="preserve"
       style="font-size:37.19091034000000207px;font-style:normal;font-weight:normal;line-height:125%;letter-spacing:0px;word-spacing:0px;fill:#ffffff;fill-opacity:1;stroke:none;font-family:monospace;-inkscape-font-specification:monospace"
       x="5.7377906"
       y="987.56573"
       id="text8343"
       sodipodi:linespacing="125%"
       inkscape:export-filename="C:\Users\jouke\Desktop\app_001_icon.png"
       inkscape:export-xdpi="130.81"
       inkscape:export-ydpi="130.81"><tspan
         sodipodi:role="line"
         id="tspan8345"
         x="5.7377906"
         y="987.56573"
         style="font-size:40.69533538999999678px;font-weight:bold;fill:#ffffff;fill-opacity:1;stroke:none;font-family:Serif;-inkscape-font-specification:Serif Bold">1</tspan></text>
  </g>
</svg>
