<?xml version="1.0" encoding="UTF-8" standalone="no"?>
<!-- Created with Inkscape (http://www.inkscape.org/) -->

<svg
   xmlns:dc="http://purl.org/dc/elements/1.1/"
   xmlns:cc="http://creativecommons.org/ns#"
   xmlns:rdf="http://www.w3.org/1999/02/22-rdf-syntax-ns#"
   xmlns:svg="http://www.w3.org/2000/svg"
   xmlns="http://www.w3.org/2000/svg"
   xmlns:xlink="http://www.w3.org/1999/xlink"
   xmlns:sodipodi="http://sodipodi.sourceforge.net/DTD/sodipodi-0.dtd"
   xmlns:inkscape="http://www.inkscape.org/namespaces/inkscape"
   sodipodi:docname="app_004_icon.svg"
   inkscape:version="0.48.4 r9939"
   version="1.1"
   id="svg8355"
   height="48"
   width="48">
  <sodipodi:namedview
     id="base"
     pagecolor="#ffffff"
     bordercolor="#666666"
     borderopacity="1.0"
     inkscape:pageopacity="0.0"
     inkscape:pageshadow="2"
     inkscape:zoom="11.2"
     inkscape:cx="22.203001"
     inkscape:cy="18.042959"
     inkscape:document-units="px"
     inkscape:current-layer="g10266"
     showgrid="false"
     inkscape:window-width="1920"
     inkscape:window-height="1024"
     inkscape:window-x="0"
     inkscape:window-y="0"
     inkscape:window-maximized="1" />
  <defs
     id="defs8357">
    <linearGradient
       id="linearGradient10118">
      <stop
         style="stop-color:#00dfff;stop-opacity:1;"
         offset="0"
         id="stop10120" />
      <stop
         style="stop-color:#0000ff;stop-opacity:1;"
         offset="1"
         id="stop10122" />
    </linearGradient>
    <radialGradient
       inkscape:collect="always"
       xlink:href="#linearGradient10118"
       id="radialGradient10124"
       cx="0"
       cy="0"
       fx="0"
       fy="0"
       r="101"
       gradientUnits="userSpaceOnUse" />
    <radialGradient
       inkscape:collect="always"
       xlink:href="#linearGradient10118"
       id="radialGradient10214"
       gradientUnits="userSpaceOnUse"
       cx="0"
       cy="0"
       fx="0"
       fy="0"
       r="101" />
    <radialGradient
       inkscape:collect="always"
       xlink:href="#linearGradient10118"
       id="radialGradient10216"
       gradientUnits="userSpaceOnUse"
       cx="41.348339"
       cy="-82.138252"
       fx="41.348339"
       fy="-82.138252"
       r="101" />
    <radialGradient
       inkscape:collect="always"
       xlink:href="#linearGradient10118"
       id="radialGradient10264"
       gradientUnits="userSpaceOnUse"
       cx="0"
       cy="0"
       fx="0"
       fy="0"
       r="101" />
    <radialGradient
       inkscape:collect="always"
       xlink:href="#linearGradient10118"
       id="radialGradient10320"
       gradientUnits="userSpaceOnUse"
       cx="0"
       cy="0"
       fx="0"
       fy="0"
       r="101" />
    <radialGradient
       inkscape:collect="always"
       xlink:href="#linearGradient10118"
       id="radialGradient10322"
       gradientUnits="userSpaceOnUse"
       cx="0"
       cy="0"
       fx="0"
       fy="0"
       r="101" />
    <radialGradient
       inkscape:collect="always"
       xlink:href="#linearGradient10118"
       id="radialGradient10324"
       gradientUnits="userSpaceOnUse"
       cx="0"
       cy="0"
       fx="0"
       fy="0"
       r="101" />
    <radialGradient
       inkscape:collect="always"
       xlink:href="#linearGradient10118"
       id="radialGradient10326"
       gradientUnits="userSpaceOnUse"
       cx="0"
       cy="0"
       fx="0"
       fy="0"
       r="101" />
    <radialGradient
       inkscape:collect="always"
       xlink:href="#linearGradient10118"
       id="radialGradient10328"
       gradientUnits="userSpaceOnUse"
       cx="0"
       cy="0"
       fx="0"
       fy="0"
       r="101" />
    <radialGradient
       inkscape:collect="always"
       xlink:href="#linearGradient10118"
       id="radialGradient10330"
       gradientUnits="userSpaceOnUse"
       cx="0"
       cy="0"
       fx="0"
       fy="0"
       r="101" />
    <radialGradient
       inkscape:collect="always"
       xlink:href="#linearGradient10118"
       id="radialGradient10332"
       gradientUnits="userSpaceOnUse"
       cx="0"
       cy="0"
       fx="0"
       fy="0"
       r="101" />
    <radialGradient
       inkscape:collect="always"
       xlink:href="#linearGradient10118"
       id="radialGradient10334"
       gradientUnits="userSpaceOnUse"
       cx="0"
       cy="0"
       fx="0"
       fy="0"
       r="101" />
    <radialGradient
       inkscape:collect="always"
       xlink:href="#linearGradient10118"
       id="radialGradient10336"
       gradientUnits="userSpaceOnUse"
       cx="0"
       cy="0"
       fx="0"
       fy="0"
       r="101" />
    <radialGradient
       inkscape:collect="always"
       xlink:href="#linearGradient10118"
       id="radialGradient10338"
       gradientUnits="userSpaceOnUse"
       cx="0"
       cy="0"
       fx="0"
       fy="0"
       r="101" />
    <radialGradient
       inkscape:collect="always"
       xlink:href="#linearGradient10118"
       id="radialGradient10340"
       gradientUnits="userSpaceOnUse"
       cx="0"
       cy="0"
       fx="0"
       fy="0"
       r="101" />
    <radialGradient
       inkscape:collect="always"
       xlink:href="#linearGradient10118"
       id="radialGradient10342"
       gradientUnits="userSpaceOnUse"
       cx="0"
       cy="0"
       fx="0"
       fy="0"
       r="101" />
    <radialGradient
       inkscape:collect="always"
       xlink:href="#linearGradient10118"
       id="radialGradient10344"
       gradientUnits="userSpaceOnUse"
       cx="0"
       cy="0"
       fx="0"
       fy="0"
       r="101" />
    <radialGradient
       inkscape:collect="always"
       xlink:href="#linearGradient10118"
       id="radialGradient10346"
       gradientUnits="userSpaceOnUse"
       cx="0"
       cy="0"
       fx="0"
       fy="0"
       r="101" />
    <radialGradient
       inkscape:collect="always"
       xlink:href="#linearGradient10118"
       id="radialGradient10348"
       gradientUnits="userSpaceOnUse"
       cx="0"
       cy="0"
       fx="0"
       fy="0"
       r="101" />
    <radialGradient
       inkscape:collect="always"
       xlink:href="#linearGradient10118"
       id="radialGradient10350"
       gradientUnits="userSpaceOnUse"
       cx="0"
       cy="0"
       fx="0"
       fy="0"
       r="101" />
    <radialGradient
       inkscape:collect="always"
       xlink:href="#linearGradient10118"
       id="radialGradient10352"
       gradientUnits="userSpaceOnUse"
       cx="0"
       cy="0"
       fx="0"
       fy="0"
       r="101" />
    <radialGradient
       inkscape:collect="always"
       xlink:href="#linearGradient10118"
       id="radialGradient10354"
       gradientUnits="userSpaceOnUse"
       cx="0"
       cy="0"
       fx="0"
       fy="0"
       r="101" />
    <radialGradient
       inkscape:collect="always"
       xlink:href="#linearGradient10118"
       id="radialGradient10356"
       gradientUnits="userSpaceOnUse"
       cx="0"
       cy="0"
       fx="0"
       fy="0"
       r="101" />
    <radialGradient
       inkscape:collect="always"
       xlink:href="#linearGradient10118"
       id="radialGradient10358"
       gradientUnits="userSpaceOnUse"
       cx="0"
       cy="0"
       fx="0"
       fy="0"
       r="101" />
    <radialGradient
       inkscape:collect="always"
       xlink:href="#linearGradient10118"
       id="radialGradient10360"
       gradientUnits="userSpaceOnUse"
       cx="0"
       cy="0"
       fx="0"
       fy="0"
       r="101" />
    <radialGradient
       inkscape:collect="always"
       xlink:href="#linearGradient10118"
       id="radialGradient10362"
       gradientUnits="userSpaceOnUse"
       cx="0"
       cy="0"
       fx="0"
       fy="0"
       r="101" />
    <radialGradient
       inkscape:collect="always"
       xlink:href="#linearGradient10118"
       id="radialGradient10364"
       gradientUnits="userSpaceOnUse"
       cx="0"
       cy="0"
       fx="0"
       fy="0"
       r="101" />
    <radialGradient
       inkscape:collect="always"
       xlink:href="#linearGradient10118"
       id="radialGradient10366"
       gradientUnits="userSpaceOnUse"
       cx="0"
       cy="0"
       fx="0"
       fy="0"
       r="101" />
    <radialGradient
       inkscape:collect="always"
       xlink:href="#linearGradient10118"
       id="radialGradient10368"
       gradientUnits="userSpaceOnUse"
       cx="0"
       cy="0"
       fx="0"
       fy="0"
       r="101" />
    <radialGradient
       inkscape:collect="always"
       xlink:href="#linearGradient10118"
       id="radialGradient10370"
       gradientUnits="userSpaceOnUse"
       cx="0"
       cy="0"
       fx="0"
       fy="0"
       r="101" />
    <radialGradient
       inkscape:collect="always"
       xlink:href="#linearGradient10118"
       id="radialGradient10401"
       gradientUnits="userSpaceOnUse"
       cx="0"
       cy="0"
       fx="0"
       fy="0"
       r="101" />
    <radialGradient
       inkscape:collect="always"
       xlink:href="#linearGradient10118"
       id="radialGradient10407"
       gradientUnits="userSpaceOnUse"
       cx="0"
       cy="0"
       fx="0"
       fy="0"
       r="101" />
    <radialGradient
       inkscape:collect="always"
       xlink:href="#linearGradient10118"
       id="radialGradient10413"
       gradientUnits="userSpaceOnUse"
       cx="0"
       cy="0"
       fx="0"
       fy="0"
       r="101" />
    <radialGradient
       inkscape:collect="always"
       xlink:href="#linearGradient10118"
       id="radialGradient10419"
       gradientUnits="userSpaceOnUse"
       cx="0"
       cy="0"
       fx="0"
       fy="0"
       r="101" />
    <radialGradient
       inkscape:collect="always"
       xlink:href="#linearGradient10118"
       id="radialGradient10425"
       gradientUnits="userSpaceOnUse"
       cx="0"
       cy="0"
       fx="0"
       fy="0"
       r="101"
       gradientTransform="matrix(0.95779399,0.28745553,-0.28745553,0.95779399,331.89305,440.04373)" />
    <radialGradient
       inkscape:collect="always"
       xlink:href="#linearGradient10118"
       id="radialGradient10431"
       gradientUnits="userSpaceOnUse"
       cx="0"
       cy="0"
       fx="0"
       fy="0"
       r="101"
       gradientTransform="matrix(0.95779399,0.28745553,-0.28745553,0.95779399,331.89305,440.04373)" />
    <radialGradient
       inkscape:collect="always"
       xlink:href="#linearGradient10118"
       id="radialGradient10437"
       gradientUnits="userSpaceOnUse"
       cx="0"
       cy="0"
       fx="0"
       fy="0"
       r="101"
       gradientTransform="matrix(0.95779399,0.28745553,-0.28745553,0.95779399,331.89305,440.04373)" />
    <radialGradient
       inkscape:collect="always"
       xlink:href="#linearGradient10118"
       id="radialGradient10443"
       gradientUnits="userSpaceOnUse"
       cx="0"
       cy="0"
       fx="0"
       fy="0"
       r="101" />
    <radialGradient
       inkscape:collect="always"
       xlink:href="#linearGradient10118"
       id="radialGradient10449"
       gradientUnits="userSpaceOnUse"
       cx="0"
       cy="0"
       fx="0"
       fy="0"
       r="101" />
    <radialGradient
       inkscape:collect="always"
       xlink:href="#linearGradient10118"
       id="radialGradient10455"
       gradientUnits="userSpaceOnUse"
       cx="0"
       cy="0"
       fx="0"
       fy="0"
       r="101" />
    <radialGradient
       inkscape:collect="always"
       xlink:href="#linearGradient10118"
       id="radialGradient10461"
       gradientUnits="userSpaceOnUse"
       cx="0"
       cy="0"
       fx="0"
       fy="0"
       r="101" />
    <radialGradient
       inkscape:collect="always"
       xlink:href="#linearGradient10118"
       id="radialGradient10467"
       gradientUnits="userSpaceOnUse"
       cx="0"
       cy="0"
       fx="0"
       fy="0"
       r="101"
       gradientTransform="matrix(0.95779399,0.28745553,-0.28745553,0.95779399,331.89305,440.04373)" />
    <radialGradient
       inkscape:collect="always"
       xlink:href="#linearGradient10118"
       id="radialGradient10473"
       gradientUnits="userSpaceOnUse"
       cx="0"
       cy="0"
       fx="0"
       fy="0"
       r="101" />
    <radialGradient
       inkscape:collect="always"
       xlink:href="#linearGradient10118"
       id="radialGradient10479"
       gradientUnits="userSpaceOnUse"
       cx="0"
       cy="0"
       fx="0"
       fy="0"
       r="101" />
    <radialGradient
       inkscape:collect="always"
       xlink:href="#linearGradient10118"
       id="radialGradient10485"
       gradientUnits="userSpaceOnUse"
       cx="0"
       cy="0"
       fx="0"
       fy="0"
       r="101" />
    <radialGradient
       inkscape:collect="always"
       xlink:href="#linearGradient10118"
       id="radialGradient10491"
       gradientUnits="userSpaceOnUse"
       cx="0"
       cy="0"
       fx="0"
       fy="0"
       r="101"
       gradientTransform="matrix(0.95779399,0.28745553,-0.28745553,0.95779399,331.89305,440.04373)" />
    <radialGradient
       inkscape:collect="always"
       xlink:href="#linearGradient10118"
       id="radialGradient10498"
       gradientUnits="userSpaceOnUse"
       gradientTransform="matrix(0.95779399,0.28745553,-0.28745553,0.95779399,331.89305,440.04373)"
       cx="0"
       cy="0"
       fx="0"
       fy="0"
       r="101" />
    <radialGradient
       inkscape:collect="always"
       xlink:href="#linearGradient10118"
       id="radialGradient10501"
       gradientUnits="userSpaceOnUse"
       gradientTransform="matrix(0.95779399,0.28745553,-0.28745553,0.95779399,331.89305,440.04373)"
       cx="0"
       cy="0"
       fx="0"
       fy="0"
       r="101" />
    <radialGradient
       inkscape:collect="always"
       xlink:href="#linearGradient10118"
       id="radialGradient10504"
       gradientUnits="userSpaceOnUse"
       gradientTransform="matrix(0.95779399,0.28745553,-0.28745553,0.95779399,331.89305,440.04373)"
       cx="0"
       cy="0"
       fx="0"
       fy="0"
       r="101" />
    <radialGradient
       inkscape:collect="always"
       xlink:href="#linearGradient10118"
       id="radialGradient10507"
       gradientUnits="userSpaceOnUse"
       gradientTransform="matrix(0.95779399,0.28745553,-0.28745553,0.95779399,331.89305,440.04373)"
       cx="0"
       cy="0"
       fx="0"
       fy="0"
       r="101" />
    <radialGradient
       inkscape:collect="always"
       xlink:href="#linearGradient10118"
       id="radialGradient10533"
       gradientUnits="userSpaceOnUse"
       gradientTransform="matrix(0.95779399,0.28745553,-0.28745553,0.95779399,331.89305,440.04373)"
       cx="0"
       cy="0"
       fx="0"
       fy="0"
       r="101" />
    <radialGradient
       inkscape:collect="always"
       xlink:href="#linearGradient10118"
       id="radialGradient10536"
       gradientUnits="userSpaceOnUse"
       gradientTransform="translate(-58.89228,-11.820147)"
       cx="0"
       cy="0"
       fx="0"
       fy="0"
       r="101" />
    <linearGradient
       inkscape:collect="always"
       xlink:href="#linearGradient10118"
       id="linearGradient10544"
       x1="-100.13317"
       y1="0"
       x2="100.13317"
       y2="0"
       gradientUnits="userSpaceOnUse" />
    <linearGradient
       inkscape:collect="always"
       xlink:href="#linearGradient10118"
       id="linearGradient10546"
       gradientUnits="userSpaceOnUse"
       x1="-100.13317"
       y1="0"
       x2="100.13317"
       y2="0" />
    <linearGradient
       inkscape:collect="always"
       xlink:href="#linearGradient10118"
       id="linearGradient10548"
       gradientUnits="userSpaceOnUse"
       x1="-100.13317"
       y1="0"
       x2="100.13317"
       y2="0" />
    <linearGradient
       inkscape:collect="always"
       xlink:href="#linearGradient10118"
       id="linearGradient10550"
       gradientUnits="userSpaceOnUse"
       x1="-100.13317"
       y1="0"
       x2="100.13317"
       y2="0" />
    <linearGradient
       inkscape:collect="always"
       xlink:href="#linearGradient10118"
       id="linearGradient10552"
       gradientUnits="userSpaceOnUse"
       x1="-100.13317"
       y1="0"
       x2="100.13317"
       y2="0" />
    <linearGradient
       inkscape:collect="always"
       xlink:href="#linearGradient10118"
       id="linearGradient10554"
       gradientUnits="userSpaceOnUse"
       x1="-100.13317"
       y1="0"
       x2="100.13317"
       y2="0" />
    <linearGradient
       inkscape:collect="always"
       xlink:href="#linearGradient10118"
       id="linearGradient10556"
       gradientUnits="userSpaceOnUse"
       x1="-100.13317"
       y1="0"
       x2="100.13317"
       y2="0" />
    <linearGradient
       inkscape:collect="always"
       xlink:href="#linearGradient10118"
       id="linearGradient10558"
       gradientUnits="userSpaceOnUse"
       x1="-100.13317"
       y1="0"
       x2="100.13317"
       y2="0" />
    <linearGradient
       inkscape:collect="always"
       xlink:href="#linearGradient10118"
       id="linearGradient10560"
       gradientUnits="userSpaceOnUse"
       x1="-100.13317"
       y1="0"
       x2="100.13317"
       y2="0" />
    <radialGradient
       inkscape:collect="always"
       xlink:href="#linearGradient10118"
       id="radialGradient3830"
       gradientUnits="userSpaceOnUse"
       cx="0"
       cy="0"
       fx="0"
       fy="0"
       r="101" />
    <radialGradient
       inkscape:collect="always"
       xlink:href="#linearGradient10118"
       id="radialGradient3832"
       gradientUnits="userSpaceOnUse"
       cx="0"
       cy="0"
       fx="0"
       fy="0"
       r="101" />
    <linearGradient
       inkscape:collect="always"
       xlink:href="#linearGradient10118"
       id="linearGradient3846"
       gradientUnits="userSpaceOnUse"
       x1="-100.13317"
       y1="0"
       x2="100.13317"
       y2="0" />
    <linearGradient
       inkscape:collect="always"
       xlink:href="#linearGradient10118"
       id="linearGradient3848"
       gradientUnits="userSpaceOnUse"
       x1="-100.13317"
       y1="0"
       x2="100.13317"
       y2="0" />
    <linearGradient
       inkscape:collect="always"
       xlink:href="#linearGradient10118"
       id="linearGradient3850"
       gradientUnits="userSpaceOnUse"
       x1="-100.13317"
       y1="0"
       x2="100.13317"
       y2="0" />
    <linearGradient
       inkscape:collect="always"
       xlink:href="#linearGradient10118"
       id="linearGradient3852"
       gradientUnits="userSpaceOnUse"
       x1="-100.13317"
       y1="0"
       x2="100.13317"
       y2="0" />
    <linearGradient
       inkscape:collect="always"
       xlink:href="#linearGradient10118"
       id="linearGradient3854"
       gradientUnits="userSpaceOnUse"
       x1="-100.13317"
       y1="0"
       x2="100.13317"
       y2="0" />
    <linearGradient
       inkscape:collect="always"
       xlink:href="#linearGradient10118"
       id="linearGradient3856"
       gradientUnits="userSpaceOnUse"
       x1="-100.13317"
       y1="0"
       x2="100.13317"
       y2="0" />
    <linearGradient
       inkscape:collect="always"
       xlink:href="#linearGradient10118"
       id="linearGradient3858"
       gradientUnits="userSpaceOnUse"
       x1="-100.13317"
       y1="0"
       x2="100.13317"
       y2="0" />
    <linearGradient
       inkscape:collect="always"
       xlink:href="#linearGradient10118"
       id="linearGradient3860"
       gradientUnits="userSpaceOnUse"
       x1="-100.13317"
       y1="0"
       x2="100.13317"
       y2="0" />
    <linearGradient
       inkscape:collect="always"
       xlink:href="#linearGradient10118"
       id="linearGradient3862"
       gradientUnits="userSpaceOnUse"
       x1="-100.13317"
       y1="0"
       x2="100.13317"
       y2="0" />
    <radialGradient
       inkscape:collect="always"
       xlink:href="#linearGradient10118"
       id="radialGradient3864"
       gradientUnits="userSpaceOnUse"
       gradientTransform="matrix(0.23643216,-5.9227154e-6,-5.9227154e-6,0.2364142,-125.78133,651.99302)"
       cx="0"
       cy="0"
       fx="0"
       fy="0"
       r="101" />
    <radialGradient
       inkscape:collect="always"
       xlink:href="#linearGradient10118"
       id="radialGradient3866"
       gradientUnits="userSpaceOnUse"
       cx="0"
       cy="0"
       fx="0"
       fy="0"
       r="101" />
  </defs>
  <metadata
     id="metadata8360">
    <rdf:RDF>
      <cc:Work
         rdf:about="">
        <dc:format>image/svg+xml</dc:format>
        <dc:type
           rdf:resource="http://purl.org/dc/dcmitype/StillImage" />
        <dc:title />
      </cc:Work>
    </rdf:RDF>
  </metadata>
  <g
     inkscape:label="Layer 1"
     inkscape:groupmode="layer"
     id="layer1"
     transform="translate(0,-1004.3622)">
    <g
       id="g9494"
       transform="matrix(0.95779399,0.28745553,-0.28745553,0.95779399,331.89305,440.04373)"
       inkscape:label="WireframeSphere">
      <g
         id="g10089"
         style="stroke:url(#radialGradient10124);stroke-width:2;stroke-miterlimit:4;stroke-opacity:1;stroke-dasharray:none">
        <g
           style="stroke:url(#radialGradient3830);stroke-width:2;stroke-miterlimit:4;stroke-opacity:1;stroke-dasharray:none"
           inkscape:label="Lines of Latitude"
           id="g9514" />
        <g
           id="g10186"
           style="stroke:url(#radialGradient10214)">
          <g
             id="g10237"
             style="stroke:url(#radialGradient10264)">
            <g
               id="g10266"
               style="stroke:url(#radialGradient3866)">
              <g
                 style="fill:none;stroke:url(#linearGradient3862);stroke-width:1;stroke-miterlimit:4;stroke-opacity:1;stroke-dasharray:none"
                 id="g9496"
                 inkscape:label="Lines of Longitude"
                 transform="matrix(0.23643216,-5.9227154e-6,-5.9227154e-6,0.2364142,-125.78271,651.99345)">
                <path
                   d="M 7.5489087,0 C 7.5489087,55.228475 4.1691472,100 0,100 -4.1691472,100 -7.5489087,55.228475 -7.5489087,0 c 0,-55.228475 3.3797615,-100 7.5489087,-100 4.1691472,0 7.5489087,44.771525 7.5489087,100 z"
                   id="path9498"
                   sodipodi:cx="0"
                   sodipodi:cy="0"
                   transform="matrix(0.99904459,0.04370254,-0.04370254,0.99904459,0,0)"
                   sodipodi:type="arc"
                   style="fill:none;stroke:url(#linearGradient3846);stroke-width:1;stroke-miterlimit:4;stroke-opacity:1;stroke-dasharray:none"
                   sodipodi:ry="100"
                   sodipodi:rx="7.5489087" />
                <path
                   d="M 39.989601,0 C 39.989601,55.228475 22.085647,100 0,100 -22.085647,100 -39.989601,55.228475 -39.989601,0 c 0,-55.228475 17.903954,-100 39.989601,-100 22.085647,0 39.989601,44.771525 39.989601,100 z"
                   id="path9500"
                   sodipodi:cx="0"
                   sodipodi:cy="0"
                   transform="matrix(0.96775565,0.25189085,-0.25189085,0.96775565,0,0)"
                   sodipodi:type="arc"
                   style="fill:none;stroke:url(#linearGradient3848);stroke-width:1;stroke-miterlimit:4;stroke-opacity:1;stroke-dasharray:none"
                   sodipodi:ry="100"
                   sodipodi:rx="39.989601" />
                <path
                   d="M 66.342392,0 C 66.342392,55.228475 36.639891,100 0,100 -36.639891,100 -66.342392,55.228475 -66.342392,0 c 0,-55.228475 29.702501,-100 66.342392,-100 36.639891,0 66.342392,44.771525 66.342392,100 z"
                   id="path9502"
                   sodipodi:cx="0"
                   sodipodi:cy="0"
                   transform="matrix(0.85905164,0.51188894,-0.51188894,0.85905164,0,0)"
                   sodipodi:type="arc"
                   style="fill:none;stroke:url(#linearGradient3850);stroke-width:1;stroke-miterlimit:4;stroke-opacity:1;stroke-dasharray:none"
                   sodipodi:ry="100"
                   sodipodi:rx="66.342392" />
                <path
                   d="M 82.595314,0 C 82.595314,55.228475 45.616132,100 0,100 -45.616132,100 -82.595314,55.228475 -82.595314,0 c 0,-55.228475 36.979182,-100 82.595314,-100 45.616132,0 82.595314,44.771525 82.595314,100 z"
                   id="path9504"
                   sodipodi:cx="0"
                   sodipodi:cy="0"
                   transform="matrix(0.53339946,0.84586347,-0.84586347,0.53339946,0,0)"
                   sodipodi:type="arc"
                   style="fill:none;stroke:url(#linearGradient3852);stroke-width:1;stroke-miterlimit:4;stroke-opacity:1;stroke-dasharray:none"
                   sodipodi:ry="100"
                   sodipodi:rx="82.595314" />
                <path
                   d="M 86.273994,0 C 86.273994,55.228475 47.647811,100 0,100 -47.647811,100 -86.273994,55.228475 -86.273994,0 c 0,-55.228475 38.626183,-100 86.273994,-100 47.647811,0 86.273994,44.771525 86.273994,100 z"
                   id="path9506"
                   sodipodi:cx="0"
                   sodipodi:cy="0"
                   transform="matrix(0.17235866,-0.98503426,0.98503426,0.17235866,0,0)"
                   sodipodi:type="arc"
                   style="fill:none;stroke:url(#linearGradient3854);stroke-width:1;stroke-miterlimit:4;stroke-opacity:1;stroke-dasharray:none"
                   sodipodi:ry="100"
                   sodipodi:rx="86.273994" />
                <path
                   d="M 76.81839,0 C 76.81839,55.228475 42.425625,100 0,100 -42.425625,100 -76.81839,55.228475 -76.81839,0 c 0,-55.228475 34.392765,-100 76.81839,-100 42.425625,0 76.81839,44.771525 76.81839,100 z"
                   id="path9508"
                   sodipodi:cx="0"
                   sodipodi:cy="0"
                   transform="matrix(0.72121036,-0.69271611,0.69271611,0.72121036,0,0)"
                   sodipodi:type="arc"
                   style="fill:none;stroke:url(#linearGradient3856);stroke-width:1;stroke-miterlimit:4;stroke-opacity:1;stroke-dasharray:none"
                   sodipodi:ry="100"
                   sodipodi:rx="76.81839" />
                <path
                   d="M 55.668041,0 C 55.668041,55.228475 30.74461,100 0,100 -30.74461,100 -55.668041,55.228475 -55.668041,0 c 0,-55.228475 24.923431,-100 55.668041,-100 30.74461,0 55.668041,44.771525 55.668041,100 z"
                   id="path9510"
                   sodipodi:cx="0"
                   sodipodi:cy="0"
                   transform="matrix(0.92213025,-0.38687958,0.38687958,0.92213025,0,0)"
                   sodipodi:type="arc"
                   style="fill:none;stroke:url(#linearGradient3858);stroke-width:1;stroke-miterlimit:4;stroke-opacity:1;stroke-dasharray:none"
                   sodipodi:ry="100"
                   sodipodi:rx="55.668041" />
                <path
                   d="M 26.042887,0 C 26.042887,55.228475 14.383089,100 0,100 -14.383089,100 -26.042887,55.228475 -26.042887,0 c 0,-55.228475 11.659798,-100 26.042887,-100 14.383089,0 26.042887,44.771525 26.042887,100 z"
                   id="path9512"
                   sodipodi:cx="0"
                   sodipodi:cy="0"
                   transform="matrix(0.98780027,-0.15572611,0.15572611,0.98780027,0,0)"
                   sodipodi:type="arc"
                   style="fill:none;stroke:url(#linearGradient3860);stroke-width:1;stroke-miterlimit:4;stroke-opacity:1;stroke-dasharray:none"
                   sodipodi:ry="100"
                   sodipodi:rx="26.042887" />
              </g>
              <path
                 style="font-size:medium;font-style:normal;font-variant:normal;font-weight:normal;font-stretch:normal;text-indent:0;text-align:start;text-decoration:none;line-height:normal;letter-spacing:normal;word-spacing:normal;text-transform:none;direction:ltr;block-progression:tb;writing-mode:lr-tb;text-anchor:start;baseline-shift:baseline;color:#000000;fill:url(#radialGradient3864);fill-opacity:1;stroke:#f7fcff;stroke-width:0.23642318;stroke-miterlimit:4;stroke-opacity:1;stroke-dasharray:none;marker:none;visibility:visible;display:inline;overflow:visible;enable-background:accumulate;font-family:Sans;-inkscape-font-specification:Sans"
                 d="m -132.88356,629.19163 c -1.85411,0.57686 -3.61034,1.37316 -5.23953,2.35928 -0.0222,0.0133 -0.0424,0.0291 -0.0644,0.0425 -0.0281,0.0171 -0.0576,0.0316 -0.0856,0.0488 -0.11571,0.0714 -0.23212,0.14523 -0.34321,0.21871 -1.34384,0.85887 -2.59105,1.85358 -3.73352,2.95631 -0.038,0.0366 -0.0755,0.0742 -0.11322,0.11112 -0.13291,0.12053 -0.2598,0.2456 -0.38283,0.36944 -0.18285,0.18405 -0.35923,0.36597 -0.5194,0.55698 -0.0183,0.0219 -0.04,0.0417 -0.058,0.0637 -1.00432,1.10216 -1.91388,2.29569 -2.70024,3.57182 -0.11582,0.17954 -0.22499,0.36037 -0.32265,0.54421 -0.0149,0.0257 -0.0319,0.0499 -0.0467,0.0757 -0.74098,1.2883 -1.36145,2.64963 -1.8552,4.07412 -0.0317,0.0914 -0.0642,0.18339 -0.0948,0.27528 -0.0215,0.0654 -0.0451,0.13091 -0.0644,0.19673 -0.74716,2.31072 -1.15425,4.77544 -1.15431,7.33481 -7e-5,2.58276 0.41259,5.07 1.17187,7.40031 0.002,0.005 0.003,0.009 0.004,0.0142 0.0312,0.10179 0.062,0.20133 0.0984,0.30215 0.5294,1.55019 1.21478,3.02961 2.0357,4.4182 0.0765,0.12936 0.15262,0.25785 0.23145,0.38563 0.0185,0.0284 0.037,0.0552 0.0559,0.0835 0.86731,1.39277 1.87255,2.69341 2.99882,3.87461 0.11731,0.12584 0.23991,0.2531 0.36732,0.3757 0.0102,0.0102 0.0216,0.0188 0.0318,0.029 0.0431,0.0411 0.0853,0.0824 0.12952,0.12311 1.12107,1.10442 2.35299,2.09493 3.67388,2.96238 0.013,0.009 0.0259,0.0179 0.0389,0.0269 0.34716,0.23982 0.7162,0.47483 1.11042,0.69262 0.0367,0.0203 0.0734,0.0394 0.11041,0.0594 1.96647,1.12365 4.10845,1.96955 6.37368,2.4992 0.0364,0.009 0.0725,0.0206 0.10898,0.029 0.14789,0.035 0.29495,0.0655 0.44586,0.0976 0.044,0.009 0.0882,0.0208 0.13234,0.0297 0.14537,0.03 0.29362,0.0562 0.4416,0.0834 0.14293,0.0262 0.28648,0.0478 0.43028,0.0714 0.0791,0.013 0.15736,0.0324 0.23709,0.0446 0.0885,0.0136 0.17656,0.0234 0.26538,0.036 0.1176,0.0166 0.23491,0.0332 0.35385,0.0481 0.0877,0.0112 0.17524,0.0188 0.26326,0.029 0.0855,0.01 0.17003,0.0223 0.25619,0.0311 0.032,0.003 0.0635,0.007 0.0955,0.01 0.16793,0.0165 0.33577,0.0279 0.506,0.041 0.0318,0.003 0.0637,0.007 0.0955,0.01 0.38955,0.0294 0.77954,0.046 1.17406,0.0565 0.21364,0.006 0.42971,0.0148 0.64471,0.0148 0.40808,-1e-5 0.8135,-0.0132 1.21652,-0.0334 0.0224,-10e-4 0.0455,-0.004 0.0679,-0.005 0.21094,-0.0112 0.41827,-0.0252 0.62772,-0.0418 0.18266,-0.0145 0.36697,-0.0303 0.54845,-0.0489 0.0501,-0.005 0.10017,-0.009 0.15003,-0.0142 0.31449,-0.0343 0.62558,-0.0726 0.93626,-0.11901 0.0173,-0.003 0.0344,-0.005 0.0517,-0.008 0.19284,-0.029 0.38434,-0.0615 0.57323,-0.0949 0.0483,-0.009 0.0977,-0.0195 0.14578,-0.0283 0.19074,-0.0349 0.37984,-0.0697 0.56897,-0.10905 2.58195,-0.53785 5.01376,-1.49156 7.21608,-2.7905 0.22531,-0.12866 0.44083,-0.2673 0.65033,-0.40344 0.0264,-0.0167 0.0501,-0.037 0.0764,-0.0538 0.0689,-0.0455 0.14025,-0.0853 0.20735,-0.13165 1.33517,-0.8734 2.58355,-1.8739 3.71582,-2.98957 0.0434,-0.04 0.0829,-0.0821 0.12525,-0.12244 0.10067,-0.10066 0.2047,-0.19694 0.30357,-0.29937 0.0344,-0.0358 0.0655,-0.0708 0.0991,-0.10687 1.25182,-1.31286 2.35798,-2.77014 3.28684,-4.3418 0.81293,-1.37549 1.48568,-2.84081 2.01158,-4.37559 0.008,-0.0246 0.0242,-0.0468 0.0326,-0.0715 0.009,-0.0254 0.0146,-0.0509 0.0233,-0.0764 0.01,-0.0286 0.0188,-0.057 0.0283,-0.0856 0.0139,-0.0426 0.0259,-0.0846 0.0389,-0.12737 0.49519,-1.52475 0.84407,-3.11686 1.02503,-4.75829 0.0958,-0.86887 0.14765,-1.74965 0.14767,-2.64376 2e-5,-0.74347 -0.0398,-1.47915 -0.10634,-2.20498 -0.003,-0.0651 -0.007,-0.13191 -0.0128,-0.19672 -0.004,-0.0401 -0.009,-0.0795 -0.0127,-0.11959 -0.0105,-0.10404 -0.0219,-0.20175 -0.0375,-0.30498 -0.1833,-1.55003 -0.51376,-3.05164 -0.97913,-4.49619 -0.005,-0.0164 -0.01,-0.0331 -0.0149,-0.0495 -0.0175,-0.0582 -0.041,-0.11692 -0.0602,-0.17477 -0.0288,-0.0864 -0.0559,-0.17378 -0.0857,-0.25969 -0.004,-0.0118 -0.0132,-0.0215 -0.0177,-0.0333 -0.48929,-1.4067 -1.10268,-2.75749 -1.83469,-4.03116 -10e-4,-0.002 -9.4e-4,-0.005 -0.002,-0.007 -0.008,-0.0135 -0.0192,-0.0248 -0.0269,-0.0382 -0.0817,-0.15636 -0.16701,-0.30807 -0.26189,-0.46134 -0.001,-0.002 -9.4e-4,-0.005 -0.002,-0.007 -0.0105,-0.017 -0.0204,-0.0354 -0.0311,-0.0524 -0.96948,-1.58505 -2.12068,-3.04416 -3.42136,-4.35715 -1.24147,-1.25323 -2.62147,-2.36894 -4.11409,-3.32391 -0.15573,-0.0996 -0.30964,-0.20317 -0.46781,-0.29927 -3.61149,-2.19414 -7.85145,-3.45663 -12.38488,-3.45652 -2.4723,7e-5 -4.86277,0.37802 -7.10583,1.07588 z m -1.08692,1.08213 c 0.5686,-0.1725 1.16051,-0.32675 1.77414,-0.46304 -0.54405,0.2967 -1.01106,0.63771 -1.38627,1.00999 -1.93701,0.43661 -3.70267,1.03373 -5.23534,1.75637 0.13816,-0.10161 0.27983,-0.19982 0.42742,-0.29797 0.10196,-0.0678 0.21063,-0.137 0.31702,-0.20314 0.0173,-0.0107 0.035,-0.0205 0.0524,-0.0311 0.0622,-0.0383 0.12665,-0.0734 0.19036,-0.11113 0.28506,-0.16869 0.57962,-0.33486 0.89377,-0.49193 0.88733,-0.44367 1.88339,-0.83941 2.96653,-1.16801 z m 3.57236,-0.71733 c 0.15904,-0.0526 0.32222,-0.0996 0.4883,-0.14654 1.31594,-0.17749 2.69987,-0.2751 4.12935,-0.27514 1.42891,-3e-5 2.80897,0.0967 4.12444,0.274 0.66539,0.18784 1.278,0.41753 1.80962,0.68333 0.32334,0.16166 0.61243,0.34117 0.87475,0.52424 -1.15742,-0.22202 -2.36814,-0.38769 -3.61988,-0.49485 -0.003,-2.4e-4 -0.006,-0.005 -0.009,-0.005 -0.82921,-0.4146 -1.95091,-0.65699 -3.18254,-0.65696 -0.92373,2e-5 -1.77945,0.1371 -2.50095,0.38035 -0.2405,0.0811 -0.46497,0.17524 -0.67228,0.2789 -0.002,2e-4 -0.005,0.002 -0.007,0.002 -1.25581,0.10711 -2.47028,0.27292 -3.63112,0.49584 0.26313,-0.1839 0.55356,-0.35579 0.8782,-0.51811 0.39817,-0.19909 0.84127,-0.38433 1.31838,-0.54223 z m -5.09163,2.2609 c 0.45657,-0.13884 0.92109,-0.27067 1.40261,-0.3901 -0.30241,0.45595 -0.46764,0.95132 -0.46766,1.47478 0,0.0282 0.001,0.0561 0.002,0.0842 -2.3582,0.53304 -4.48865,1.27772 -6.3025,2.18464 -0.10467,0.0523 -0.20389,0.10791 -0.30642,0.16138 0.20875,-0.5026 0.51962,-0.98939 0.92058,-1.45644 0.38591,-0.23465 0.79299,-0.46034 1.22424,-0.67596 1.05357,-0.52678 2.24216,-0.99179 3.52701,-1.3825 z m 2.14425,-0.56641 c 1.13449,-0.25102 2.33124,-0.45105 3.57308,-0.58641 -0.36796,0.34173 -0.58798,0.74956 -0.58799,1.20235 0,0.14399 0.0219,0.28671 0.0644,0.42033 -1.31276,0.1417 -2.57938,0.34886 -3.79105,0.60555 0.002,-0.57281 0.26173,-1.13047 0.74152,-1.64182 z m 4.55039,-0.67146 c 0.98348,-0.0801 1.98868,-0.12635 3.01687,-0.12638 1.02834,-3e-5 2.03464,0.0467 3.01619,0.12838 0.70298,0.36682 1.08785,0.82699 1.08783,1.28562 0,0.12424 -0.0268,0.24844 -0.0814,0.37153 -1.30516,-0.12493 -2.64643,-0.19621 -4.02394,-0.19617 -1.37741,3e-5 -2.72592,0.0666 -4.03099,0.19161 -0.053,-0.12131 -0.0779,-0.23989 -0.0779,-0.3623 1e-5,-0.46019 0.38566,-0.92482 1.09327,-1.29229 z m 1.94822,-0.577 c 0.33936,-0.0457 0.69737,-0.073 1.06578,-0.073 0.36247,-10e-6 0.71315,0.0278 1.04739,0.0713 -0.34599,-0.01 -0.69591,-0.0176 -1.04668,-0.0175 -0.35965,10e-6 -0.71187,0.009 -1.06649,0.0193 z m -14.4846,4.60942 c -0.18896,0.33994 -0.33752,0.69231 -0.4408,1.05019 -0.60415,0.34305 -1.16194,0.70799 -1.67855,1.08999 0.1646,-0.24151 0.34595,-0.47981 0.54982,-0.71266 0.0978,-0.11167 0.20271,-0.22242 0.30923,-0.33193 0.085,-0.0877 0.17617,-0.16986 0.26253,-0.2562 0.30367,-0.28879 0.63472,-0.56827 0.99777,-0.83939 z m 4.6431,-0.56816 c 0.70648,-0.21502 1.44384,-0.404 2.20299,-0.57632 0.16855,0.71893 0.65098,1.37123 1.36531,1.92741 -3.08298,0.52198 -5.87861,1.35756 -8.22244,2.4446 -0.0838,-0.32132 -0.13173,-0.64889 -0.13172,-0.97864 1e-5,-0.2945 0.041,-0.58582 0.1082,-0.87324 0.2365,-0.13075 0.47482,-0.26227 0.72464,-0.38718 1.18346,-0.59172 2.51013,-1.1175 3.95302,-1.55663 z m 2.65732,-0.68182 c 1.2651,-0.26912 2.59304,-0.47796 3.97151,-0.62115 0.24816,0.34344 0.63322,0.63765 1.10265,0.87237 0.82921,0.4146 1.94596,0.66619 3.17759,0.66616 1.23163,-4e-5 2.34896,-0.25381 3.17818,-0.66845 0.46832,-0.23417 0.84859,-0.52674 1.09685,-0.86913 1.37881,0.14299 2.70906,0.35054 3.97373,0.62005 -0.16817,0.69797 -0.71738,1.35934 -1.57515,1.92287 -2.11205,-0.32124 -4.35449,-0.4959 -6.67498,-0.49585 -2.32378,6e-5 -4.56443,0.1705 -6.67914,0.49273 -0.85169,-0.56356 -1.40212,-1.22364 -1.57124,-1.9196 z m -7.86997,2.92503 c -0.0259,0.19007 -0.0431,0.38176 -0.0431,0.57603 0,0.40365 0.0618,0.7976 0.16995,1.18314 -0.0647,0.0316 -0.13061,0.065 -0.1946,0.097 -0.8903,0.44514 -1.70474,0.92683 -2.44424,1.44321 0.009,-0.59791 0.13982,-1.18596 0.37563,-1.7557 0.61843,-0.5438 1.33233,-1.06334 2.13638,-1.54365 z m 12.42744,-3.59862 c 1.19938,-0.10686 2.43045,-0.16677 3.6913,-0.1668 1.26169,-4e-5 2.49757,0.056 3.6977,0.16295 -0.18606,0.1813 -0.42941,0.35313 -0.73525,0.50606 -0.74317,0.37161 -1.79602,0.61178 -2.96376,0.61181 -1.16773,3e-5 -2.21646,-0.23659 -2.95961,-0.60816 -0.30293,-0.15146 -0.54493,-0.32649 -0.73038,-0.50586 z m 10.13317,-2.86379 c 1.77145,0.39542 3.37367,0.94192 4.71973,1.61489 0.28709,0.14353 0.55847,0.2939 0.82096,0.44782 0.0549,0.0322 0.11394,0.0636 0.16773,0.0962 0.0507,0.0308 0.10103,0.0622 0.15145,0.0934 0.10177,0.0637 0.20022,0.13085 0.29796,0.19598 0.14648,0.0976 0.29079,0.19502 0.42817,0.29573 -1.5293,-0.71962 -3.29187,-1.31403 -5.2229,-1.74927 -0.36903,-0.36596 -0.83052,-0.70175 -1.3631,-0.99475 z m -2.44712,0.84243 c 1.24207,0.13773 2.43549,0.34211 3.57247,0.59392 0.47436,0.5076 0.73179,1.06215 0.73614,1.6303 -1.21242,-0.25699 -2.4787,-0.46355 -3.79185,-0.60522 0.0424,-0.13347 0.0686,-0.27018 0.0686,-0.41398 2e-5,-0.45172 -0.22053,-0.86163 -0.58536,-1.20502 z m -22.96458,7.84094 c -0.0869,0.37626 -0.13293,0.7609 -0.13294,1.15063 0,0.0878 0.004,0.17258 0.009,0.25971 -0.59669,0.44914 -1.13307,0.92215 -1.60421,1.41478 0.10446,-0.34242 0.24277,-0.68031 0.41391,-1.01127 0.0359,-0.0694 0.0773,-0.13567 0.11605,-0.20452 0.0782,-0.13259 0.15558,-0.264 0.23633,-0.39489 0.27058,-0.41529 0.59073,-0.82224 0.96235,-1.21444 z m 7.2459,-1.61158 c 1.53402,-0.46555 3.19233,-0.84588 4.94029,-1.12016 0.20062,0.12472 0.4153,0.24397 0.63908,0.35586 1.58861,0.79425 3.75595,1.27933 6.1464,1.27927 2.39046,-6e-5 4.56036,-0.48804 6.14901,-1.28238 0.22285,-0.11142 0.43494,-0.22848 0.63477,-0.35249 3.26557,0.512 6.20263,1.38777 8.63333,2.52295 -0.28296,0.72793 -0.77474,1.42952 -1.45129,2.07853 -3.92359,-1.43723 -8.7471,-2.27963 -13.96788,-2.2795 -5.21669,1.3e-4 -10.03649,0.84247 -13.95829,2.27626 -0.67894,-0.65082 -1.17354,-1.347 -1.45661,-2.07742 1.1278,-0.5265 2.36188,-0.99749 3.69119,-1.40092 z m -4.11578,1.60549 c 0.28725,0.72795 0.76406,1.41182 1.39432,2.04983 -0.80979,0.31227 -1.57917,0.65329 -2.30273,1.01507 -0.39963,0.19981 -0.78374,0.40972 -1.1549,0.62429 -0.38629,-0.65615 -0.62854,-1.3392 -0.70503,-2.04073 0.77944,-0.56715 1.65649,-1.09642 2.63317,-1.58476 0.0438,-0.0219 0.0909,-0.042 0.13517,-0.0637 z m 9.81683,-2.83827 c 1.91787,-0.2642 3.93943,-0.40483 6.02666,-0.40489 2.08214,-5e-5 4.09535,0.14744 6.00903,0.41032 -0.0269,0.0138 -0.0533,0.026 -0.0807,0.0396 -1.5026,0.75131 -3.60802,1.22568 -5.93459,1.22574 -2.32656,6e-5 -4.42587,-0.47004 -5.92843,-1.22127 -0.0318,-0.0159 -0.0607,-0.0334 -0.092,-0.0495 z m 14.33744,-4.22585 c 1.8317,0.45509 3.49385,1.05115 4.9186,1.76346 0.43998,0.21997 0.85568,0.45002 1.24843,0.68978 0.004,0.004 0.008,0.008 0.0113,0.012 0.38786,0.4576 0.68842,0.9371 0.89182,1.4293 -0.10378,-0.0542 -0.20468,-0.10829 -0.31069,-0.1613 -1.8123,-0.90606 -3.94478,-1.64813 -6.30147,-2.18148 9.5e-4,-0.0282 0.005,-0.058 0.005,-0.0863 2e-5,-0.51983 -0.16453,-1.01214 -0.46295,-1.46546 z m -27.35074,9.03391 c 0.10974,0.6779 0.35942,1.3318 0.72626,1.95722 -0.91349,0.55723 -1.73041,1.15896 -2.43854,1.79632 -0.11979,-0.44491 -0.18342,-0.89809 -0.18341,-1.35651 0,-0.19731 0.0162,-0.39483 0.0389,-0.59018 0.51069,-0.63074 1.12957,-1.2363 1.85682,-1.80685 z m 27.75005,-7.00942 c 2.30715,0.52479 4.3865,1.25383 6.1486,2.1348 0.24972,0.12485 0.49543,0.25134 0.73179,0.38203 0.0675,0.28882 0.10199,0.58397 0.10198,0.87958 -1e-5,0.33296 -0.0427,0.66283 -0.128,0.98717 -2.3462,-1.08941 -5.13844,-1.92966 -8.22641,-2.45225 0.71567,-0.55609 1.20394,-1.21159 1.37204,-1.93133 z m -30.1114,9.49992 c 0.009,0.55452 0.0921,1.09894 0.25704,1.62753 -0.52572,0.51445 -0.97657,1.05237 -1.35297,1.60935 0.0397,-1.12195 0.41747,-2.20844 1.09593,-3.23688 z m 9.25636,-2.70091 c 3.53483,-1.07286 7.69561,-1.69281 12.14311,-1.69292 5.06075,-1.3e-4 9.74377,0.80299 13.56237,2.16209 -0.66603,0.56393 -1.4714,1.08841 -2.40318,1.5543 -0.45195,0.22597 -0.93253,0.43456 -1.43797,0.63212 -2.96929,-0.67246 -6.25955,-1.04606 -9.72518,-1.04597 -3.4612,9e-5 -6.74791,0.37679 -9.71366,1.04864 -0.50527,-0.19737 -0.98781,-0.4066 -1.4395,-0.63243 -0.93406,-0.46699 -1.7429,-0.98685 -2.40982,-1.55222 0.46284,-0.16501 0.93639,-0.32566 1.42383,-0.47361 z m -1.92486,0.65483 c 0.73875,0.66233 1.64802,1.26542 2.69716,1.78995 0.27958,0.13977 0.57023,0.2734 0.86908,0.40253 -0.60636,0.15099 -1.19884,0.31094 -1.77484,0.48639 -1.12902,0.34388 -2.19536,0.73576 -3.19088,1.16591 -0.91509,-0.67115 -1.6546,-1.40242 -2.18766,-2.17426 0.35532,-0.2045 0.7254,-0.40318 1.10961,-0.59528 0.77283,-0.38641 1.601,-0.74484 2.47753,-1.07524 z m -3.99191,1.91541 c 0.5243,0.76735 1.23288,1.48783 2.09495,2.1481 -0.26638,0.12172 -0.52716,0.24599 -0.78268,0.37374 -0.92875,0.46437 -1.77666,0.97356 -2.54684,1.51257 -0.58442,-0.68362 -1.02507,-1.40385 -1.30022,-2.1475 0.71829,-0.67004 1.5704,-1.3002 2.53479,-1.88691 z m -2.90559,2.24503 c 0.29214,0.72113 0.72753,1.41143 1.28394,2.06753 -0.82801,0.61566 -1.55471,1.26991 -2.14909,1.96399 -0.34209,-0.6697 -0.55514,-1.36113 -0.63639,-2.06904 0.38024,-0.68048 0.88544,-1.33542 1.50154,-1.96248 z m 36.52653,-10.46106 c 0.35694,0.26705 0.6901,0.54487 0.98942,0.82921 0.004,0.004 0.007,0.008 0.0113,0.012 0.0297,0.0298 0.0589,0.0592 0.0885,0.0892 0.0685,0.067 0.13441,0.13448 0.19959,0.20236 0.0794,0.0824 0.15955,0.16904 0.2378,0.2526 0.0123,0.0139 0.024,0.0293 0.0361,0.0432 0.20304,0.23242 0.3803,0.46722 0.54427,0.70828 -0.51394,-0.38005 -1.06842,-0.74647 -1.66883,-1.08812 -0.10192,-0.35838 -0.25067,-0.70972 -0.43815,-1.04866 z m -27.70384,9.42528 c 0.76426,-0.23244 1.56056,-0.44136 2.37991,-0.62942 2.71475,1.0403 6.09432,1.6525 9.76061,1.65241 3.65963,-9e-5 7.03495,-0.61637 9.74829,-1.65297 1.90902,0.43845 3.68043,1.002 5.26748,1.66647 -0.54151,0.36411 -1.1347,0.713 -1.77975,1.03552 -0.84675,0.42337 -1.77466,0.80432 -2.77404,1.14109 -3.13903,-0.81045 -6.69449,-1.26462 -10.4619,-1.26452 -3.76178,9e-5 -7.30695,0.45905 -10.44257,1.26739 -1.00364,-0.33781 -1.93924,-0.72038 -2.78911,-1.14528 -0.6498,-0.32487 -1.24876,-0.67598 -1.79408,-1.04281 0.90388,-0.37897 1.87066,-0.71934 2.88516,-1.02788 z m 3.24115,-0.81847 c 2.74333,-0.56351 5.74981,-0.87437 8.90196,-0.87445 3.14829,-8e-5 6.14914,0.31667 8.88867,0.88049 -2.52449,0.86006 -5.58699,1.36334 -8.88635,1.36342 -3.30571,9e-5 -6.37612,-0.50702 -8.90428,-1.36946 z m -6.63795,2.06933 c 0.62986,0.44347 1.32967,0.85763 2.09204,1.23878 0.68293,0.34144 1.41728,0.65112 2.19463,0.93803 -1.81004,0.51352 -3.47024,1.14978 -4.93527,1.88228 -0.0158,0.008 -0.0317,0.014 -0.0474,0.0219 -1.08698,-0.66185 -2.01493,-1.38593 -2.74673,-2.16074 0.73283,-0.51066 1.54522,-0.99512 2.43716,-1.44108 0.32523,-0.16262 0.66135,-0.32617 1.00559,-0.47921 z m -7.27414,2.46853 c 0.13919,0.59639 0.36215,1.17987 0.66963,1.74282 -0.43089,0.5568 -0.78011,1.13734 -1.04582,1.73314 -0.0738,-0.3719 -0.11546,-0.74992 -0.11545,-1.13008 1e-5,-0.19516 0.0121,-0.3949 0.0318,-0.58805 0.0608,-0.59723 0.2189,-1.18478 0.45984,-1.75783 z m 38.94816,-11.46553 c 0.79523,0.4765 1.5056,0.99279 2.11825,1.53174 0.002,0.002 0.007,0.003 0.009,0.005 0.2339,0.56701 0.36019,1.15333 0.37027,1.74781 -0.73846,-0.51531 -1.5572,-0.9968 -2.4459,-1.44111 -0.0615,-0.0308 -0.12678,-0.0595 -0.18897,-0.0899 0.10837,-0.38568 0.16903,-0.78082 0.16904,-1.18461 0,-0.19086 -0.007,-0.3815 -0.0319,-0.56893 z m -35.51093,11.19757 c 0.71865,0.77073 1.61244,1.4906 2.64907,2.14377 -1.15541,0.61819 -2.18246,1.30242 -3.05138,2.04196 -0.74396,-0.67589 -1.35003,-1.39003 -1.79843,-2.13682 0.595,-0.72071 1.3338,-1.40546 2.20074,-2.04891 z m 35.21743,-8.98829 c 0.0433,0.0213 0.0908,0.0386 0.13376,0.0601 0.97388,0.4869 1.84858,1.0145 2.62637,1.57979 -0.076,0.70338 -0.31861,1.38852 -0.70468,2.0473 -0.37037,-0.21282 -0.75197,-0.42001 -1.15005,-0.61903 -0.72011,-0.36003 -1.48741,-0.6975 -2.293,-1.00878 0.63006,-0.63775 1.10015,-1.33112 1.3876,-2.05941 z m -37.73872,11.43423 c 0.45467,0.72074 1.04307,1.4096 1.75172,2.05827 -0.70462,0.64613 -1.29123,1.33279 -1.74499,2.05097 -0.48748,-0.65981 -0.8547,-1.3422 -1.09285,-2.04775 0.23694,-0.70943 0.59645,-1.39852 1.08612,-2.06149 z m 40.866,-11.42404 c 0.40412,0.42769 0.7537,0.8688 1.03759,1.32384 0.004,0.007 0.009,0.0125 0.0135,0.0191 0.29518,0.47659 0.52644,0.9688 0.68021,1.46967 -0.46984,-0.49096 -1.00804,-0.96093 -1.60304,-1.40868 -0.002,-10e-4 -4.7e-4,-0.006 -0.002,-0.007 0.004,-0.0848 0.008,-0.17148 0.008,-0.25687 1e-5,-0.3878 -0.0478,-0.76604 -0.13386,-1.13999 z m -30.69381,9.58986 c 0.40838,-0.1242 0.83388,-0.24326 1.25894,-0.3547 3.00692,0.99766 6.60097,1.58023 10.46405,1.58013 3.86608,-10e-5 7.46164,-0.58676 10.47085,-1.58442 1.94518,0.50974 3.71912,1.16337 5.27388,1.91909 -0.28617,0.16223 -0.57724,0.32022 -0.88387,0.47353 -1.2388,0.61939 -2.63831,1.16105 -4.16037,1.61116 -3.15131,-0.91797 -6.8034,-1.44716 -10.70182,-1.44707 -3.90199,1e-4 -7.55379,0.52748 -10.7051,1.44647 -1.51688,-0.44935 -2.91125,-0.99138 -4.14721,-1.6093 -0.3086,-0.15429 -0.60209,-0.31011 -0.89031,-0.47329 1.215,-0.59077 2.56041,-1.11741 4.02096,-1.5616 z m 2.14212,-0.57348 c 2.90828,-0.68306 6.15401,-1.07118 9.58345,-1.07126 3.43373,-9e-5 6.68253,0.38552 9.59355,1.07004 -2.80096,0.83637 -6.08332,1.32097 -9.59334,1.32106 -3.50691,9e-5 -6.78418,-0.48439 -9.58366,-1.31984 z m -6.67331,2.38848 c 0.37709,0.22157 0.76959,0.43589 1.17978,0.64096 1.08223,0.54107 2.28065,1.02045 3.57042,1.43531 -1.28583,0.4148 -2.48612,0.89285 -3.56592,1.43274 -0.41134,0.20567 -0.80292,0.41736 -1.18108,0.63987 -1.21464,-0.62913 -2.27889,-1.32425 -3.16781,-2.07294 0.88882,-0.7496 1.95045,-1.44665 3.16461,-2.07594 z m 30.33012,-9.00247 c 0.8731,0.3288 1.69621,0.68738 2.46639,1.07244 0.38512,0.19254 0.75471,0.38657 1.11113,0.59214 -0.53159,0.77583 -1.26719,1.50885 -2.18374,2.18265 -1.50398,-0.65047 -3.16348,-1.21267 -4.95681,-1.65944 0.29527,-0.12775 0.58415,-0.25892 0.86051,-0.3971 1.0516,-0.52579 1.96325,-1.12707 2.70252,-1.79069 z m -37.26524,11.8552 c 0.26268,0.58874 0.61198,1.15986 1.03763,1.70951 -0.3081,0.56436 -0.52563,1.15076 -0.66295,1.74937 -0.21882,-0.51897 -0.36668,-1.04918 -0.4382,-1.58858 -0.0124,-0.11003 -0.0189,-0.21998 -0.0298,-0.33047 -0.003,-0.0299 -0.009,-0.0592 -0.0113,-0.0892 -0.006,-0.11113 -0.009,-0.22506 -0.009,-0.33683 1e-5,-0.37513 0.0414,-0.74634 0.11314,-1.11384 z m 42.2247,-12.29462 c 0.72501,0.56874 1.34737,1.16762 1.85784,1.79502 0.0233,0.19801 0.0404,0.39706 0.0404,0.59724 -10e-6,0.45641 -0.0625,0.90725 -0.18105,1.3502 -0.70757,-0.63659 -1.52826,-1.23531 -2.4424,-1.78928 0.36653,-0.62406 0.61406,-1.27735 0.72522,-1.95318 z m -38.82145,11.83631 c 0.87381,0.74369 1.90648,1.42838 3.06801,2.0489 -1.03739,0.65464 -1.93134,1.3671 -2.65223,2.13813 -0.87112,-0.64328 -1.60997,-1.33166 -2.20534,-2.05325 0.44769,-0.7456 1.04749,-1.45827 1.78956,-2.13378 z m 37.84574,-9.48399 c 0.96445,0.58813 1.81747,1.2232 2.53512,1.89258 -0.27449,0.74065 -0.71261,1.45803 -1.29418,2.13936 -0.77043,-0.53957 -1.62178,-1.045 -2.55136,-1.50974 -0.25508,-0.12753 -0.51725,-0.25259 -0.78344,-0.37423 0.86154,-0.66194 1.56973,-1.37956 2.09386,-2.14797 z m -39.88225,12.05441 c 0.59666,0.6936 1.3199,1.35432 2.14943,1.96977 -0.55642,0.65408 -0.99489,1.34082 -1.28711,2.0601 -0.62019,-0.6305 -1.1224,-1.29413 -1.50402,-1.97834 0.0839,-0.70199 0.30194,-1.38655 0.6417,-2.05153 z m 10.91731,-2.59003 c 0.063,-0.0191 0.12762,-0.0385 0.19107,-0.0574 3.15487,0.92081 6.8132,1.44999 10.7181,1.44989 3.90484,-10e-5 7.56025,-0.5279 10.71219,-1.44859 1.5182,0.45007 2.91125,0.99138 4.1472,1.6093 0.30738,0.15368 0.6032,0.31081 0.89032,0.47329 -1.55277,0.75564 -3.33043,1.40294 -5.27284,1.91418 -3.00943,-0.99877 -6.60852,-1.57598 -10.4782,-1.57589 -3.86608,10e-5 -7.46163,0.58676 -10.47085,1.58443 -1.94695,-0.51081 -3.72489,-1.16013 -5.28095,-1.91697 0.28753,-0.16269 0.58318,-0.32178 0.89094,-0.47566 1.18345,-0.59172 2.51013,-1.11849 3.95302,-1.55663 z m 1.06788,-0.29736 c 2.93244,-0.77722 6.28068,-1.22477 9.83821,-1.22485 3.55327,-9e-5 6.90113,0.44616 9.83205,1.22215 -2.93155,0.77554 -6.27829,1.21557 -9.83326,1.21565 -3.55766,9e-5 -6.90617,-0.4366 -9.837,-1.21295 z m 31.24021,-9.02878 c 0.67756,1.02547 1.06248,2.11245 1.10145,3.23304 -0.3783,-0.5584 -0.83608,-1.09617 -1.36315,-1.61181 0.16431,-0.52593 0.25215,-1.06954 0.2617,-1.62123 z m -37.6375,11.64296 c 0.0158,0.008 0.0302,0.0168 0.046,0.0248 1.4645,0.73219 3.12658,1.36016 4.93631,1.87386 -0.77714,0.28649 -1.51043,0.60227 -2.19305,0.94358 -0.75864,0.37931 -1.4551,0.79254 -2.08263,1.2344 -0.34611,-0.1537 -0.68727,-0.31125 -1.01416,-0.47468 -0.89093,-0.44543 -1.70338,-0.92719 -2.43671,-1.43617 0.73286,-0.775 1.65602,-1.50405 2.74424,-2.16575 z m 31.76528,-9.30979 c 0.3461,0.15371 0.68728,0.31126 1.01417,0.47469 0.89063,0.44527 1.69808,0.92913 2.42962,1.43829 -0.73113,0.77344 -1.65568,1.49513 -2.73928,2.15655 -0.0157,-0.008 -0.0302,-0.0169 -0.046,-0.0248 -1.46221,-0.73104 -3.12111,-1.35599 -4.9271,-1.8689 0.77458,-0.28583 1.50536,-0.60116 2.18597,-0.94146 0.7588,-0.37939 1.45515,-0.79226 2.08262,-1.23441 z m -38.02948,12.47025 c 0.37896,0.56328 0.8286,1.10789 1.36032,1.62809 -0.16501,0.52816 -0.25066,1.0742 -0.25958,1.6283 -0.26324,-0.39954 -0.49085,-0.8121 -0.66179,-1.22836 -0.0455,-0.11073 -0.0845,-0.22151 -0.12317,-0.33328 -0.0351,-0.10452 -0.069,-0.21112 -0.10265,-0.3163 -0.12941,-0.45291 -0.19839,-0.91208 -0.21313,-1.37845 z m 3.20083,-0.64439 c 0.77034,0.53894 1.62235,1.04529 2.55135,1.50975 0.25509,0.12753 0.51726,0.25259 0.78345,0.37423 -0.8612,0.66146 -1.56936,1.37979 -2.09387,2.14797 -0.96443,-0.5881 -1.81743,-1.22312 -2.53511,-1.89259 0.27472,-0.74127 0.71138,-1.45759 1.29418,-2.13936 z m 40.26087,-12.05234 c 0.61881,0.62878 1.12084,1.2892 1.50189,1.97127 -0.0852,0.70143 -0.30254,1.38673 -0.6417,2.05153 -0.5929,-0.69074 -1.31419,-1.34485 -2.1381,-1.95774 0.55424,-0.65462 0.98598,-1.34651 1.27791,-2.06506 z m -1.59705,2.41539 c 0.87217,0.64608 1.61686,1.33409 2.21454,2.05821 -0.44792,0.74423 -1.04758,1.46009 -1.78956,2.13377 -9.4e-4,-9.5e-4 -0.006,0.003 -0.007,0.002 -0.87348,-0.74472 -1.89931,-1.43634 -3.06306,-2.0581 1.03251,-0.65303 1.92727,-1.36635 2.64516,-2.13601 z m -40.11577,12.27876 c 0.70757,0.63658 1.52826,1.23531 2.44239,1.78928 -0.36836,0.62625 -0.61183,1.28246 -0.72309,1.96025 -0.72724,-0.56999 -1.34962,-1.17228 -1.85996,-1.80209 -0.023,-0.19813 -0.0404,-0.39665 -0.0404,-0.59725 1e-5,-0.45641 0.0625,-0.90725 0.18105,-1.35019 z m 11.15645,-3.30973 c 2.80085,-0.83775 6.08093,-1.32805 9.59121,-1.32814 3.50691,-9e-5 6.78568,0.48937 9.58578,1.32691 -2.90763,0.68466 -6.15421,1.07118 -9.58345,1.07127 -3.43215,8e-5 -6.68421,-0.38532 -9.59354,-1.07004 z m -0.85204,0.27114 c 3.13589,0.80851 6.68672,1.26886 10.44775,1.26877 3.76178,-10e-5 7.3076,-0.45921 10.44256,-1.2674 1.00385,0.33849 1.93925,0.72039 2.78911,1.14528 0.64803,0.32399 1.24797,0.66991 1.79197,1.03574 -1.58807,0.66573 -3.35891,1.22822 -5.27003,1.6665 -2.71383,-1.03904 -6.08969,-1.65462 -9.75353,-1.65453 -3.65939,9e-5 -7.03718,0.60942 -9.75042,1.64589 -1.90696,-0.43851 -3.67967,-0.99553 -5.26536,-1.6594 0.54208,-0.36428 1.13435,-0.71282 1.77975,-1.03551 0.84916,-0.42457 1.7857,-0.80811 2.7882,-1.14534 z m -5.02155,2.4944 c 1.5066,0.65155 3.17496,1.20725 4.97096,1.65518 -0.30004,0.12953 -0.59411,0.26108 -0.87467,0.40136 -1.05163,0.52581 -1.96151,1.12687 -2.70251,1.79069 -0.87327,-0.32879 -1.69621,-0.68739 -2.4664,-1.07244 -0.3868,-0.19339 -0.75542,-0.39272 -1.11325,-0.59922 0.5322,-0.77388 1.26988,-1.50305 2.18587,-2.17557 z m 38.28647,-11.45978 c 0.31743,0.75674 0.4857,1.54057 0.48568,2.33797 -1e-5,0.37936 -0.0353,0.75682 -0.10889,1.12799 -0.26443,-0.59496 -0.6143,-1.17526 -1.044,-1.73074 0.30585,-0.56085 0.52997,-1.14068 0.66721,-1.73522 z m -6.56577,2.15566 c 1.21649,0.63024 2.2849,1.31983 3.17488,2.07081 -0.89061,0.75008 -1.95519,1.44782 -3.17169,2.07806 -0.37777,-0.22208 -0.76883,-0.43551 -1.17977,-0.64096 -1.08223,-0.54106 -2.28066,-1.02044 -3.57043,-1.4353 1.2862,-0.41436 2.48549,-0.89254 3.56593,-1.43275 0.41054,-0.20526 0.80399,-0.41769 1.18108,-0.63986 z m -34.15706,11.87884 c 0.37172,0.2137 0.75749,0.41709 1.15713,0.61689 0.72174,0.36084 1.49245,0.69487 2.30008,1.00666 -0.63415,0.63943 -1.11265,1.33261 -1.40175,2.06366 -0.0417,-0.0205 -0.0853,-0.0416 -0.12668,-0.0623 -0.97608,-0.48799 -1.84942,-1.02013 -2.6285,-1.58686 0.077,-0.70046 0.31488,-1.38196 0.69972,-2.03809 z m -2.79388,0.86936 c 0.46923,0.48996 1.01429,0.95274 1.608,1.39948 -0.005,0.0892 -0.0127,0.17619 -0.0127,0.26608 -1e-5,0.38428 0.0452,0.75595 0.12961,1.12583 -0.37481,-0.39584 -0.70372,-0.79986 -0.97531,-1.21913 -0.001,-0.002 -9.4e-4,-0.005 -0.002,-0.007 -0.0997,-0.16213 -0.19795,-0.32564 -0.29374,-0.49035 -0.18924,-0.35224 -0.34182,-0.71038 -0.45372,-1.07483 z m 42.58841,-12.72775 c 0.49049,0.66261 0.85846,1.35371 1.0971,2.06191 -0.23744,0.70242 -0.60612,1.38317 -1.0925,2.04026 -0.45533,-0.72108 -1.04355,-1.40986 -1.75171,-2.05827 0.70455,-0.64521 1.29387,-1.3269 1.74711,-2.0439 z m -30.08371,10.59463 c 2.38293,-0.72293 5.19508,-1.14106 8.19708,-1.14113 3.30571,-8e-5 6.37101,0.50856 8.89721,1.37159 -2.74254,0.56366 -5.75011,0.87437 -8.90197,0.87445 -3.14229,8e-5 -6.13719,-0.31554 -8.87239,-0.87767 0.22372,-0.0764 0.4476,-0.15671 0.68007,-0.22724 z m -1.54979,0.54226 c 0.009,-0.004 0.0193,-0.005 0.0283,-0.008 2.96595,0.67285 6.25498,1.04818 9.71809,1.04809 3.46391,-9e-5 6.74773,-0.37568 9.71367,-1.04863 0.50497,0.19745 0.9878,0.4066 1.43949,0.63242 0.93168,0.4658 1.7366,0.99092 2.40275,1.55435 -1.5463,0.54997 -3.23403,1.00448 -5.03156,1.35582 -2.25623,-1.03979 -5.24107,-1.66894 -8.52357,-1.66885 -3.28574,8e-5 -6.27383,0.63178 -8.53106,1.67331 -1.79938,-0.35162 -3.48846,-0.80731 -5.03604,-1.35797 0.66706,-0.56384 1.47646,-1.08953 2.41025,-1.55642 0.44367,-0.22183 0.91612,-0.42869 1.40967,-0.62362 z m 29.5262,-8.77663 c 0.74767,0.67916 1.35075,1.39376 1.80055,2.14389 -0.5968,0.72222 -1.33699,1.40706 -2.20781,2.05104 -0.71932,-0.77164 -1.61163,-1.49004 -2.64908,-2.14378 1.15741,-0.61931 2.18486,-1.30986 3.05634,-2.05115 z m -38.41096,12.09879 c 0.73841,0.51527 1.55019,0.99897 2.43882,1.44324 0.0612,0.0306 0.12713,0.0596 0.18896,0.0898 -0.10992,0.3879 -0.1669,0.7858 -0.16691,1.19168 0,0.1904 0.0215,0.37811 0.046,0.56469 -0.80676,-0.48257 -1.52552,-1.00058 -2.14585,-1.5466 -0.23187,-0.56542 -0.35224,-1.15037 -0.36107,-1.74286 z m 4.67068,-0.7847 c 1.4633,0.53525 3.04994,0.98231 4.7374,1.33961 -1.11021,0.59694 -2.0032,1.31249 -2.60695,2.10911 -1.28998,-0.39616 -2.49043,-0.85539 -3.58881,-1.36807 0.28272,-0.73138 0.77713,-1.42862 1.45836,-2.08065 z m 30.19707,-9.00883 c 1.08781,0.66169 2.00811,1.38753 2.73966,2.16287 -0.73455,0.51021 -1.54443,0.99472 -2.43716,1.44108 -0.32745,0.16372 -0.66593,0.32737 -1.01266,0.48133 -0.62969,-0.44368 -1.3233,-0.86011 -2.08497,-1.2409 -0.68131,-0.34063 -1.41238,-0.65423 -2.18755,-0.94015 1.80691,-0.51308 3.4672,-1.14154 4.93032,-1.87309 0.0184,-0.009 0.034,-0.0219 0.0524,-0.0311 z m 6.95149,-1.84718 c 0.0737,0.37036 0.11334,0.74412 0.11333,1.123 -1e-5,0.1094 -0.004,0.21818 -0.01,0.32693 -1.3e-4,0.002 0.002,0.005 0.002,0.007 -0.0156,0.1659 -0.0332,0.32907 -0.0523,0.49394 -0.0746,0.51262 -0.21861,1.01511 -0.42661,1.50874 -0.13776,-0.59696 -0.36198,-1.17997 -0.66963,-1.74282 0.4274,-0.55283 0.77983,-1.12479 1.04299,-1.71687 z m -1.37062,2.11602 c 0.34186,0.66691 0.55697,1.35565 0.64135,2.05984 -0.38102,0.68046 -0.88172,1.34143 -1.49942,1.96956 -0.29201,-0.71845 -0.72005,-1.40832 -1.27473,-2.06258 0.82645,-0.61511 1.53893,-1.27395 2.1328,-1.96682 z m -37.37851,11.27213 c 1.06274,0.49285 2.21791,0.93197 3.4501,1.31715 -0.35763,0.58614 -0.56065,1.21309 -0.57306,1.86894 -0.76872,-0.2914 -1.4941,-0.60477 -2.1734,-0.94439 -0.24973,-0.12486 -0.49534,-0.25132 -0.73179,-0.38203 -0.0686,-0.29114 -0.10411,-0.58861 -0.10411,-0.88665 2e-5,-0.32982 0.048,-0.65243 0.13226,-0.97302 z m -2.12227,1.07661 c 0.51735,0.382 1.07983,0.74747 1.68511,1.09094 0.10184,0.36044 0.25145,0.71389 0.44027,1.05574 -0.49751,-0.37196 -0.94517,-0.76125 -1.32985,-1.16671 -0.0192,-0.02 -0.0375,-0.0401 -0.0566,-0.0601 -0.27817,-0.29884 -0.52616,-0.60596 -0.73891,-0.91983 z m 11.29661,-2.91985 c 1.85696,-0.56302 4.04159,-0.88961 6.38258,-0.88967 2.92289,-7e-5 5.61053,0.50742 7.7104,1.34982 -2.41334,0.42024 -5.00838,0.65556 -7.71023,0.65563 -2.69707,6e-5 -5.28436,-0.2341 -7.69406,-0.6528 0.41547,-0.16737 0.85311,-0.32406 1.31131,-0.46298 z m -2.08125,0.80204 c 2.63017,0.50395 5.4834,0.78368 8.46617,0.78361 2.99346,-8e-5 5.85207,-0.27416 8.49009,-0.7817 0.0691,0.033 0.13985,0.066 0.20736,0.0997 1.14348,0.5717 2.04478,1.24973 2.64906,1.98952 -1.43036,0.41547 -2.96045,0.7645 -4.57017,1.01679 -0.20099,-0.12488 -0.40796,-0.24596 -0.632,-0.35798 -1.58861,-0.79426 -3.75595,-1.27933 -6.1464,-1.27927 -2.39046,6e-5 -4.55329,0.48591 -6.14194,1.28025 -0.22308,0.11155 -0.43458,0.22841 -0.63477,0.35249 -1.60942,-0.25205 -3.13735,-0.58973 -4.56752,-1.00492 0.60445,-0.74041 1.50515,-1.41846 2.65013,-1.99095 0.0742,-0.0371 0.15378,-0.0713 0.22999,-0.10759 z m 27.76766,-7.97888 c 0.58133,0.68258 1.01713,1.40043 1.29101,2.14255 -0.71819,0.66983 -1.57037,1.30013 -2.53478,1.8869 -0.52484,-0.76795 -1.23442,-1.48718 -2.09495,-2.14809 0.26687,-0.12194 0.52696,-0.24589 0.78267,-0.37374 0.93027,-0.46513 1.785,-0.96749 2.55605,-1.50762 z m -3.83621,2.10008 c 0.91501,0.67164 1.64791,1.40373 2.18059,2.17639 -0.35342,0.20325 -0.72066,0.40222 -1.10253,0.59316 -0.77014,0.38506 -1.59725,0.74431 -2.47046,1.07311 -0.7412,-0.66222 -1.65416,-1.26283 -2.70424,-1.78782 -0.27957,-0.13978 -0.57023,-0.2734 -0.86908,-0.40253 1.79225,-0.44714 3.46144,-1.00211 4.96572,-1.65231 z m -30.85023,9.42855 c 0.10387,0.0542 0.20468,0.1083 0.31069,0.1613 0.7552,0.37756 1.56652,0.72104 2.42535,1.03848 0.0673,0.50005 0.24524,0.97743 0.51532,1.4343 -0.37884,-0.16141 -0.74854,-0.32736 -1.09979,-0.50298 -0.43665,-0.2183 -0.84934,-0.44743 -1.23923,-0.68482 -0.39781,-0.46367 -0.70567,-0.94621 -0.91234,-1.44628 z m 3.74359,-1.0464 c 1.35555,0.40142 2.80095,0.73222 4.31558,0.98797 -0.71589,0.5548 -1.2133,1.20088 -1.38336,1.9193 -1.23534,-0.28219 -2.40542,-0.61979 -3.49679,-1.01002 -0.001,-0.0355 -0.009,-0.0699 -0.009,-0.10544 2e-5,-0.61867 0.20111,-1.21994 0.57307,-1.79181 z m 34.13742,-9.8366 c -0.0165,0.50277 -0.0988,0.99914 -0.24827,1.48607 -0.0204,0.063 -0.0385,0.12479 -0.0594,0.18753 -0.01,0.0284 -0.0181,0.0573 -0.0283,0.0856 -0.004,0.0116 -0.009,0.0231 -0.0127,0.0347 -0.18164,0.49726 -0.43774,0.9851 -0.75003,1.45925 -0.009,-0.55735 -0.0927,-1.10347 -0.25916,-1.63461 0.52708,-0.51592 0.98037,-1.0601 1.35792,-1.61855 z m -1.74994,1.98304 c 0.12071,0.44728 0.18554,0.90275 0.18553,1.36359 -1e-5,0.19825 -0.0159,0.39455 -0.0389,0.59017 -0.50954,0.62925 -1.1308,1.23728 -1.85683,1.80686 -0.11119,-0.679 -0.35955,-1.33772 -0.72838,-1.9643 0.91273,-0.55923 1.73044,-1.15892 2.43855,-1.79632 z m -25.28226,7.95802 c 0.16937,-0.0548 0.34553,-0.10877 0.52368,-0.15717 1.18769,-0.32264 2.55846,-0.51001 4.01256,-0.51005 2.32656,-6e-5 4.428,0.47712 5.93055,1.22835 0.0321,0.0161 0.0605,0.0333 0.092,0.0495 -1.91787,0.26421 -3.93944,0.40484 -6.02666,0.40489 -2.08374,5e-5 -4.09404,-0.14705 -6.00904,-0.41031 0.0272,-0.014 0.053,-0.0258 0.0807,-0.0396 0.4226,-0.2113 0.8881,-0.40112 1.39622,-0.56559 z m -7.6018,2.32775 c 1.05456,0.36635 2.18374,0.68263 3.36302,0.9499 -0.001,0.0312 -0.003,0.062 -0.003,0.0934 -1e-5,0.51929 0.16578,1.01191 0.46296,1.46545 -1.06827,-0.26517 -2.0791,-0.57287 -3.01767,-0.93013 -0.41084,-0.50049 -0.68371,-1.03294 -0.80549,-1.57863 z m 5.47032,-1.33323 c 2.11093,0.32087 4.34671,0.49095 6.66578,0.49089 2.32075,-6e-5 4.55767,-0.17626 6.66994,-0.49767 0.85623,0.56497 1.40546,1.22819 1.57337,1.92667 -1.26123,0.26961 -2.58962,0.47623 -3.96443,0.61902 -0.24817,-0.34343 -0.63323,-0.63764 -1.10266,-0.87236 -0.8292,-0.4146 -1.94596,-0.66619 -3.17759,-0.66616 -1.23163,3e-5 -2.34188,0.25168 -3.1711,0.66632 -0.46945,0.23475 -0.85574,0.5278 -1.10392,0.87126 -1.37897,-0.143 -2.70196,-0.35162 -3.96666,-0.62218 0.16887,-0.69716 0.72198,-1.35311 1.57727,-1.91579 z m 24.57041,-6.91132 c 0.38707,0.65847 0.62399,1.34599 0.70009,2.04992 -0.77763,0.56511 -1.65465,1.08879 -2.62823,1.57556 -0.0396,0.0198 -0.0811,0.0398 -0.12101,0.0595 -0.28849,-0.72971 -0.76866,-1.4157 -1.40353,-2.05478 0.80814,-0.31197 1.57564,-0.6448 2.29779,-1.00587 0.39965,-0.19983 0.78396,-0.40906 1.15489,-0.62429 z m -30.94929,9.61254 c 0.45683,0.21551 0.93641,0.41903 1.43313,0.6112 0.17491,0.20247 0.37224,0.39812 0.58531,0.58797 -0.0421,-0.0206 -0.085,-0.0414 -0.12668,-0.0623 -0.1329,-0.0664 -0.2635,-0.13017 -0.39138,-0.19879 -0.053,-0.0284 -0.10429,-0.0554 -0.1564,-0.0842 -0.0664,-0.0384 -0.13148,-0.0791 -0.19746,-0.11815 -0.15431,-0.0886 -0.30621,-0.18128 -0.45224,-0.27308 -0.092,-0.0572 -0.18419,-0.11345 -0.2753,-0.17192 -0.14383,-0.0959 -0.28423,-0.19183 -0.41898,-0.29078 z m 22.27045,-6.45246 c 1.6858,-0.35725 3.27232,-0.8089 4.73433,-1.34375 0.67798,0.65007 1.17305,1.3481 1.45661,2.07742 -1.09742,0.51233 -2.29631,0.97303 -3.58504,1.36907 -0.60312,-0.79519 -1.49801,-1.50684 -2.6059,-2.10274 z m -17.53249,6.14894 c 1.21252,0.25725 2.4828,0.45426 3.79681,0.59602 -0.0424,0.13347 -0.0686,0.27017 -0.0686,0.41397 -1e-5,0.44668 0.21445,0.85264 0.57404,1.193 -1.23812,-0.13513 -2.42904,-0.33142 -3.56115,-0.5819 -0.4743,-0.50587 -0.7342,-1.05432 -0.74109,-1.62109 z m 28.99971,-8.44892 c -0.11255,0.36403 -0.26006,0.72314 -0.44858,1.07567 -0.1211,0.2084 -0.24209,0.41569 -0.36936,0.61994 -0.25707,0.38218 -0.55544,0.75579 -0.89867,1.11819 0.0858,-0.37405 0.12798,-0.75324 0.12799,-1.14144 0,-0.0904 -0.006,-0.17708 -0.0106,-0.26678 0.59289,-0.44631 1.13056,-0.91616 1.59925,-1.40558 z m -31.23377,9.7442 c 0.86591,0.28978 1.77857,0.54401 2.73528,0.76034 0.002,0.002 4.8e-4,0.006 0.002,0.007 0.36887,0.36745 0.82932,0.7011 1.3631,0.99475 -0.86966,-0.19407 -1.69719,-0.4191 -2.47344,-0.68465 -0.62451,-0.32869 -1.16767,-0.69123 -1.62707,-1.07751 z m 8.19064,-1.85655 c 0.66411,-0.22473 1.47512,-0.36615 2.35092,-0.36617 1.16773,-3e-5 2.21858,0.24367 2.96174,0.61524 0.30522,0.15261 0.55153,0.32286 0.73745,0.50373 -1.20164,0.10729 -2.43499,0.1689 -3.69837,0.16893 -1.26408,3e-5 -2.50252,-0.0535 -3.70478,-0.16083 0.18665,-0.18324 0.43353,-0.35378 0.74233,-0.50819 0.18579,-0.0929 0.38934,-0.17779 0.61071,-0.25271 z m 20.98036,-6.15012 c -0.008,0.59762 -0.13403,1.18375 -0.36855,1.75357 -0.61886,0.54462 -1.33209,1.06241 -2.13639,1.54365 0.025,-0.18816 0.0452,-0.37688 0.0453,-0.56894 10e-6,-0.40535 -0.0556,-0.80556 -0.165,-1.19235 0.0601,-0.0294 0.12315,-0.0559 0.18258,-0.0856 0.89074,-0.44536 1.70232,-0.93361 2.44211,-1.45028 z m -22.65536,7.35475 c 1.30495,0.12488 2.64455,0.18913 4.02182,0.18909 1.37476,-3e-5 2.7212,-0.065 4.02391,-0.18949 0.055,0.12359 0.0871,0.2425 0.0871,0.36725 -1e-5,0.45594 -0.37694,0.92002 -1.07203,1.28593 -0.98819,0.0806 -1.99903,0.12352 -3.03315,0.12354 -1.03478,3e-5 -2.04862,-0.0412 -3.03742,-0.122 -0.69392,-0.36566 -1.07157,-0.82725 -1.07156,-1.2828 0,-0.12424 0.0268,-0.24843 0.0813,-0.37152 z m 11.35745,-3.15408 c 1.51465,-0.25616 2.96138,-0.58519 4.31683,-0.98704 0.37032,0.57115 0.56774,1.17147 0.56772,1.78883 0,0.0365 -0.004,0.0733 -0.006,0.10968 -1.09271,0.39096 -2.26236,0.72906 -3.49944,1.0117 -0.17021,-0.71665 -0.66558,-1.36798 -1.37946,-1.92317 z m 8.22739,-2.4538 c 0.0864,0.32535 0.13385,0.65151 0.13385,0.98572 -10e-6,0.29806 -0.0374,0.58915 -0.10608,0.88031 -0.23538,0.13006 -0.47824,0.25584 -0.72677,0.3801 -0.67922,0.33961 -1.40815,0.655 -2.17677,0.94641 -0.0129,-0.65621 -0.21876,-1.28431 -0.57693,-1.87091 1.23266,-0.38534 2.3896,-0.82856 3.4527,-1.32163 z m -22.36875,7.23017 c 1.1626,0.22383 2.37744,0.39164 3.63616,0.49767 0.8292,0.4146 1.94383,0.65912 3.17546,0.65908 1.23163,-3e-5 2.34401,-0.2446 3.17323,-0.65924 1.25252,-0.10529 2.4594,-0.2698 3.61696,-0.4916 -0.25776,0.17909 -0.54005,0.35328 -0.85697,0.51174 -0.54047,0.27024 -1.16574,0.50279 -1.84418,0.69232 -1.30472,0.17425 -2.67596,0.27155 -4.09184,0.27159 -1.41217,4e-5 -2.77609,-0.0993 -4.07774,-0.27259 -0.68395,-0.19018 -1.31426,-0.41973 -1.85845,-0.69181 -0.32096,-0.16047 -0.61186,-0.33568 -0.87263,-0.51716 z m 24.47918,-6.13575 c -0.51821,0.76083 -1.23697,1.4787 -2.12642,2.14231 0.19218,-0.34535 0.34958,-0.69713 0.45283,-1.06152 0.60025,-0.34067 1.15976,-0.7019 1.67359,-1.08079 z m -13.15699,4.4578 c 1.31102,-0.14151 2.57607,-0.33987 3.78609,-0.59635 -0.005,0.56715 -0.25852,1.12356 -0.72948,1.6305 -1.13412,0.25073 -2.32764,0.4422 -3.56813,0.57721 0.35904,-0.3388 0.57807,-0.73732 0.57808,-1.18396 1e-5,-0.1465 -0.0226,-0.29163 -0.0666,-0.4274 z m 10.86774,-3.03796 c -0.20827,0.50293 -0.51975,0.99003 -0.92058,1.45644 -0.38583,0.23463 -0.79299,0.46033 -1.22424,0.67596 -0.35111,0.17555 -0.72106,0.33842 -1.09971,0.49974 0.2701,-0.45389 0.44489,-0.92968 0.51295,-1.42666 0.8579,-0.31723 1.67069,-0.66687 2.42516,-1.0441 0.105,-0.0525 0.20352,-0.10775 0.30642,-0.16138 z m -6.60396,2.33681 c 1.18155,-0.26784 2.30581,-0.58778 3.36215,-0.95506 -0.12254,0.54848 -0.39725,1.08402 -0.81229,1.58593 -0.93747,0.35623 -1.94876,0.6638 -3.01539,0.92812 0.30145,-0.4557 0.46977,-0.94519 0.46978,-1.4677 0,-0.0306 -0.003,-0.0608 -0.004,-0.0913 z m -9.71208,3.00738 c 0.30904,0.007 0.62212,0.005 0.93486,0.005 0.34169,-1e-5 0.6825,-0.0118 1.01977,-0.0207 -0.32741,0.0411 -0.66724,0.0674 -1.02119,0.0674 -0.32069,10e-6 -0.63456,-0.018 -0.93344,-0.0515 z m 13.97241,-2.58904 c -0.23791,0.1748 -0.4905,0.3475 -0.75648,0.51243 -0.35201,0.21828 -0.72602,0.42365 -1.12446,0.62288 -0.0505,0.0252 -0.10308,0.0522 -0.15427,0.0772 0.21457,-0.18974 0.40895,-0.39007 0.58591,-0.59237 0.50279,-0.19381 0.9873,-0.40233 1.4493,-0.62009 z m -5.22826,1.75424 c 0.94529,-0.21345 1.84941,-0.46522 2.70614,-0.75047 -0.45815,0.38045 -0.99804,0.73922 -1.61698,1.0638 -0.77123,0.26323 -1.5931,0.49045 -2.45634,0.68321 0.5338,-0.29368 0.99767,-0.62923 1.36718,-0.99654 z"
                 id="path9516"
                 inkscape:connector-curvature="0" />
            </g>
          </g>
        </g>
      </g>
    </g>
  </g>
</svg>
