<?xml version="1.0" encoding="UTF-8" standalone="no"?>
<!-- Created with Inkscape (http://www.inkscape.org/) -->

<svg
   xmlns:dc="http://purl.org/dc/elements/1.1/"
   xmlns:cc="http://creativecommons.org/ns#"
   xmlns:rdf="http://www.w3.org/1999/02/22-rdf-syntax-ns#"
   xmlns:svg="http://www.w3.org/2000/svg"
   xmlns="http://www.w3.org/2000/svg"
   xmlns:xlink="http://www.w3.org/1999/xlink"
   xmlns:sodipodi="http://sodipodi.sourceforge.net/DTD/sodipodi-0.dtd"
   xmlns:inkscape="http://www.inkscape.org/namespaces/inkscape"
   width="148.93474"
   height="72"
   id="svg3947"
   version="1.1"
   inkscape:version="0.48.4 r9939"
   sodipodi:docname="New document 12">
  <defs
     id="defs3949">
    <linearGradient
       inkscape:collect="always"
       xlink:href="#linearGradient18956"
       id="linearGradient4120"
       gradientUnits="userSpaceOnUse"
       gradientTransform="translate(193.25602,75.128533)"
       x1="71.739609"
       y1="88.051125"
       x2="382.56323"
       y2="88.051125" />
    <linearGradient
       id="linearGradient18956">
      <stop
         style="stop-color:#49c800;stop-opacity:1;"
         offset="0"
         id="stop18958" />
      <stop
         style="stop-color:#7d6000;stop-opacity:0.71428573;"
         offset="1"
         id="stop18960" />
    </linearGradient>
    <radialGradient
       inkscape:collect="always"
       xlink:href="#linearGradient4096"
       id="radialGradient4122"
       gradientUnits="userSpaceOnUse"
       cx="-230.71428"
       cy="53.076481"
       fx="-230.71428"
       fy="53.076481"
       r="35" />
    <linearGradient
       id="linearGradient4096">
      <stop
         style="stop-color:#eb9d7b;stop-opacity:1;"
         offset="0"
         id="stop4098" />
      <stop
         style="stop-color:#d1bca3;stop-opacity:0;"
         offset="1"
         id="stop4100" />
    </linearGradient>
    <radialGradient
       r="35"
       fy="53.076481"
       fx="-230.71428"
       cy="53.076481"
       cx="-230.71428"
       gradientUnits="userSpaceOnUse"
       id="radialGradient3945"
       xlink:href="#linearGradient4096"
       inkscape:collect="always" />
  </defs>
  <sodipodi:namedview
     id="base"
     pagecolor="#ffffff"
     bordercolor="#666666"
     borderopacity="1.0"
     inkscape:pageopacity="0.0"
     inkscape:pageshadow="2"
     inkscape:zoom="0.35"
     inkscape:cx="-44.818342"
     inkscape:cy="110.28571"
     inkscape:document-units="px"
     inkscape:current-layer="layer1"
     showgrid="false"
     fit-margin-top="0"
     fit-margin-left="0"
     fit-margin-right="0"
     fit-margin-bottom="0"
     inkscape:window-width="484"
     inkscape:window-height="413"
     inkscape:window-x="717"
     inkscape:window-y="305"
     inkscape:window-maximized="0" />
  <metadata
     id="metadata3952">
    <rdf:RDF>
      <cc:Work
         rdf:about="">
        <dc:format>image/svg+xml</dc:format>
        <dc:type
           rdf:resource="http://purl.org/dc/dcmitype/StillImage" />
        <dc:title></dc:title>
      </cc:Work>
    </rdf:RDF>
  </metadata>
  <g
     inkscape:label="Layer 1"
     inkscape:groupmode="layer"
     id="layer1"
     transform="translate(-419.81834,-570.6479)">
    <g
       id="g4104"
       inkscape:export-filename="C:\Users\jouke\Desktop\app_005_earth.png"
       inkscape:export-xdpi="40.900089"
       inkscape:export-ydpi="40.900089"
       transform="matrix(0.36388554,0,0,0.36388554,323.39026,537.82103)">
      <path
         inkscape:export-ydpi="41.740002"
         inkscape:export-xdpi="41.740002"
         inkscape:export-filename="C:\Users\jouke\Desktop\app_005_earth.png"
         inkscape:connector-curvature="0"
         style="fill:url(#linearGradient4120);fill-opacity:1;stroke:none"
         d="m 309.54564,187.48082 0,7.94104 c 7.90345,-0.0932 15.34282,-2.31116 22.275,-6.00801 1.17563,-0.71651 2.51528,-1.35639 2.97701,-1.42194 1.73817,-0.2468 3.09799,0.87546 3.09799,2.55676 l 0,0.98215 4.05,0 0,-24.3 -3.98785,0 c -1.18227,13.85733 -16.04505,20.25 -28.41215,20.25 z m 0,-89.099998 0,-7.941039 c 7.90345,0.0932 15.34282,2.311159 22.275,6.008009 1.17563,0.71652 2.51528,1.35639 2.97701,1.42195 1.73817,0.24679 3.09799,-0.87547 3.09799,-2.55676 l 0,-0.98216 4.05,0 0,24.299998 -3.98785,0 C 336.77552,104.77349 321.91274,98.380822 309.54564,98.380822 z m 2.41875,48.604938 -2.41875,-0.005 0,-8.06424 2.90941,-0.0741 c 3.10006,0.23496 4.84278,-0.97673 5.24984,-4.01163 l 3.99075,0 0,16.2 -3.95667,0 c -0.55282,-3.22384 -2.75253,-3.88187 -5.77458,-4.04505 z m -23.64106,42.28435 c 6.34188,4.291 13.74454,5.69905 21.22231,6.37947 -0.006,-2.72291 0.008,-5.44586 0,-8.16876 -20.63243,-3.67238 -24.16121,-29.16004 -24.16121,-44.55 0,-15.41845 5.05729,-42.75333 24.16121,-44.549998 l 0,-8.168759 c -28.06159,1.15327 -44.28651,26.728767 -44.42565,52.718757 -0.21696,14.77982 5.21237,28.8819 15.17916,39.77944 -3.73574,5.18298 -9.0456,8.29194 -15.30351,9.14527 l 0,3.95029 c 8.33838,0.2449 15.96455,-3.02498 23.32769,-6.53571 z m 18.80356,-42.28435 2.41875,-0.005 0,-8.06424 -2.90941,-0.0741 c -3.10005,0.23496 -4.84278,-0.97673 -5.24984,-4.01163 l -3.99075,0 0,16.2 3.95667,0 c 0.55283,-3.22384 2.75254,-3.88187 5.77458,-4.04505 z m 99.1654,4.38256 c -1.61802,-16.42197 -13.99699,-20.57294 -28.22725,-20.64731 l 0,4.04865 c 7.42873,0.84964 11.51318,8.82651 11.51318,15.03644 l 0.6678,29.57472 16.18816,0 -0.14189,-28.0125 z m 0.12275,35.84013 c 0.007,2.53365 1.77919,3.75716 4.05,4.41571 l 0,3.95666 -20.25,0 0,-2.67782 c -3.73391,2.15351 -7.94162,2.53578 -12.15,2.74404 l 0,-4.03554 c 6.87456,-0.77201 11.21956,-5.56426 12.23068,-12.23068 l 16.11932,0 0,7.82763 z m -16.2,-19.97763 -6.81523,0 c -9.03544,0 -16.81151,2.34542 -17.47126,12.22997 0.0524,5.20027 3.47488,10.23668 9.31501,11.72767 0.9227,0.27269 1.86787,0.34236 2.82148,0.34236 l 0,4.05 c -1.5473,0.0326 -3.0902,-0.0997 -4.62968,-0.2399 -8.67454,-1.22326 -23.33097,-4.83346 -23.60752,-15.94395 0.4062,-11.29887 14.81998,-14.46625 23.60752,-15.97625 1.35181,-0.13194 5.68025,-0.2399 9.61875,-0.2399 l 7.16093,0 0,4.05 z m -12.15,-32.46207 c -12.38591,0.88187 -18.89512,8.42909 -20.31964,20.31207 l -3.98037,0 0,-20.25 3.99891,0 c 0.17381,1.34334 0.4118,2.84118 1.7339,3.50643 0.60319,0.15139 0.5785,0.16725 3.37394,-2.16745 4.32902,-3.6461 9.685,-5.02292 15.19326,-5.45536 l 0,4.05431 z m 37.10844,12.21207 16.2,0 0,32.4 -16.2,0 0,-32.4 z m 0,-7.82762 c -0.007,-2.53365 -1.7792,-3.75716 -4.05,-4.41571 l 0,-3.95667 20.25,0 0,2.67782 c 3.7339,-2.1535 7.94162,-2.53577 12.15,-2.74403 l 0,4.03553 c -6.87457,0.77201 -11.21957,5.56426 -12.23068,12.23068 l -16.11932,0 0,-7.82762 z m 44.32355,7.62993 c -4.01662,-1.52211 -4.51766,-5.25358 -2.29134,-8.53424 -4.27491,-2.09431 -8.90522,-3.41214 -13.68221,-3.41807 l 0,-4.11642 c 7.54413,0.21098 14.88185,2.695 20.66565,7.56975 1.9889,1.67631 2.00078,5.08008 0.17678,7.08732 -1.05226,1.15798 -3.50823,1.92729 -4.86888,1.41166 z m -44.32355,44.74769 -4.05,0 0,4.05 28.35,0 0,-4.05 -8.1,0 0,-12.15 -16.2,0 0,12.15 z m 0,20.25 16.2,0 0,-16.2 -16.2,0 0,16.2 z m 28.35,24.075 0,-3.76702 c -9.16061,-1.29371 -12.141,-12.30162 -12.15,-20.30798 l -16.25242,0 c 1.03362,14.59387 14.57189,24.01147 28.40242,24.075 z m 0,-3.76293 c 12.3859,-0.88186 18.89511,-8.42909 20.31963,-20.31207 l 3.98037,0 0,20.25 -3.9989,0 c -0.17382,-1.34333 -0.4118,-2.84117 -1.7339,-3.50642 -0.60319,-0.15139 -0.57851,-0.16725 -3.37395,2.16745 -4.32901,3.6461 -9.68499,5.02292 -15.19325,5.45536 l 0,-4.05432 z m 30.20914,-85.11207 16.2,0 0,32.4 -16.2,0 0,-32.4 z m 0,-12.15 -4.05,0 0,-4.05 28.35,0 0,4.05 -8.1,0 0,12.15 -16.2,0 0,-12.15 z m 0,-20.25 16.2,0 0,16.2 -16.2,0 0,-16.2 z m 16.2,0 -16.32204,0 c -0.60621,-3.42435 -2.13605,-7.97657 -6.24161,-8.05536 -2.45605,0.0964 -3.1596,2.32646 -4.60645,3.78036 l -3.4299,-2.87711 c 2.09607,-5.60462 8.3303,-8.853678 13.87487,-9.056608 10.1286,-0.37071 15.32962,6.622138 16.72513,16.208718 z m -20.2656,72.94705 0,-3.99954 c 2.36982,-0.36647 3.57241,-1.95459 4.15893,-4.14751 l 16.10667,0 0,16.18938 -20.2656,-8.04233 z m 45.40224,-40.54705 16.2,0 0,32.4 -16.2,0 0,-32.4 z m 0,-16.2 16.2,0 0,2.67782 c 3.7339,-2.1535 7.94162,-2.53577 12.15,-2.74403 l 0,4.03553 c -6.87266,0.77051 -11.21989,5.56637 -12.23068,12.23068 l -16.11932,0 0,-16.2 z m 40.32493,24.25258 c -0.21307,-7.66348 -3.00874,-19.03479 -11.97493,-20.26374 l 0,-4.04865 c 15.36351,-0.18032 28.22726,5.70253 28.22726,20.64731 l 0.14189,28.0125 -16.18816,0 -0.20606,-24.34742 z m 16.37507,36.49742 4.05,0 0,4.05 -28.35,0 0,-4.05 8.1,0 0,-12.15 16.2,0 0,12.15 z m 0,12.14879 -16.2,8.10243 0,-16.20122 16.2,0 0,8.09879 z m -56.7,-89.09879 16.2,0 0,16.2 -16.2,0 0,-16.2 z m 28.35,-24.074997 0,3.767029 c -9.16061,1.29371 -12.141,12.301608 -12.15,20.307968 l -16.25242,0 c 1.03363,-14.593868 14.57189,-24.011467 28.40242,-24.074997 z m 15.97355,15.777307 c -4.01661,-1.52211 -4.51766,-5.25358 -2.29133,-8.534248 -4.27491,-2.0943 -8.90523,-3.41213 -13.68222,-3.41806 l 0,-4.116419 c 7.54413,0.21098 14.88186,2.694999 20.66565,7.569749 1.9889,1.6763 2.00078,5.080078 0.17679,7.087318 -1.05227,1.15798 -3.50824,1.92729 -4.86889,1.41166 z m -48.12346,74.92601 c -10.68121,5.14014 -16.63648,14.94579 -16.90009,26.52168 0.0246,12.29338 7.11842,22.37942 18.25456,27.03883 3.47949,1.09759 7.33542,1.47899 10.99544,1.26588 l 0,-4.62118 c -10.02881,-1.46815 -11.84469,-15.28312 -11.807,-23.68353 0.047,-10.4791 1.91239,-23.38465 14.70137,-23.84869 1.99502,-0.0724 2.46078,-0.0738 3.22831,-0.50514 1.69194,-0.97694 1.97732,-2.68099 1.97732,-4.44617 l -17.31462,0 c -0.65672,1.18183 -1.9756,1.70152 -3.13529,2.27832 z m 27.87346,38.86937 c -4.01662,1.52211 -4.51766,5.25359 -2.29133,8.53425 -4.27492,2.09431 -8.90523,3.41213 -13.68222,3.41806 l 0,4.11642 c 7.54413,-0.21097 14.88186,-2.695 20.66565,-7.56975 1.9889,-1.6763 2.00078,-5.08007 0.17678,-7.08731 -1.05226,-1.15798 -3.50823,-1.92729 -4.86888,-1.41167 z"
         id="path18081" />
      <path
         transform="translate(869.99999,200)"
         d="m -195.71428,53.076481 c 0,19.329966 -15.67003,35 -35,35 -19.32997,0 -35,-15.670034 -35,-35 0,-19.329966 15.67003,-35 35,-35 19.32997,0 35,15.670034 35,35 z"
         sodipodi:ry="35"
         sodipodi:rx="35"
         sodipodi:cy="53.076481"
         sodipodi:cx="-230.71428"
         id="path3269"
         style="fill:url(#radialGradient3945);fill-opacity:1;stroke:none"
         sodipodi:type="arc" />
    </g>
  </g>
</svg>
