<?xml version="1.0" encoding="UTF-8" standalone="no"?>
<!-- Created with Inkscape (http://www.inkscape.org/) -->

<svg
   xmlns:dc="http://purl.org/dc/elements/1.1/"
   xmlns:cc="http://creativecommons.org/ns#"
   xmlns:rdf="http://www.w3.org/1999/02/22-rdf-syntax-ns#"
   xmlns:svg="http://www.w3.org/2000/svg"
   xmlns="http://www.w3.org/2000/svg"
   xmlns:sodipodi="http://sodipodi.sourceforge.net/DTD/sodipodi-0.dtd"
   xmlns:inkscape="http://www.inkscape.org/namespaces/inkscape"
   width="744.09448819"
   height="1052.3622047"
   id="svg3028"
   version="1.1"
   inkscape:version="0.48.4 r9939"
   sodipodi:docname="New document 4">
  <defs
     id="defs3030" />
  <sodipodi:namedview
     id="base"
     pagecolor="#ffffff"
     bordercolor="#666666"
     borderopacity="1.0"
     inkscape:pageopacity="0.0"
     inkscape:pageshadow="2"
     inkscape:zoom="0.7"
     inkscape:cx="-143.4054"
     inkscape:cy="598.78183"
     inkscape:document-units="px"
     inkscape:current-layer="layer1"
     showgrid="false"
     inkscape:object-nodes="true"
     inkscape:window-width="1855"
     inkscape:window-height="1056"
     inkscape:window-x="65"
     inkscape:window-y="24"
     inkscape:window-maximized="1"
     inkscape:snap-global="false" />
  <metadata
     id="metadata3033">
    <rdf:RDF>
      <cc:Work
         rdf:about="">
        <dc:format>image/svg+xml</dc:format>
        <dc:type
           rdf:resource="http://purl.org/dc/dcmitype/StillImage" />
        <dc:title></dc:title>
      </cc:Work>
    </rdf:RDF>
  </metadata>
  <g
     inkscape:label="Layer 1"
     inkscape:groupmode="layer"
     id="layer1">
    <rect
       style="fill:#b96411;fill-opacity:1;stroke:none"
       id="rect3036-5-5"
       width="119.90933"
       height="159.29178"
       x="388.56769"
       y="344.43936"
       ry="1.982869"
       transform="matrix(0.95650529,0.29171498,-0.44235637,0.89683936,0,0)"
       inkscape:export-filename="/home/jouke/git/101AndroidApps/101AndroidApps/app/src/main/res/drawable-hdpi/app_003_icon.png"
       inkscape:export-xdpi="47.990002"
       inkscape:export-ydpi="47.990002" />
    <rect
       style="fill:#fdc855;fill-opacity:1;stroke:#c1a85b;stroke-width:1.02898097;stroke-miterlimit:4;stroke-opacity:1;stroke-dasharray:none"
       id="rect3036-5-0-1"
       width="119.90933"
       height="159.29178"
       x="386.92853"
       y="341.52121"
       ry="1.982869"
       transform="matrix(0.95650529,0.29171498,-0.44235637,0.89683936,0,0)"
       inkscape:export-filename="/home/jouke/git/101AndroidApps/101AndroidApps/app/src/main/res/drawable-hdpi/app_003_icon.png"
       inkscape:export-xdpi="47.990002"
       inkscape:export-ydpi="47.990002" />
    <rect
       style="fill:#fdc855;fill-opacity:1;stroke:#c1a85b;stroke-width:1.02898097;stroke-miterlimit:4;stroke-opacity:1;stroke-dasharray:none"
       id="rect3036-5-0-7"
       width="119.90933"
       height="159.29178"
       x="384.70544"
       y="339.52408"
       ry="1.982869"
       transform="matrix(0.95650529,0.29171498,-0.44235637,0.89683936,0,0)"
       inkscape:export-filename="/home/jouke/git/101AndroidApps/101AndroidApps/app/src/main/res/drawable-hdpi/app_003_icon.png"
       inkscape:export-xdpi="47.990002"
       inkscape:export-ydpi="47.990002" />
    <rect
       style="fill:#fdc855;fill-opacity:1;stroke:#c1a85b;stroke-width:1.02898097;stroke-miterlimit:4;stroke-opacity:1;stroke-dasharray:none"
       id="rect3036-5-0"
       width="119.90933"
       height="159.29178"
       x="382.63693"
       y="337.05829"
       ry="1.982869"
       transform="matrix(0.95650529,0.29171498,-0.44235637,0.89683936,0,0)"
       inkscape:export-filename="/home/jouke/git/101AndroidApps/101AndroidApps/app/src/main/res/drawable-hdpi/app_003_icon.png"
       inkscape:export-xdpi="47.990002"
       inkscape:export-ydpi="47.990002" />
    <rect
       style="fill:#b96411;fill-opacity:1;stroke:none"
       id="rect3036-5"
       width="119.90933"
       height="159.29178"
       x="380.65942"
       y="335.1907"
       ry="1.982869"
       transform="matrix(0.95650529,0.29171498,-0.44235637,0.89683936,0,0)"
       inkscape:export-filename="/home/jouke/git/101AndroidApps/101AndroidApps/app/src/main/res/drawable-hdpi/app_003_icon.png"
       inkscape:export-xdpi="47.990002"
       inkscape:export-ydpi="47.990002" />
    <path
       style="font-size:medium;font-style:normal;font-variant:normal;font-weight:normal;font-stretch:normal;text-indent:0;text-align:start;text-decoration:none;line-height:normal;letter-spacing:normal;word-spacing:normal;text-transform:none;direction:ltr;block-progression:tb;writing-mode:lr-tb;text-anchor:start;baseline-shift:baseline;color:#000000;fill:#f2f200;fill-opacity:1;fill-rule:nonzero;stroke:#c1a85b;stroke-width:2.04441071;stroke-miterlimit:4;stroke-opacity:1;stroke-dasharray:none;marker:none;visibility:visible;display:inline;overflow:visible;enable-background:accumulate;font-family:Sans;-inkscape-font-specification:Sans"
       d="m 257.12813,460.9189 -6.81772,7.4065 -23.70813,25.71648 -31.04422,-9.46787 -8.91728,-2.71959 4.70617,7.30904 16.36197,25.34565 -23.70812,25.71648 -6.81773,7.40649 9.72837,-2.87303 33.84685,-10.03295 16.36196,25.34564 4.72065,7.27969 1.31622,-9.08434 4.54353,-31.56132 33.81662,-10.04217 9.74284,-2.90238 -8.91728,-2.71959 -31.04421,-9.46786 4.54353,-31.56131 1.28598,-9.09356 z m -8.97215,18.26063 -2.96348,20.53199 -12.4842,-3.80743 15.44768,-16.72456 z m -46.42931,13.75717 20.19234,6.15826 -9.52692,10.36104 -10.66537,-16.51929 z m 26.32864,8.0297 16.23247,4.95058 -2.3477,16.53391 -17.73721,5.29152 -8.59144,-13.32123 12.44388,-13.45478 z m 22.36877,6.82203 20.19235,6.15826 -22.04135,6.54439 1.849,-12.70265 z m -39.48011,11.7244 6.57919,10.20951 -21.99665,6.52427 15.41746,-16.73378 z m 30.07691,9.17286 -2.96348,20.53199 -10.64966,-16.48074 13.61314,-4.05125 z"
       id="path3808-1"
       inkscape:connector-curvature="0"
       inkscape:export-filename="/home/jouke/git/101AndroidApps/101AndroidApps/app/src/main/res/drawable-hdpi/app_003_icon.png"
       inkscape:export-xdpi="47.990002"
       inkscape:export-ydpi="47.990002" />
    <path
       style="fill:#b96411;fill-opacity:1;stroke:none"
       d="m 146.06004,553.80431 2.60522,11.27882 2.79354,0.82932 -3.26437,-11.54421 z"
       id="path4123"
       inkscape:connector-curvature="0"
       sodipodi:nodetypes="ccccc"
       inkscape:export-filename="/home/jouke/git/101AndroidApps/101AndroidApps/app/src/main/res/drawable-hdpi/app_003_icon.png"
       inkscape:export-xdpi="47.990002"
       inkscape:export-ydpi="47.990002" />
    <text
       xml:space="preserve"
       style="font-size:91.99848175px;font-style:normal;font-weight:normal;line-height:125%;letter-spacing:0px;word-spacing:0px;fill:#f6ff00;fill-opacity:1;stroke:#f6d61d;stroke-width:1.02220535;stroke-opacity:1;font-family:Sans"
       x="551.83673"
       y="295.50732"
       id="text4125"
       sodipodi:linespacing="125%"
       transform="matrix(0.78916619,0.22898337,-0.71370214,1.0600734,0,0)"
       inkscape:export-filename="/home/jouke/git/101AndroidApps/101AndroidApps/app/src/main/res/drawable-hdpi/app_003_icon.png"
       inkscape:export-xdpi="47.990002"
       inkscape:export-ydpi="47.990002"><tspan
         sodipodi:role="line"
         id="tspan4127"
         x="551.83673"
         y="295.50732"
         style="font-size:20.44410706px;fill:#f6ff00;fill-opacity:1;stroke:#f6d61d;stroke-width:1.02220535;stroke-opacity:1">Beastiary</tspan></text>
    <rect
       style="fill:#b96411;fill-opacity:1;stroke:none"
       id="rect3036-5-5-8"
       width="120.05517"
       height="153.30609"
       x="621.62488"
       y="287.49008"
       ry="1.9083591"
       transform="matrix(0.96079569,0.27725735,-0.46225089,0.88674919,0,0)" />
    <rect
       style="fill:#fdc855;fill-opacity:1;stroke:#c1a85b;stroke-width:1.01007664;stroke-miterlimit:4;stroke-opacity:1;stroke-dasharray:none"
       id="rect3036-5-0-1-6"
       width="120.05517"
       height="153.30609"
       x="619.9837"
       y="284.68158"
       ry="1.9083591"
       transform="matrix(0.96079569,0.27725735,-0.46225089,0.88674919,0,0)" />
    <rect
       style="fill:#fdc855;fill-opacity:1;stroke:#c1a85b;stroke-width:1.01007664;stroke-miterlimit:4;stroke-opacity:1;stroke-dasharray:none"
       id="rect3036-5-0-7-9"
       width="120.05517"
       height="153.30609"
       x="617.75793"
       y="282.75952"
       ry="1.9083591"
       transform="matrix(0.96079569,0.27725735,-0.46225089,0.88674919,0,0)" />
    <rect
       style="fill:#fdc855;fill-opacity:1;stroke:#c1a85b;stroke-width:1.01007664;stroke-miterlimit:4;stroke-opacity:1;stroke-dasharray:none"
       id="rect3036-5-0-8"
       width="120.05517"
       height="153.30609"
       x="615.68689"
       y="280.38638"
       ry="1.9083591"
       transform="matrix(0.96079569,0.27725735,-0.46225089,0.88674919,0,0)" />
    <rect
       style="fill:#b96411;fill-opacity:1;stroke:none"
       id="rect3036-5-2"
       width="120.05517"
       height="153.30609"
       x="613.70697"
       y="278.58896"
       ry="1.9083591"
       transform="matrix(0.96079569,0.27725735,-0.46225089,0.88674919,0,0)" />
    <path
       style="font-size:medium;font-style:normal;font-variant:normal;font-weight:normal;font-stretch:normal;text-indent:0;text-align:start;text-decoration:none;line-height:normal;letter-spacing:normal;word-spacing:normal;text-transform:none;direction:ltr;block-progression:tb;writing-mode:lr-tb;text-anchor:start;baseline-shift:baseline;color:#000000;fill:#f2f200;fill-opacity:1;fill-rule:nonzero;stroke:#c1a85b;stroke-width:2;stroke-miterlimit:4;stroke-opacity:1;stroke-dasharray:none;marker:none;visibility:visible;display:inline;overflow:visible;enable-background:accumulate;font-family:Sans;-inkscape-font-specification:Sans"
       d="m 502.40389,464.07142 -6.85663,7.04799 -23.84343,24.47168 -31.2214,-9.00958 -8.96817,-2.58795 4.73303,6.95525 16.45535,24.11879 -23.84343,24.47167 -6.85663,7.04798 9.78389,-2.73396 34.04002,-9.54731 16.45534,24.11879 4.74759,6.92732 1.32373,-8.64462 4.56946,-30.03359 34.00962,-9.55607 9.79844,-2.76189 -8.96817,-2.58795 -31.22139,-9.00957 4.56946,-30.03359 1.29332,-8.65339 z m -9.02335,17.37673 -2.9804,19.53814 -12.55544,-3.62313 15.53584,-15.91501 z m -46.69429,13.09125 20.30758,5.86017 -9.58129,9.85952 -10.72624,-15.71968 z m 26.4789,7.64103 16.32511,4.71095 -2.3611,15.73357 -17.83844,5.03539 -8.64047,-12.67641 12.5149,-12.8035 z m 22.49643,6.49181 20.30759,5.86017 -22.16714,6.2276 1.85955,-12.08777 z m -39.70543,11.15687 6.61674,9.71532 -22.12219,6.20846 15.50545,-15.92378 z m 30.24857,8.72885 -2.9804,19.53814 -10.71044,-15.68299 13.69084,-3.85515 z"
       id="path3808-1-9"
       inkscape:connector-curvature="0" />
    <path
       style="fill:#b96411;fill-opacity:1;stroke:none"
       d="m 390.70192,552.46071 2.62009,10.73287 2.80948,0.78918 -3.283,-10.98541 z"
       id="path4123-6"
       inkscape:connector-curvature="0"
       sodipodi:nodetypes="ccccc" />
    <text
       xml:space="preserve"
       style="font-size:90px;font-style:normal;font-weight:normal;line-height:125%;letter-spacing:0px;word-spacing:0px;fill:#f60000;fill-opacity:1;stroke:#da331d;stroke-width:1;stroke-opacity:1;font-family:Sans"
       x="801.07983"
       y="264.21738"
       id="text4125-5"
       sodipodi:linespacing="125%"
       transform="matrix(0.81537561,0.20896828,-0.71409857,1.0434161,0,0)"><tspan
         sodipodi:role="line"
         id="tspan4127-9"
         x="801.07983"
         y="264.21738"
         style="font-size:20px;fill:#f60000;fill-opacity:1;stroke:#da331d;stroke-width:1;stroke-opacity:1">Grimmoire</tspan></text>
  </g>
</svg>
