<?xml version="1.0" encoding="UTF-8" standalone="no"?>
<!-- Created with Inkscape (http://www.inkscape.org/) -->

<svg
   xmlns:dc="http://purl.org/dc/elements/1.1/"
   xmlns:cc="http://creativecommons.org/ns#"
   xmlns:rdf="http://www.w3.org/1999/02/22-rdf-syntax-ns#"
   xmlns:svg="http://www.w3.org/2000/svg"
   xmlns="http://www.w3.org/2000/svg"
   xmlns:xlink="http://www.w3.org/1999/xlink"
   xmlns:sodipodi="http://sodipodi.sourceforge.net/DTD/sodipodi-0.dtd"
   xmlns:inkscape="http://www.inkscape.org/namespaces/inkscape"
   width="106.18925"
   height="72"
   id="svg4333"
   version="1.1"
   inkscape:version="0.48.4 r9939"
   sodipodi:docname="New document 24">
  <defs
     id="defs4335">
    <linearGradient
       inkscape:collect="always"
       xlink:href="#linearGradient18948"
       id="linearGradient4128"
       gradientUnits="userSpaceOnUse"
       gradientTransform="translate(183.27555,269.30419)"
       x1="70.729462"
       y1="364.77216"
       x2="255.66748"
       y2="364.77216" />
    <linearGradient
       id="linearGradient18948">
      <stop
         style="stop-color:#dbbbbb;stop-opacity:1;"
         offset="0"
         id="stop18950" />
      <stop
         style="stop-color:#bbbbdb;stop-opacity:0.9910714;"
         offset="1"
         id="stop18952" />
    </linearGradient>
    <radialGradient
       inkscape:collect="always"
       xlink:href="#linearGradient4080"
       id="radialGradient4130"
       gradientUnits="userSpaceOnUse"
       cx="-230.71428"
       cy="53.076481"
       fx="-230.71428"
       fy="53.076481"
       r="35" />
    <linearGradient
       id="linearGradient4080">
      <stop
         style="stop-color:#bebedd;stop-opacity:1;"
         offset="0"
         id="stop4082" />
      <stop
         style="stop-color:#d1bca3;stop-opacity:0;"
         offset="1"
         id="stop4084" />
    </linearGradient>
    <radialGradient
       r="35"
       fy="53.076481"
       fx="-230.71428"
       cy="53.076481"
       cx="-230.71428"
       gradientUnits="userSpaceOnUse"
       id="radialGradient4331"
       xlink:href="#linearGradient4080"
       inkscape:collect="always" />
  </defs>
  <sodipodi:namedview
     id="base"
     pagecolor="#ffffff"
     bordercolor="#666666"
     borderopacity="1.0"
     inkscape:pageopacity="0.0"
     inkscape:pageshadow="2"
     inkscape:zoom="0.35"
     inkscape:cx="199.5232"
     inkscape:cy="170.28571"
     inkscape:document-units="px"
     inkscape:current-layer="layer1"
     showgrid="false"
     fit-margin-top="0"
     fit-margin-left="0"
     fit-margin-right="0"
     fit-margin-bottom="0"
     inkscape:window-width="484"
     inkscape:window-height="413"
     inkscape:window-x="717"
     inkscape:window-y="305"
     inkscape:window-maximized="0" />
  <metadata
     id="metadata4338">
    <rdf:RDF>
      <cc:Work
         rdf:about="">
        <dc:format>image/svg+xml</dc:format>
        <dc:type
           rdf:resource="http://purl.org/dc/dcmitype/StillImage" />
        <dc:title></dc:title>
      </cc:Work>
    </rdf:RDF>
  </metadata>
  <g
     inkscape:label="Layer 1"
     inkscape:groupmode="layer"
     id="layer1"
     transform="translate(-175.4768,-859.21933)">
    <g
       id="g4112"
       inkscape:export-filename="C:\Users\jouke\Desktop\app_005_air.png"
       inkscape:export-xdpi="41"
       inkscape:export-ydpi="41"
       transform="matrix(0.39602488,0,0,0.44661219,74.884497,603.18042)">
      <path
         inkscape:export-ydpi="41.740002"
         inkscape:export-xdpi="41.740002"
         inkscape:export-filename="C:\Users\jouke\Desktop\app_005_air.png"
         inkscape:connector-curvature="0"
         style="fill:url(#linearGradient4128);fill-opacity:1;stroke:none"
         d="m 347.09792,623.20967 c -0.90344,-25.25372 -17.66,-48.38305 -44.4929,-49.91832 l 0,8.16876 c 16.95876,0.72971 23.50854,25.86744 24.23641,39.96679 l 0.0897,49.13321 20.24196,0 c -0.18507,-15.78247 0.0611,-31.56827 -0.0752,-47.35044 z m 4.1071,51.49377 c -2.36348,-0.3657 -3.55889,-1.95821 -4.14333,-4.14333 l -20.06334,0 c -0.3657,2.36348 -1.95821,3.5589 -4.14333,4.14333 l 0,3.95667 28.35,0 0,-3.95667 z m -24.3,-52.74333 -24.3,0 0,8.1 24.3,0 0,-8.1 z m -68.7929,1.24956 c 0.90344,-25.25372 17.65999,-48.38305 44.4929,-49.91832 l 0,8.16876 c -16.95877,0.72971 -23.50855,25.86744 -24.23641,39.96679 l -0.0897,49.13321 -20.24197,0 c 0.18507,-15.78247 -0.0611,-31.56827 0.0752,-47.35044 z m -4.10711,51.49377 c 2.36348,-0.3657 3.5589,-1.95821 4.14333,-4.14333 l 20.06334,0 c 0.36571,2.36348 1.95821,3.5589 4.14333,4.14333 l 0,3.95667 -28.35,0 0,-3.95667 z m 46.18126,-44.63839 2.41875,-0.005 0,-8.06424 -2.90941,-0.0741 c -3.10006,0.23495 -4.84279,-0.97673 -5.24985,-4.01163 l -3.99075,0 0,16.2 3.95667,0 c 0.55283,-3.22385 2.75255,-3.88187 5.77459,-4.04506 z m 72.02202,32.39506 -16.2,0 0,-32.4 16.2,0 0,32.4 z m -16.2,12.15 -4.05,0 0,4.05 28.35,0 0,-4.05 -8.1,0 0,-12.15 -16.2,0 0,12.15 z m 0,12.14878 16.2,8.10244 0,-16.20122 -16.2,0 0,8.09878 z m 16.10788,-89.22697 c -0.003,-4.27565 -3.58355,-7.84806 -8.05531,-7.85905 -4.49421,-0.011 -7.97672,3.58238 -7.98324,7.98257 -0.007,4.42265 3.38401,7.9779 8.03065,8.00025 4.66911,0.0225 8.0108,-3.84804 8.0079,-8.12377 z m 4.15771,24.38114 0,3.99954 c -2.36982,0.36647 -3.57241,1.95459 -4.15893,4.14751 l -16.10666,0 0,-16.18938 20.26559,8.04233 z m 12.13441,8.14705 16.2,0 0,32.4 -16.2,0 0,-32.4 z m 0,-7.82763 c -0.007,-2.53365 -1.7792,-3.75716 -4.05,-4.4157 l 0,-3.95667 20.25,0 0,2.67782 c 3.7339,-2.15351 7.94162,-2.53577 12.15,-2.74403 l 0,4.03553 c -6.87457,0.77201 -11.21957,5.56426 -12.23068,12.23068 l -16.11932,0 0,-7.82763 z m 44.32354,7.62994 c -4.01661,-1.52211 -4.51765,-5.25358 -2.29133,-8.53425 -4.27491,-2.0943 -8.90522,-3.41213 -13.68221,-3.41806 l 0,-4.11642 c 7.54413,0.21097 14.88185,2.695 20.66565,7.56975 1.9889,1.6763 2.00078,5.08007 0.17678,7.08732 -1.05227,1.15798 -3.50823,1.92729 -4.86889,1.41166 z m -24.05794,40.74474 0,-3.99955 c -2.36983,-0.36646 -3.57242,-1.95458 -4.15893,-4.1475 l -16.10667,0 0,16.18938 20.2656,-8.04233 z"
         id="path15838" />
      <path
         transform="translate(717.85713,646.42856)"
         d="m -195.71428,53.076481 c 0,19.329966 -15.67003,35 -35,35 -19.32997,0 -35,-15.670034 -35,-35 0,-19.329966 15.67003,-35 35,-35 19.32997,0 35,15.670034 35,35 z"
         sodipodi:ry="35"
         sodipodi:rx="35"
         sodipodi:cy="53.076481"
         sodipodi:cx="-230.71428"
         id="path3269-7"
         style="fill:url(#radialGradient4331);fill-opacity:1;stroke:none"
         sodipodi:type="arc" />
    </g>
  </g>
</svg>
