<?xml version="1.0" encoding="UTF-8" standalone="no"?>
<!-- Created with Inkscape (http://www.inkscape.org/) -->

<svg
   xmlns:osb="http://www.openswatchbook.org/uri/2009/osb"
   xmlns:dc="http://purl.org/dc/elements/1.1/"
   xmlns:cc="http://creativecommons.org/ns#"
   xmlns:rdf="http://www.w3.org/1999/02/22-rdf-syntax-ns#"
   xmlns:svg="http://www.w3.org/2000/svg"
   xmlns="http://www.w3.org/2000/svg"
   xmlns:xlink="http://www.w3.org/1999/xlink"
   xmlns:sodipodi="http://sodipodi.sourceforge.net/DTD/sodipodi-0.dtd"
   xmlns:inkscape="http://www.inkscape.org/namespaces/inkscape"
   width="48"
   height="48"
   id="svg6069"
   version="1.1"
   inkscape:version="0.48.4 r9939"
   sodipodi:docname="app_001_icon.svg">
  <defs
     id="defs6071">
    <linearGradient
       id="linearGradient8347">
      <stop
         style="stop-color:#ebedff;stop-opacity:1;"
         offset="0"
         id="stop8349" />
      <stop
         style="stop-color:#ffe8e8;stop-opacity:1;"
         offset="1"
         id="stop8351" />
    </linearGradient>
    <linearGradient
       id="linearGradient8335">
      <stop
         style="stop-color:#0000ff;stop-opacity:1;"
         offset="0"
         id="stop8337" />
      <stop
         style="stop-color:#00a81b;stop-opacity:1;"
         offset="1"
         id="stop8339" />
    </linearGradient>
    <linearGradient
       id="linearGradient8207"
       osb:paint="solid">
      <stop
         style="stop-color:#d1d1cd;stop-opacity:1;"
         offset="0"
         id="stop8209" />
    </linearGradient>
    <linearGradient
       id="linearGradient8201"
       osb:paint="solid">
      <stop
         style="stop-color:#d1d1cd;stop-opacity:1;"
         offset="0"
         id="stop8203" />
    </linearGradient>
    <linearGradient
       id="linearGradient8195"
       osb:paint="solid">
      <stop
         style="stop-color:#ad67d2;stop-opacity:1;"
         offset="0"
         id="stop8197" />
    </linearGradient>
    <linearGradient
       id="linearGradient6747">
      <stop
         style="stop-color:#f4e8cf;stop-opacity:1;"
         offset="0"
         id="stop6749" />
      <stop
         style="stop-color:#8dcdff;stop-opacity:1;"
         offset="1"
         id="stop6751" />
    </linearGradient>
    <linearGradient
       id="linearGradient6739">
      <stop
         style="stop-color:#6867d2;stop-opacity:1;"
         offset="0"
         id="stop6741" />
      <stop
         style="stop-color:#d87bd2;stop-opacity:1;"
         offset="1"
         id="stop6743" />
    </linearGradient>
    <linearGradient
       inkscape:collect="always"
       xlink:href="#linearGradient6747"
       id="linearGradient6753"
       x1="129.8423"
       y1="300.31827"
       x2="190.30128"
       y2="300.31827"
       gradientUnits="userSpaceOnUse" />
    <linearGradient
       inkscape:collect="always"
       xlink:href="#linearGradient6747"
       id="linearGradient8259"
       gradientUnits="userSpaceOnUse"
       x1="129.8423"
       y1="300.31827"
       x2="190.30128"
       y2="300.31827" />
    <linearGradient
       inkscape:collect="always"
       xlink:href="#linearGradient6747"
       id="linearGradient8261"
       gradientUnits="userSpaceOnUse"
       x1="129.8423"
       y1="300.31827"
       x2="190.30128"
       y2="300.31827" />
    <linearGradient
       inkscape:collect="always"
       xlink:href="#linearGradient6747"
       id="linearGradient8263"
       gradientUnits="userSpaceOnUse"
       x1="129.8423"
       y1="300.31827"
       x2="190.30128"
       y2="300.31827" />
    <linearGradient
       inkscape:collect="always"
       xlink:href="#linearGradient6747"
       id="linearGradient8265"
       gradientUnits="userSpaceOnUse"
       x1="129.8423"
       y1="300.31827"
       x2="190.30128"
       y2="300.31827" />
    <linearGradient
       inkscape:collect="always"
       xlink:href="#linearGradient6747"
       id="linearGradient8267"
       gradientUnits="userSpaceOnUse"
       x1="129.8423"
       y1="300.31827"
       x2="190.30128"
       y2="300.31827" />
    <linearGradient
       inkscape:collect="always"
       xlink:href="#linearGradient6747"
       id="linearGradient8269"
       gradientUnits="userSpaceOnUse"
       x1="129.8423"
       y1="300.31827"
       x2="190.30128"
       y2="300.31827" />
    <linearGradient
       inkscape:collect="always"
       xlink:href="#linearGradient6747"
       id="linearGradient8271"
       gradientUnits="userSpaceOnUse"
       x1="129.8423"
       y1="300.31827"
       x2="190.30128"
       y2="300.31827" />
    <linearGradient
       inkscape:collect="always"
       xlink:href="#linearGradient6747"
       id="linearGradient8295"
       gradientUnits="userSpaceOnUse"
       x1="129.8423"
       y1="300.31827"
       x2="190.30128"
       y2="300.31827" />
    <linearGradient
       inkscape:collect="always"
       xlink:href="#linearGradient6747"
       id="linearGradient8310"
       gradientUnits="userSpaceOnUse"
       x1="129.8423"
       y1="300.31827"
       x2="190.30128"
       y2="300.31827" />
    <linearGradient
       inkscape:collect="always"
       xlink:href="#linearGradient6747"
       id="linearGradient8316"
       gradientUnits="userSpaceOnUse"
       x1="129.8423"
       y1="300.31827"
       x2="190.30128"
       y2="300.31827"
       gradientTransform="translate(-161.09373,47.01351)" />
    <linearGradient
       inkscape:collect="always"
       xlink:href="#linearGradient6747"
       id="linearGradient8353"
       x1="60.351959"
       y1="313.03177"
       x2="72.627533"
       y2="331.59332"
       gradientUnits="userSpaceOnUse"
       gradientTransform="translate(-1.764802,0.17166381)" />
    <linearGradient
       inkscape:collect="always"
       xlink:href="#linearGradient6747-0"
       id="linearGradient8353-2"
       x1="60.351959"
       y1="313.03177"
       x2="72.627533"
       y2="331.59332"
       gradientUnits="userSpaceOnUse"
       gradientTransform="matrix(1.3964034,0,0,1.3964034,-70.822326,521.44382)" />
    <linearGradient
       id="linearGradient6747-0">
      <stop
         style="stop-color:#f4e8cf;stop-opacity:1;"
         offset="0"
         id="stop6749-4" />
      <stop
         style="stop-color:#8dcdff;stop-opacity:1;"
         offset="1"
         id="stop6751-3" />
    </linearGradient>
    <linearGradient
       inkscape:collect="always"
       xlink:href="#linearGradient6747-0"
       id="linearGradient3048"
       x1="60.351959"
       y1="313.03177"
       x2="72.627533"
       y2="331.59332"
       gradientUnits="userSpaceOnUse"
       gradientTransform="translate(-1.764802,0.17166381)" />
    <linearGradient
       id="linearGradient3050">
      <stop
         style="stop-color:#f4e8cf;stop-opacity:1;"
         offset="0"
         id="stop3052" />
      <stop
         style="stop-color:#8dcdff;stop-opacity:1;"
         offset="1"
         id="stop3054" />
    </linearGradient>
    <linearGradient
       id="linearGradient3057">
      <stop
         style="stop-color:#f4e8cf;stop-opacity:1;"
         offset="0"
         id="stop3059" />
      <stop
         style="stop-color:#8dcdff;stop-opacity:1;"
         offset="1"
         id="stop3061" />
    </linearGradient>
    <linearGradient
       id="linearGradient3064">
      <stop
         style="stop-color:#f4e8cf;stop-opacity:1;"
         offset="0"
         id="stop3066" />
      <stop
         style="stop-color:#8dcdff;stop-opacity:1;"
         offset="1"
         id="stop3068" />
    </linearGradient>
    <linearGradient
       id="linearGradient3071">
      <stop
         style="stop-color:#f4e8cf;stop-opacity:1;"
         offset="0"
         id="stop3073" />
      <stop
         style="stop-color:#8dcdff;stop-opacity:1;"
         offset="1"
         id="stop3075" />
    </linearGradient>
    <linearGradient
       id="linearGradient3078">
      <stop
         style="stop-color:#f4e8cf;stop-opacity:1;"
         offset="0"
         id="stop3080" />
      <stop
         style="stop-color:#8dcdff;stop-opacity:1;"
         offset="1"
         id="stop3082" />
    </linearGradient>
    <linearGradient
       id="linearGradient3085">
      <stop
         style="stop-color:#f4e8cf;stop-opacity:1;"
         offset="0"
         id="stop3087" />
      <stop
         style="stop-color:#8dcdff;stop-opacity:1;"
         offset="1"
         id="stop3089" />
    </linearGradient>
    <linearGradient
       id="linearGradient3092">
      <stop
         style="stop-color:#f4e8cf;stop-opacity:1;"
         offset="0"
         id="stop3094" />
      <stop
         style="stop-color:#8dcdff;stop-opacity:1;"
         offset="1"
         id="stop3096" />
    </linearGradient>
    <linearGradient
       id="linearGradient3099">
      <stop
         style="stop-color:#f4e8cf;stop-opacity:1;"
         offset="0"
         id="stop3101" />
      <stop
         style="stop-color:#8dcdff;stop-opacity:1;"
         offset="1"
         id="stop3103" />
    </linearGradient>
    <linearGradient
       id="linearGradient3106">
      <stop
         style="stop-color:#f4e8cf;stop-opacity:1;"
         offset="0"
         id="stop3108" />
      <stop
         style="stop-color:#8dcdff;stop-opacity:1;"
         offset="1"
         id="stop3110" />
    </linearGradient>
    <linearGradient
       id="linearGradient3113">
      <stop
         style="stop-color:#f4e8cf;stop-opacity:1;"
         offset="0"
         id="stop3115" />
      <stop
         style="stop-color:#8dcdff;stop-opacity:1;"
         offset="1"
         id="stop3117" />
    </linearGradient>
    <linearGradient
       inkscape:collect="always"
       xlink:href="#linearGradient8335-2"
       id="linearGradient8341-5"
       x1="56.390106"
       y1="315.15781"
       x2="116.87299"
       y2="377.02963"
       gradientUnits="userSpaceOnUse"
       gradientTransform="matrix(1.0185038,0,0,1.0185038,-2.2116514,-7.0056596)" />
    <linearGradient
       id="linearGradient8335-2">
      <stop
         style="stop-color:#0000ff;stop-opacity:1;"
         offset="0"
         id="stop8337-5" />
      <stop
         style="stop-color:#00a81b;stop-opacity:1;"
         offset="1"
         id="stop8339-5" />
    </linearGradient>
    <linearGradient
       inkscape:collect="always"
       xlink:href="#linearGradient6747-0"
       id="linearGradient3298"
       gradientUnits="userSpaceOnUse"
       gradientTransform="matrix(1.3964034,0,0,1.3964034,-70.822326,521.44382)"
       x1="60.351959"
       y1="313.03177"
       x2="72.627533"
       y2="331.59332" />
    <linearGradient
       inkscape:collect="always"
       xlink:href="#linearGradient6747-0"
       id="linearGradient3304"
       gradientUnits="userSpaceOnUse"
       gradientTransform="matrix(1.4534049,0,0,1.4534049,-79.475301,505.27284)"
       x1="60.351959"
       y1="313.03177"
       x2="72.627533"
       y2="331.59332" />
    <linearGradient
       inkscape:collect="always"
       xlink:href="#linearGradient8335-2"
       id="linearGradient3334"
       gradientUnits="userSpaceOnUse"
       gradientTransform="matrix(1.4802983,0,0,1.4802983,-76.932117,491.90933)"
       x1="56.390106"
       y1="315.15781"
       x2="116.87299"
       y2="377.02963" />
    <linearGradient
       inkscape:collect="always"
       xlink:href="#linearGradient8335-2"
       id="linearGradient3081"
       gradientUnits="userSpaceOnUse"
       gradientTransform="matrix(1.4802983,0,0,1.4802983,-76.932117,491.90933)"
       x1="56.390106"
       y1="315.15781"
       x2="116.87299"
       y2="377.02963" />
    <linearGradient
       inkscape:collect="always"
       xlink:href="#linearGradient8335-2"
       id="linearGradient3082"
       gradientUnits="userSpaceOnUse"
       gradientTransform="matrix(1.4426618,0,0,1.4426618,-73.704874,504.88757)"
       x1="56.390106"
       y1="315.15781"
       x2="116.87299"
       y2="377.02963" />
  </defs>
  <sodipodi:namedview
     id="base"
     pagecolor="#ffffff"
     bordercolor="#666666"
     borderopacity="1.0"
     inkscape:pageopacity="0.0"
     inkscape:pageshadow="2"
     inkscape:zoom="15.839192"
     inkscape:cx="16.561757"
     inkscape:cy="39.686126"
     inkscape:document-units="px"
     inkscape:current-layer="layer1"
     showgrid="true"
     showguides="true"
     inkscape:guide-bbox="true"
     inkscape:window-width="1920"
     inkscape:window-height="1024"
     inkscape:window-x="0"
     inkscape:window-y="0"
     inkscape:window-maximized="1"
     inkscape:object-paths="true"
     inkscape:snap-bbox="true" />
  <metadata
     id="metadata6074">
    <rdf:RDF>
      <cc:Work
         rdf:about="">
        <dc:format>image/svg+xml</dc:format>
        <dc:type
           rdf:resource="http://purl.org/dc/dcmitype/StillImage" />
        <dc:title />
      </cc:Work>
    </rdf:RDF>
  </metadata>
  <g
     inkscape:label="Layer 1"
     inkscape:groupmode="layer"
     id="layer1"
     transform="translate(0,-1004.3622)">
    <g
       id="g3068"
       transform="matrix(0.49252236,0,0,0.49252236,-0.62611782,534.67642)">
      <rect
         inkscape:export-ydpi="130.81"
         inkscape:export-xdpi="130.81"
         inkscape:export-filename="C:\Users\jouke\Desktop\app_001_icon.png"
         ry="9.2742529"
         y="953.63342"
         x="1.2712475"
         height="97.457504"
         width="97.457504"
         id="rect6591"
         style="fill:url(#linearGradient3082);fill-opacity:1;stroke:none" />
      <path
         inkscape:export-ydpi="130.81"
         inkscape:export-xdpi="130.81"
         inkscape:export-filename="C:\Users\jouke\Desktop\app_001_icon.png"
         inkscape:connector-curvature="0"
         d="m 23.572,1021.4181 -6.058646,0 0,4.1083 0.442641,0 c 0.682404,0 1.168843,0.1317 1.459328,0.3941 0.290485,0.2628 0.435715,0.6063 0.435729,1.0305 -1.4e-5,0.4151 -0.145244,0.7539 -0.435729,1.0168 -0.290485,0.2627 -0.776924,0.3942 -1.459328,0.3942 l -3.471966,0 c -0.682403,0 -1.168855,-0.1318 -1.459341,-0.3942 -0.290471,-0.2629 -0.435715,-0.6065 -0.435715,-1.0307 0,-0.5163 0.225924,-0.9174 0.677786,-1.2034 0.221321,-0.1474 0.691625,-0.2167 1.410929,-0.2073 l 0,-11.0939 c -0.497982,-0.047 -0.873768,-0.1983 -1.127355,-0.4566 -0.253601,-0.2582 -0.380402,-0.5808 -0.380402,-0.9682 0,-0.4242 0.145243,-0.7676 0.435729,-1.0305 0.290485,-0.2628 0.776924,-0.3943 1.459328,-0.3943 l 2.891007,0.015 c 0.682404,0 1.168843,0.1289 1.459328,0.3873 0.290485,0.2581 0.435715,0.5993 0.435729,1.0236 -1.4e-5,0.4243 -0.145244,0.7677 -0.435729,1.0305 -0.290485,0.2628 -0.776924,0.3941 -1.459328,0.3941 l -0.442641,0 0,4.1498 6.058646,0 0,-4.1498 -0.442641,0 c -0.682404,0 -1.168856,-0.1317 -1.459328,-0.3941 -0.290486,-0.2628 -0.435729,-0.6062 -0.435729,-1.0305 0,-0.4243 0.145243,-0.7677 0.435729,-1.0307 0.290472,-0.2627 0.776924,-0.3942 1.459328,-0.3942 l 2.891007,0.015 c 0.682391,0 1.168829,0.1289 1.459328,0.3872 0.290472,0.2583 0.435716,0.5995 0.43573,1.0237 -1.4e-5,0.3873 -0.126773,0.7101 -0.38039,0.9684 -0.253615,0.2582 -0.629399,0.4103 -1.127353,0.4565 l 0,11.0937 c 0.728495,0 1.198801,0.069 1.410914,0.2074 0.451848,0.2859 0.677772,0.6918 0.6778,1.2174 -2.8e-5,0.4149 -0.145257,0.7538 -0.435728,1.0166 -0.290501,0.2629 -0.776938,0.3944 -1.459329,0.3944 l -3.471979,0 c -0.682404,0 -1.168856,-0.1318 -1.459328,-0.3944 -0.290486,-0.2628 -0.435729,-0.6063 -0.435729,-1.0305 0,-0.4149 0.147538,-0.7538 0.442642,-1.0167 0.295089,-0.2627 0.779233,-0.3942 1.452415,-0.3942 l 0.442641,0 z"
         style="font-size:20px;font-style:normal;font-variant:normal;font-weight:bold;font-stretch:normal;line-height:125%;letter-spacing:0px;word-spacing:0px;fill:#ffffff;fill-opacity:1;stroke:none;font-family:Monospace;-inkscape-font-specification:Monospace Bold"
         id="path6594" />
      <path
         inkscape:export-ydpi="130.81"
         inkscape:export-xdpi="130.81"
         inkscape:export-filename="C:\Users\jouke\Desktop\app_001_icon.png"
         inkscape:connector-curvature="0"
         d="m 44.569798,1023.5205 -11.633165,0 c 0.295089,0.7378 0.818426,1.3326 1.569995,1.7845 0.751556,0.4518 1.768256,0.6777 3.050075,0.6777 1.051262,0 2.448352,-0.2259 4.191253,-0.6777 0.719289,-0.1845 1.217256,-0.2767 1.493919,-0.2767 0.378079,0 0.696228,0.1332 0.954447,0.4012 0.258191,0.2673 0.387301,0.604 0.387314,1.0098 -1.3e-5,0.3687 -0.138387,0.6825 -0.414978,0.9404 -0.368886,0.3413 -1.267993,0.6664 -2.697348,0.9753 -1.429371,0.3089 -2.803401,0.4634 -4.122089,0.4634 -2.268547,0 -4.082909,-0.6409 -5.443114,-1.9225 -1.36019,-1.282 -2.0403,-2.859 -2.0403,-4.7309 0,-1.9921 0.735436,-3.6128 2.206294,-4.8623 1.470858,-1.2496 3.165346,-1.8743 5.083463,-1.8743 1.152694,0 2.210883,0.203 3.174566,0.6086 0.963655,0.4059 1.680635,0.8438 2.150954,1.3142 0.663948,0.6823 1.212638,1.5261 1.646073,2.5312 0.295075,0.7009 0.442627,1.5126 0.442641,2.4347 z m -3.139977,-2.8356 c -0.433435,-0.8115 -1.000567,-1.4178 -1.701414,-1.8191 -0.70086,-0.4011 -1.53542,-0.6017 -2.503679,-0.6017 -0.959064,0 -1.78902,0.2006 -2.489866,0.6017 -0.700848,0.4013 -1.272599,1.0076 -1.715225,1.8191 z"
         style="font-size:20px;font-style:normal;font-variant:normal;font-weight:bold;font-stretch:normal;line-height:125%;letter-spacing:0px;word-spacing:0px;fill:#ffffff;fill-opacity:1;stroke:none;font-family:Monospace;-inkscape-font-specification:Monospace Bold"
         id="path6596" />
      <path
         inkscape:export-ydpi="130.81"
         inkscape:export-xdpi="130.81"
         inkscape:export-filename="C:\Users\jouke\Desktop\app_001_icon.png"
         inkscape:connector-curvature="0"
         d="m 55.85715,1010.4212 0,15.1052 3.402814,0 c 0.682389,0 1.168828,0.1317 1.459328,0.3941 0.290473,0.2628 0.435715,0.6063 0.435729,1.0305 -1.4e-5,0.4151 -0.145256,0.7539 -0.435729,1.0168 -0.2905,0.2627 -0.776939,0.3942 -1.459328,0.3942 l -9.641279,0 c -0.682418,0 -1.168857,-0.1318 -1.459342,-0.3942 -0.290486,-0.2629 -0.435729,-0.6065 -0.435729,-1.0307 0,-0.4149 0.145243,-0.7538 0.435729,-1.0166 0.290485,-0.2628 0.776924,-0.3941 1.459342,-0.3941 l 3.402799,0 0,-12.2697 -2.282371,0 c -0.673184,0 -1.157328,-0.1318 -1.452416,-0.3942 -0.295104,-0.2627 -0.442641,-0.6064 -0.442641,-1.0305 0,-0.4149 0.145242,-0.754 0.435728,-1.0167 0.290472,-0.2629 0.776925,-0.3941 1.459329,-0.3941 z"
         style="font-size:20px;font-style:normal;font-variant:normal;font-weight:bold;font-stretch:normal;line-height:125%;letter-spacing:0px;word-spacing:0px;fill:#ffffff;fill-opacity:1;stroke:none;font-family:Monospace;-inkscape-font-specification:Monospace Bold"
         id="path6598" />
      <path
         inkscape:export-ydpi="130.81"
         inkscape:export-xdpi="130.81"
         inkscape:export-filename="C:\Users\jouke\Desktop\app_001_icon.png"
         inkscape:connector-curvature="0"
         d="m 72.843527,1010.4212 0,15.1052 3.402799,0 c 0.68239,0 1.168842,0.1317 1.459343,0.3941 0.290457,0.2628 0.4357,0.6063 0.435715,1.0305 -1.5e-5,0.4151 -0.145258,0.7539 -0.435715,1.0168 -0.290501,0.2627 -0.776953,0.3942 -1.459343,0.3942 l -9.641293,0 c -0.682404,0 -1.168842,-0.1318 -1.459328,-0.3942 -0.290487,-0.2629 -0.435729,-0.6065 -0.435729,-1.0307 0,-0.4149 0.145242,-0.7538 0.435729,-1.0166 0.290486,-0.2628 0.776924,-0.3941 1.459328,-0.3941 l 3.402813,0 0,-12.2697 -2.282371,0 c -0.673183,0 -1.157326,-0.1318 -1.452416,-0.3942 -0.295104,-0.2627 -0.442642,-0.6064 -0.442642,-1.0305 0,-0.4149 0.145229,-0.754 0.43573,-1.0167 0.290472,-0.2629 0.77691,-0.3941 1.459328,-0.3941 z"
         style="font-size:20px;font-style:normal;font-variant:normal;font-weight:bold;font-stretch:normal;line-height:125%;letter-spacing:0px;word-spacing:0px;fill:#ffffff;fill-opacity:1;stroke:none;font-family:Monospace;-inkscape-font-specification:Monospace Bold"
         id="path6600" />
      <path
         inkscape:export-ydpi="130.81"
         inkscape:export-xdpi="130.81"
         inkscape:export-filename="C:\Users\jouke\Desktop\app_001_icon.png"
         inkscape:connector-curvature="0"
         d="m 95.777883,1022.3171 c -2.8e-5,1.0882 -0.302029,2.1418 -0.906034,3.1608 -0.604032,1.019 -1.503152,1.8305 -2.69735,2.4345 -1.194223,0.6041 -2.441452,0.906 -3.741699,0.906 -1.291039,0 -2.526753,-0.2973 -3.707125,-0.8922 -1.180371,-0.5947 -2.079492,-1.404 -2.697349,-2.4277 -0.617842,-1.0235 -0.92677,-2.0932 -0.92677,-3.2091 0,-1.1343 0.313532,-2.2477 0.940608,-3.3405 0.627079,-1.0928 1.528495,-1.9528 2.704264,-2.5799 1.175753,-0.6271 2.404554,-0.9406 3.686372,-0.9406 1.291025,0 2.53365,0.3206 3.727875,0.9613 1.194183,0.641 2.095612,1.5032 2.704248,2.5868 0.608621,1.0836 0.912932,2.1971 0.91296,3.3406 z m -2.835681,0.015 c -1.3e-5,-0.9129 -0.327384,-1.7521 -0.98211,-2.5174 -0.894504,-1.0329 -2.070272,-1.5494 -3.527292,-1.5494 -1.281818,0 -2.351537,0.4103 -3.209156,1.2311 -0.857619,0.8209 -1.286422,1.7707 -1.286422,2.8496 0,0.8854 0.43342,1.713 1.300261,2.483 0.866826,0.7699 1.931941,1.155 3.195317,1.155 1.272583,0 2.342302,-0.3851 3.209143,-1.155 0.866826,-0.77 1.300246,-1.6023 1.300259,-2.4969 z"
         style="font-size:20px;font-style:normal;font-variant:normal;font-weight:bold;font-stretch:normal;line-height:125%;letter-spacing:0px;word-spacing:0px;fill:#ffffff;fill-opacity:1;stroke:none;font-family:Monospace;-inkscape-font-specification:Monospace Bold"
         id="path6602" />
      <path
         inkscape:export-ydpi="130.81"
         inkscape:export-xdpi="130.81"
         inkscape:export-filename="C:\Users\jouke\Desktop\app_001_icon.png"
         d="m 72.036447,967.01094 -2.628184,8.05054 -3.181479,0 -1.687575,-13.92938 c -0.433421,-0.0553 -0.760777,-0.2051 -0.982098,-0.44958 -0.22132,-0.24434 -0.331988,-0.55554 -0.331988,-0.93359 0,-0.44264 0.145244,-0.79774 0.435729,-1.06517 0.290486,-0.26743 0.776924,-0.40114 1.459328,-0.40114 l 3.77629,0.0142 c 0.68239,0 1.168842,0.1289 1.459328,0.38726 0.290472,0.25823 0.435715,0.59944 0.43573,1.02368 -1.5e-5,0.42422 -0.145258,0.76772 -0.43573,1.03046 -0.290486,0.26289 -0.776938,0.39435 -1.459328,0.39435 l -1.480094,0 0.940624,7.92603 2.227031,-6.59811 2.946319,0 2.213207,6.59811 0.940609,-7.92603 -1.480078,0 c -0.68242,0 -1.168858,-0.13174 -1.459329,-0.39435 -0.2905,-0.26274 -0.435744,-0.60624 -0.43573,-1.03046 -1.4e-5,-0.42424 0.14523,-0.76773 0.43573,-1.03048 0.290471,-0.26289 0.776909,-0.39434 1.459329,-0.39434 l 3.76245,0.0142 c 0.68239,0 1.168842,0.12889 1.459341,0.38739 0.290459,0.25823 0.435702,0.59945 0.435715,1.02353 -1.3e-5,0.35964 -0.115298,0.66858 -0.345812,0.92679 -0.230555,0.25822 -0.562543,0.42422 -0.995936,0.49803 l -1.632247,13.92938 -3.126154,0 z"
         style="font-size:20px;font-style:normal;font-variant:normal;font-weight:bold;font-stretch:normal;line-height:125%;letter-spacing:0px;word-spacing:0px;fill:#ffffff;fill-opacity:1;stroke:none;font-family:Monospace;-inkscape-font-specification:Monospace Bold"
         id="path6604"
         inkscape:connector-curvature="0" />
      <path
         inkscape:export-ydpi="130.81"
         inkscape:export-xdpi="130.81"
         inkscape:export-filename="C:\Users\jouke\Desktop\app_001_icon.png"
         d="m 79.381515,984.75583 c -1.4e-5,1.08826 -0.302015,2.14181 -0.906019,3.16082 -0.604045,1.01898 -1.503152,1.83047 -2.69735,2.43445 -1.194224,0.60397 -2.441453,0.90611 -3.741699,0.90611 -1.291054,0 -2.526753,-0.29746 -3.707125,-0.89224 -1.180386,-0.59476 -2.079492,-1.40398 -2.697349,-2.42764 -0.617856,-1.02354 -0.926785,-2.09324 -0.926771,-3.20913 -1.4e-5,-1.13429 0.313532,-2.24776 0.940609,-3.34055 0.627064,-1.09279 1.528495,-1.95273 2.704262,-2.57978 1.175755,-0.62707 2.404542,-0.94067 3.686374,-0.94067 1.291025,0 2.533649,0.32054 3.727861,0.96134 1.194197,0.64095 2.095613,1.50328 2.704261,2.58673 0.608622,1.08358 0.912932,2.19706 0.912946,3.34056 z m -2.835666,0.0142 c -1.3e-5,-0.91291 -0.327384,-1.75215 -0.982111,-2.51747 -0.894518,-1.03288 -2.070272,-1.54932 -3.527291,-1.54932 -1.281832,0 -2.351537,0.41035 -3.209157,1.23119 -0.857619,0.82068 -1.286421,1.77056 -1.286421,2.84947 0,0.88528 0.433405,1.71292 1.30026,2.4829 0.866826,0.76998 1.931927,1.15498 3.195318,1.15498 1.272582,0 2.342287,-0.385 3.209142,-1.15498 0.866826,-0.76998 1.300247,-1.60229 1.30026,-2.49677 z"
         style="font-size:20px;font-style:normal;font-variant:normal;font-weight:bold;font-stretch:normal;line-height:125%;letter-spacing:0px;word-spacing:0px;fill:#ffffff;fill-opacity:1;stroke:none;font-family:Monospace;-inkscape-font-specification:Monospace Bold"
         id="path6606"
         inkscape:connector-curvature="0" />
      <path
         inkscape:export-ydpi="130.81"
         inkscape:export-xdpi="130.81"
         inkscape:export-filename="C:\Users\jouke\Desktop\app_001_icon.png"
         d="m 71.095838,995.05301 0,1.77056 c 1.189565,-0.85766 2.127879,-1.42934 2.814901,-1.71517 0.687007,-0.28599 1.330218,-0.4289 1.929647,-0.4289 0.922151,0 1.816655,0.34121 2.683511,1.02366 0.590163,0.46106 0.885268,0.93131 0.885282,1.41092 -1.4e-5,0.40568 -0.140654,0.74931 -0.42189,1.03048 -0.28128,0.2813 -0.62018,0.42196 -1.016701,0.42196 -0.35043,0 -0.719303,-0.17522 -1.106603,-0.52565 -0.387316,-0.35043 -0.733128,-0.52564 -1.037438,-0.52564 -0.39655,0 -0.989038,0.24901 -1.777478,0.74689 -0.788468,0.49802 -1.772887,1.24492 -2.953231,2.24098 l 0,4.2742 4.039083,0 c 0.68239,0 1.168842,0.1318 1.459329,0.3942 0.290471,0.2629 0.435714,0.6063 0.435728,1.0305 -1.4e-5,0.4151 -0.145257,0.7539 -0.435728,1.0168 -0.290487,0.2627 -0.776939,0.3942 -1.459329,0.3942 l -8.562324,0 c -0.68242,0 -1.168857,-0.1317 -1.459343,-0.3942 -0.290486,-0.2629 -0.435715,-0.6064 -0.435715,-1.0307 0,-0.4149 0.145229,-0.7537 0.435715,-1.0166 0.290486,-0.2628 0.776923,-0.3942 1.459343,-0.3942 l 1.68756,0 0,-6.88855 -1.023599,0 c -0.682418,0 -1.168856,-0.13173 -1.459343,-0.39434 -0.290485,-0.26277 -0.435714,-0.60624 -0.435714,-1.03048 0,-0.41501 0.145229,-0.75383 0.435714,-1.01672 0.290487,-0.26276 0.776925,-0.3942 1.459343,-0.3942 z"
         style="font-size:20px;font-style:normal;font-variant:normal;font-weight:bold;font-stretch:normal;line-height:125%;letter-spacing:0px;word-spacing:0px;fill:#ffffff;fill-opacity:1;stroke:none;font-family:Monospace;-inkscape-font-specification:Monospace Bold"
         id="path6608"
         inkscape:connector-curvature="0" />
      <path
         inkscape:export-ydpi="130.81"
         inkscape:export-xdpi="130.81"
         inkscape:export-filename="C:\Users\jouke\Desktop\app_001_icon.png"
         d="m 77.929114,1030.6298 0,15.1052 0.484129,0 c 0.67317,0 1.157312,0.1317 1.452416,0.3943 0.29509,0.2627 0.442627,0.6064 0.442642,1.0303 -1.5e-5,0.4151 -0.145258,0.754 -0.435716,1.0168 -0.2905,0.2628 -0.776952,0.3942 -1.459342,0.3942 l -3.31981,0 0,-0.6915 c -0.645519,0.3781 -1.321011,0.6639 -2.026461,0.8576 -0.705464,0.1935 -1.436283,0.2905 -2.192455,0.2905 -2.130217,0 -3.845455,-0.6156 -5.145701,-1.8466 -1.300261,-1.2311 -1.950399,-2.7643 -1.950399,-4.5994 0,-1.9181 0.682406,-3.5549 2.047227,-4.9105 1.364795,-1.3557 3.029309,-2.0335 4.993547,-2.0335 0.737715,0 1.461622,0.1134 2.171703,0.3389 0.710054,0.2261 1.4109,0.5648 2.102539,1.0167 l 0,-3.5272 -0.484128,0 c -0.682418,0 -1.168871,-0.1318 -1.459343,-0.3943 -0.290486,-0.2628 -0.435728,-0.6017 -0.435715,-1.0166 -1.3e-5,-0.4243 0.145229,-0.7678 0.435715,-1.0306 0.290472,-0.2629 0.776925,-0.3943 1.459343,-0.3943 z m -2.835681,12.0343 c 0,-1.1711 -0.410374,-2.1625 -1.231095,-2.974 -0.820735,-0.8115 -1.825905,-1.2172 -3.015485,-1.2172 -1.180386,0 -2.180939,0.4057 -3.00166,1.2172 -0.820734,0.8115 -1.231109,1.789 -1.231095,2.9325 -1.4e-5,1.0422 0.368859,1.8974 1.106603,2.5659 0.737731,0.6686 1.779772,1.0031 3.126152,1.0031 1.337131,0 2.379186,-0.3345 3.126152,-1.0031 0.746939,-0.6685 1.120428,-1.51 1.120428,-2.5244 z"
         style="font-size:20px;font-style:normal;font-variant:normal;font-weight:bold;font-stretch:normal;line-height:125%;letter-spacing:0px;word-spacing:0px;fill:#ffffff;fill-opacity:1;stroke:none;font-family:Monospace;-inkscape-font-specification:Monospace Bold"
         id="path6612"
         inkscape:connector-curvature="0" />
      <text
         inkscape:export-ydpi="130.81"
         inkscape:export-xdpi="130.81"
         inkscape:export-filename="C:\Users\jouke\Desktop\app_001_icon.png"
         sodipodi:linespacing="125%"
         id="text8343"
         y="987.94196"
         x="6.8631549"
         style="font-size:36.24533463px;font-style:normal;font-weight:normal;line-height:125%;letter-spacing:0px;word-spacing:0px;fill:#ffffff;fill-opacity:1;stroke:none;font-family:monospace;-inkscape-font-specification:monospace"
         xml:space="preserve"><tspan
           style="font-size:39.66065979px;font-weight:bold;fill:#ffffff;fill-opacity:1;stroke:none;font-family:Serif;-inkscape-font-specification:Serif Bold"
           y="987.94196"
           x="6.8631549"
           id="tspan8345"
           sodipodi:role="line">1</tspan></text>
    </g>
  </g>
</svg>
