<?xml version="1.0" encoding="UTF-8" standalone="no"?>
<!-- Created with Inkscape (http://www.inkscape.org/) -->

<svg
   xmlns:dc="http://purl.org/dc/elements/1.1/"
   xmlns:cc="http://creativecommons.org/ns#"
   xmlns:rdf="http://www.w3.org/1999/02/22-rdf-syntax-ns#"
   xmlns:svg="http://www.w3.org/2000/svg"
   xmlns="http://www.w3.org/2000/svg"
   xmlns:sodipodi="http://sodipodi.sourceforge.net/DTD/sodipodi-0.dtd"
   xmlns:inkscape="http://www.inkscape.org/namespaces/inkscape"
   width="744.09448819"
   height="1052.3622047"
   id="svg3850"
   version="1.1"
   inkscape:version="0.48.4 r9939"
   sodipodi:docname="app_009.svg">
  <defs
     id="defs3852" />
  <sodipodi:namedview
     id="base"
     pagecolor="#ffffff"
     bordercolor="#666666"
     borderopacity="1.0"
     inkscape:pageopacity="0.0"
     inkscape:pageshadow="2"
     inkscape:zoom="1.4142136"
     inkscape:cx="159.86244"
     inkscape:cy="825.02003"
     inkscape:document-units="px"
     inkscape:current-layer="layer1"
     showgrid="false"
     inkscape:window-width="1855"
     inkscape:window-height="1056"
     inkscape:window-x="65"
     inkscape:window-y="24"
     inkscape:window-maximized="1" />
  <metadata
     id="metadata3855">
    <rdf:RDF>
      <cc:Work
         rdf:about="">
        <dc:format>image/svg+xml</dc:format>
        <dc:type
           rdf:resource="http://purl.org/dc/dcmitype/StillImage" />
        <dc:title></dc:title>
      </cc:Work>
    </rdf:RDF>
  </metadata>
  <g
     inkscape:label="Layer 1"
     inkscape:groupmode="layer"
     id="layer1">
    <path
       inkscape:connector-curvature="0"
       class="fil0 str0"
       d="m 177.94953,210.31889 -24.90486,0 c -11.43029,13.14484 -23.84975,22.77267 -37.19242,28.8615 -4.19844,0.3517 -7.34177,0.52755 -9.34207,0.52755 -5.69317,0 -12.133697,-1.03312 -19.365557,-3.03342 l -5.978924,3.03342 -7.165916,0 c -16.354117,0 -24.553156,-5.86902 -24.553156,-17.54111 0,-0.68142 0.109907,-1.6486 0.32972,-3.03342 -12.001811,-0.96718 -18.046679,-6.70431 -18.046679,-17.14545 0,-1.12105 0.109906,-2.65974 0.32972,-4.66004 -4.440231,-1.25294 -7.803376,-3.25324 -10.067454,-6.04487 -2.286059,-2.72568 -3.429088,-6.26468 -3.429088,-10.4851 0,-3.40711 1.208973,-7.12195 3.648902,-10.99067 -5.978924,-6.44053 -8.990368,-13.60645 -8.990368,-21.51973 0,-9.12225 4.945801,-16.46402 14.859385,-22.04728 9.913584,-5.51732 23.014462,-8.30895 39.368579,-8.30895 l 4.154473,0 C 70.284936,107.90783 67.207549,98.214061 62.437598,88.871991 l -2.681723,-4.66004 c -5.759111,-11.01265 -8.660648,-19.54141 -8.660648,-25.52034 0,-16.57393 8.704611,-26.94912 26.201757,-31.059628 l 4.835894,-1.186992 8.37489,37.08252 30.883782,32.8621 c 2.11021,2.46191 5.73713,7.187899 10.99067,14.177959 l 4.66004,6.15478 c 5.01175,6.79223 8.55074,10.94671 10.59501,12.41946 2.06624,1.53869 5.36344,2.28605 9.91358,2.28605 l 19.54141,0 c 5.97892,12.74918 8.99037,25.916 8.99037,39.3466 0,13.10088 -2.72569,26.33365 -8.1331,39.54443 z m -5.5393,-8.66065 c 3.49504,-10.13339 5.1876,-19.82716 5.1876,-29.05933 0,-10.88076 -1.86841,-21.58567 -5.69317,-32.18068 -14.00211,0 -22.77266,-0.85727 -26.31166,-2.50587 -3.58296,-1.6486 -8.9464,-7.51762 -16.06836,-17.54111 -2.83559,-3.86871 -7.16591,-9.40801 -12.81512,-16.46402 L 83.166001,68.187551 76.505655,37.259811 c -11.16652,3.82475 -16.74978,10.94671 -16.74978,21.4318 0,5.40741 1.868414,11.32039 5.693167,17.65102 l 2.154171,3.69286 c 8.726592,14.48571 13.056915,28.268009 13.056915,41.412849 l 0.175851,4.68202 -6.044868,0 c -17.651015,0 -30.993688,1.75851 -39.874149,5.23156 -8.946405,3.539 -13.386636,8.8365 -13.386636,15.95845 0,6.44054 2.330022,11.89191 6.946103,16.33214 4.616082,4.46221 10.265286,6.68232 16.925632,6.68232 l 10.199341,0.10991 30.246322,-13.62843 c -4.572118,-6.88016 -10.704912,-10.35321 -18.39838,-10.35321 -2.000302,0 -4.572119,0.46161 -7.649506,1.2969 -3.121351,0.92322 -6.770253,2.28606 -11.034633,4.04457 l -7.869319,0.3517 -7.847338,-8.37489 13.540505,-0.17585 c 3.93466,-1.6486 7.473655,-2.90154 10.704912,-3.64891 3.209275,-0.79132 6.154775,-1.18699 8.836498,-1.18699 14.243908,0 24.663063,7.23186 31.2135,21.69558 l -5.693165,2.68173 c 7.012045,3.42909 12.419452,9.45197 16.222222,18.00271 l -6.55044,2.79163 c 5.14364,3.25324 9.86963,8.77056 14.19995,16.50799 l -10.30925,4.85788 c 5.62722,4.15447 10.19934,9.95754 13.67239,17.5411 l -20.508587,9.16622 c 3.297207,0.68142 6.154777,1.03313 8.484797,1.03313 l 6.4845,-0.17586 c 14.81542,-8.55074 26.83921,-18.96989 36.07137,-31.2135 l 22.99248,0 z M 96.310843,177.45679 c -3.868717,-5.1876 -8.528761,-8.55074 -14.002114,-9.97953 l -24.882876,11.16652 -8.836498,0 c -8.37489,0 -14.705516,-1.18699 -19.03584,-3.53899 -1.406806,2.0003 -2.154171,3.93466 -2.154171,5.69316 0,3.42909 1.714544,5.97893 5.077689,7.75942 3.407108,1.71454 8.484797,2.54983 15.255049,2.54983 l 17.71696,0 30.861801,-13.65041 z m 7.012047,19.51943 c -0.50557,-0.68142 -0.96718,-1.25294 -1.2969,-1.69257 -2.681727,-3.07738 -5.869017,-5.53929 -9.51792,-7.2978 l -25.586279,11.34237 -26.993084,-0.17585 -0.505571,2.15417 c 0,6.55044 6.484495,9.86962 19.541411,9.86962 l 12.529363,0 31.82898,-14.19994 z m 3.53899,22.50889 c -0.79133,-0.96718 -1.36284,-1.75851 -1.82445,-2.33002 -2.11021,-3.03343 -4.79193,-5.69317 -8.023187,-8.15508 l -23.871733,10.66095 -15.386937,0 0,1.01114 c 0,7.47366 5.40741,11.16652 16.24421,11.16652 l 5.451372,0 27.410725,-12.35351 z"
       id="path3065"
       style="fill-rule:evenodd;stroke:none;stroke-width:0.48847415999999999;stroke-miterlimit:4;stroke-opacity:1;stroke-dasharray:none;fill:#15cf16;fill-opacity:1" />
    <path
       style="fill:#cd1a1b;fill-opacity:1;fill-rule:evenodd;stroke:none"
       d="m 332.59984,90.144371 c -4.58169,-1.26353 -26.9956,0.843682 -28.71428,0.897323 l -7.59375,0 -7.15625,0 c -16.35411,0 -24.5625,6.869313 -24.5625,18.541406 0,0.68142 0.12393,1.64643 0.34375,3.03125 -12.00181,0.96718 -18.0625,5.70495 -18.0625,16.14609 0,1.12105 -1.02147,8.57419 -0.80165,10.57449 -4.44023,1.25295 -7.79842,3.23963 -10.0625,6.03125 -2.28605,2.72568 -3.18496,5.77451 -3.18496,9.99493 0,3.40711 -1.32329,12.68495 1.11664,16.55367 -3.47893,5.19053 -4.13896,4.94132 -5.03182,10.53317 -1.43834,9.00814 0.63763,14.08013 10.55122,19.66339 9.91358,5.51732 27.0615,8.43877 43.41561,8.43877 l 4.125,0 c -1.31888,10.02349 -4.63884,21.99327 -9.40879,31.33534 l -2.6875,4.65625 c -5.75912,11.01265 -8.65625,19.52107 -8.65625,25.5 0,16.57393 8.72161,26.95199 26.21875,31.0625 l 4.8125,1.1875 8.375,-37.0625 30.90625,-32.875 c 2.11021,-2.46191 5.71521,-7.19744 10.96875,-14.1875 l 4.65625,-6.15625 c 5.01175,-6.79223 8.58073,-10.9335 10.625,-12.40625 2.06624,-1.53869 5.35611,-2.28125 9.90625,-2.28125 l 19.53125,0 c 5.97892,-12.74918 9,-25.91315 9,-39.34375 0,-13.10088 -2.71759,-26.35173 -8.125,-39.56251 l -24.90625,0 C 346.14185,98.669124 337.46909,91.487204 332.59984,90.144371 z m -0.0134,9.705358 c 3.83327,0.425741 22.75444,16.979601 31.9866,29.223211 l 22.96875,0 c 3.49504,10.13339 5.1875,19.83034 5.1875,29.06251 0,10.88076 -1.86274,21.59249 -5.6875,32.1875 -14.00211,0 -22.7735,0.8514 -26.3125,2.5 -3.58296,1.6486 -8.94054,7.53901 -16.0625,17.5625 -2.83559,3.86871 -7.16329,9.38149 -12.8125,16.4375 l -33.5625,35.71875 -6.65625,30.9375 c -11.16652,-3.82475 -16.75,-10.95241 -16.75,-21.4375 0,-5.40741 1.894,-11.29437 5.71875,-17.625 l 2.125,-3.71875 c 8.7266,-14.48571 13.31504,-30.53425 13.31504,-43.67909 l 0.1875,-4.6875 -6.0625,0 c -17.65101,0 -30.99454,-1.7457 -39.875,-5.21875 -12.14749,-4.02823 -17.50889,-11.51972 -9.05479,-19.72522 13.42334,-5.29883 29.57851,-2.97878 43.97044,-3.11109 1.16009,-2.53233 0.57194,-4.35968 -0.17655,-7.42989 -16.31744,-0.20453 -37.197,1.59497 -42.36992,-1.09735 -3.55338,-4.27316 -1.96324,-11.42473 -1.26712,-13.03958 1.6415,-3.80789 1.69936,-2.81279 5.0625,-4.59328 3.40711,-1.71454 8.51594,-2.82106 15.28125,-2.5625 l 26.43132,1.01016 c 2.02716,-2.03317 1.37543,-5.70165 0.33232,-8.47129 0,0 -23.68621,0.39258 -32.42957,-1.32773 -1.95539,-0.38474 -1.3749,-7.6957 -1.3749,-7.6957 0.37881,-6.67671 6.35137,-8.77995 19.40498,-8.48604 l 16.8244,0.3788 c 2.019,-2.16476 2.86181,-5.51205 1.45606,-9.09628 -5.8713,-1.40754 -15.76015,1.4962 -20.00429,-1.2876 -3.07721,-6.81075 5.91828,-11.661327 16.75508,-11.661327 l 5.46875,0 c 15.35105,0.0083 21.7132,-0.553322 37.98215,0.933036 z"
       id="path3065-6"
       inkscape:connector-curvature="0"
       sodipodi:nodetypes="sccsscsccscscscccscccccccscsccscccsccccccsccccscccccscsccscscccscc" />
  </g>
</svg>
