<?xml version="1.0" encoding="UTF-8" standalone="no"?>
<!-- Created with Inkscape (http://www.inkscape.org/) -->

<svg
   xmlns:osb="http://www.openswatchbook.org/uri/2009/osb"
   xmlns:dc="http://purl.org/dc/elements/1.1/"
   xmlns:cc="http://creativecommons.org/ns#"
   xmlns:rdf="http://www.w3.org/1999/02/22-rdf-syntax-ns#"
   xmlns:svg="http://www.w3.org/2000/svg"
   xmlns="http://www.w3.org/2000/svg"
   xmlns:xlink="http://www.w3.org/1999/xlink"
   xmlns:sodipodi="http://sodipodi.sourceforge.net/DTD/sodipodi-0.dtd"
   xmlns:inkscape="http://www.inkscape.org/namespaces/inkscape"
   width="744.09448819"
   height="1052.3622047"
   id="svg6069"
   version="1.1"
   inkscape:version="0.48.4 r9939"
   sodipodi:docname="app_001.svg">
  <defs
     id="defs6071">
    <linearGradient
       id="linearGradient8347">
      <stop
         style="stop-color:#ebedff;stop-opacity:1;"
         offset="0"
         id="stop8349" />
      <stop
         style="stop-color:#ffe8e8;stop-opacity:1;"
         offset="1"
         id="stop8351" />
    </linearGradient>
    <linearGradient
       id="linearGradient8335">
      <stop
         style="stop-color:#0000ff;stop-opacity:1;"
         offset="0"
         id="stop8337" />
      <stop
         style="stop-color:#00a81b;stop-opacity:1;"
         offset="1"
         id="stop8339" />
    </linearGradient>
    <linearGradient
       id="linearGradient8207"
       osb:paint="solid">
      <stop
         style="stop-color:#d1d1cd;stop-opacity:1;"
         offset="0"
         id="stop8209" />
    </linearGradient>
    <linearGradient
       id="linearGradient8201"
       osb:paint="solid">
      <stop
         style="stop-color:#d1d1cd;stop-opacity:1;"
         offset="0"
         id="stop8203" />
    </linearGradient>
    <linearGradient
       id="linearGradient8195"
       osb:paint="solid">
      <stop
         style="stop-color:#ad67d2;stop-opacity:1;"
         offset="0"
         id="stop8197" />
    </linearGradient>
    <linearGradient
       id="linearGradient6747">
      <stop
         style="stop-color:#f4e8cf;stop-opacity:1;"
         offset="0"
         id="stop6749" />
      <stop
         style="stop-color:#8dcdff;stop-opacity:1;"
         offset="1"
         id="stop6751" />
    </linearGradient>
    <linearGradient
       id="linearGradient6739">
      <stop
         style="stop-color:#6867d2;stop-opacity:1;"
         offset="0"
         id="stop6741" />
      <stop
         style="stop-color:#d87bd2;stop-opacity:1;"
         offset="1"
         id="stop6743" />
    </linearGradient>
    <linearGradient
       inkscape:collect="always"
       xlink:href="#linearGradient6747"
       id="linearGradient6753"
       x1="129.8423"
       y1="300.31827"
       x2="190.30128"
       y2="300.31827"
       gradientUnits="userSpaceOnUse" />
    <linearGradient
       inkscape:collect="always"
       xlink:href="#linearGradient6747"
       id="linearGradient8259"
       gradientUnits="userSpaceOnUse"
       x1="129.8423"
       y1="300.31827"
       x2="190.30128"
       y2="300.31827" />
    <linearGradient
       inkscape:collect="always"
       xlink:href="#linearGradient6747"
       id="linearGradient8261"
       gradientUnits="userSpaceOnUse"
       x1="129.8423"
       y1="300.31827"
       x2="190.30128"
       y2="300.31827" />
    <linearGradient
       inkscape:collect="always"
       xlink:href="#linearGradient6747"
       id="linearGradient8263"
       gradientUnits="userSpaceOnUse"
       x1="129.8423"
       y1="300.31827"
       x2="190.30128"
       y2="300.31827" />
    <linearGradient
       inkscape:collect="always"
       xlink:href="#linearGradient6747"
       id="linearGradient8265"
       gradientUnits="userSpaceOnUse"
       x1="129.8423"
       y1="300.31827"
       x2="190.30128"
       y2="300.31827" />
    <linearGradient
       inkscape:collect="always"
       xlink:href="#linearGradient6747"
       id="linearGradient8267"
       gradientUnits="userSpaceOnUse"
       x1="129.8423"
       y1="300.31827"
       x2="190.30128"
       y2="300.31827" />
    <linearGradient
       inkscape:collect="always"
       xlink:href="#linearGradient6747"
       id="linearGradient8269"
       gradientUnits="userSpaceOnUse"
       x1="129.8423"
       y1="300.31827"
       x2="190.30128"
       y2="300.31827" />
    <linearGradient
       inkscape:collect="always"
       xlink:href="#linearGradient6747"
       id="linearGradient8271"
       gradientUnits="userSpaceOnUse"
       x1="129.8423"
       y1="300.31827"
       x2="190.30128"
       y2="300.31827" />
    <linearGradient
       inkscape:collect="always"
       xlink:href="#linearGradient6747"
       id="linearGradient8285"
       gradientUnits="userSpaceOnUse"
       x1="129.8423"
       y1="300.31827"
       x2="190.30128"
       y2="300.31827"
       gradientTransform="translate(-71.785714,68.571429)" />
    <linearGradient
       inkscape:collect="always"
       xlink:href="#linearGradient6747"
       id="linearGradient8295"
       gradientUnits="userSpaceOnUse"
       x1="129.8423"
       y1="300.31827"
       x2="190.30128"
       y2="300.31827" />
    <linearGradient
       inkscape:collect="always"
       xlink:href="#linearGradient6747"
       id="linearGradient8298"
       gradientUnits="userSpaceOnUse"
       x1="129.8423"
       y1="300.31827"
       x2="190.30128"
       y2="300.31827"
       gradientTransform="translate(-71.785714,68.571429)" />
    <linearGradient
       inkscape:collect="always"
       xlink:href="#linearGradient6747"
       id="linearGradient8301"
       gradientUnits="userSpaceOnUse"
       x1="129.8423"
       y1="300.31827"
       x2="190.30128"
       y2="300.31827"
       gradientTransform="translate(-71.785714,68.571429)" />
    <linearGradient
       inkscape:collect="always"
       xlink:href="#linearGradient6747"
       id="linearGradient8304"
       gradientUnits="userSpaceOnUse"
       x1="129.8423"
       y1="300.31827"
       x2="190.30128"
       y2="300.31827"
       gradientTransform="translate(-71.785714,68.571429)" />
    <linearGradient
       inkscape:collect="always"
       xlink:href="#linearGradient6747"
       id="linearGradient8307"
       gradientUnits="userSpaceOnUse"
       x1="129.8423"
       y1="300.31827"
       x2="190.30128"
       y2="300.31827"
       gradientTransform="translate(-71.785714,68.571429)" />
    <linearGradient
       inkscape:collect="always"
       xlink:href="#linearGradient6747"
       id="linearGradient8310"
       gradientUnits="userSpaceOnUse"
       x1="129.8423"
       y1="300.31827"
       x2="190.30128"
       y2="300.31827" />
    <linearGradient
       inkscape:collect="always"
       xlink:href="#linearGradient6747"
       id="linearGradient8313"
       gradientUnits="userSpaceOnUse"
       x1="129.8423"
       y1="300.31827"
       x2="190.30128"
       y2="300.31827"
       gradientTransform="translate(-83.781277,57.838559)" />
    <linearGradient
       inkscape:collect="always"
       xlink:href="#linearGradient6747"
       id="linearGradient8316"
       gradientUnits="userSpaceOnUse"
       x1="129.8423"
       y1="300.31827"
       x2="190.30128"
       y2="300.31827"
       gradientTransform="translate(-161.09373,47.01351)" />
    <linearGradient
       inkscape:collect="always"
       xlink:href="#linearGradient6747"
       id="linearGradient8319"
       gradientUnits="userSpaceOnUse"
       x1="129.8423"
       y1="300.31827"
       x2="190.30128"
       y2="300.31827"
       gradientTransform="translate(-59.61136,28.922942)" />
    <linearGradient
       inkscape:collect="always"
       xlink:href="#linearGradient6747"
       id="linearGradient8322"
       gradientUnits="userSpaceOnUse"
       x1="129.8423"
       y1="300.31827"
       x2="190.30128"
       y2="300.31827"
       gradientTransform="translate(-47.384797,17.05365)" />
    <linearGradient
       inkscape:collect="always"
       xlink:href="#linearGradient6747"
       id="linearGradient8325"
       gradientUnits="userSpaceOnUse"
       x1="129.8423"
       y1="300.31827"
       x2="190.30128"
       y2="300.31827"
       gradientTransform="translate(-35.38284,5.9419715)" />
    <linearGradient
       inkscape:collect="always"
       xlink:href="#linearGradient8335"
       id="linearGradient8341"
       x1="56.390106"
       y1="315.15781"
       x2="116.87299"
       y2="377.02963"
       gradientUnits="userSpaceOnUse"
       gradientTransform="matrix(1.0185038,0,0,1.0185038,-2.2116514,-7.0056596)" />
    <linearGradient
       inkscape:collect="always"
       xlink:href="#linearGradient6747"
       id="linearGradient8353"
       x1="60.351959"
       y1="313.03177"
       x2="72.627533"
       y2="331.59332"
       gradientUnits="userSpaceOnUse"
       gradientTransform="translate(-1.764802,0.17166381)" />
  </defs>
  <sodipodi:namedview
     id="base"
     pagecolor="#ffffff"
     bordercolor="#666666"
     borderopacity="1.0"
     inkscape:pageopacity="0.0"
     inkscape:pageshadow="2"
     inkscape:zoom="2.8"
     inkscape:cx="90.139715"
     inkscape:cy="693.02365"
     inkscape:document-units="px"
     inkscape:current-layer="layer1"
     showgrid="false"
     showguides="true"
     inkscape:guide-bbox="true"
     inkscape:window-width="1920"
     inkscape:window-height="1017"
     inkscape:window-x="-8"
     inkscape:window-y="-8"
     inkscape:window-maximized="1" />
  <metadata
     id="metadata6074">
    <rdf:RDF>
      <cc:Work
         rdf:about="">
        <dc:format>image/svg+xml</dc:format>
        <dc:type
           rdf:resource="http://purl.org/dc/dcmitype/StillImage" />
        <dc:title></dc:title>
      </cc:Work>
    </rdf:RDF>
  </metadata>
  <g
     inkscape:label="Layer 1"
     inkscape:groupmode="layer"
     id="layer1">
    <rect
       style="fill:url(#linearGradient8341);fill-opacity:1;stroke:none"
       id="rect6591"
       width="68.803955"
       height="68.803955"
       x="50.720688"
       y="309.80405"
       ry="6.5475235"
       inkscape:export-filename="C:\Users\jouke\Desktop\app_001_icon.png"
       inkscape:export-xdpi="130.81"
       inkscape:export-ydpi="130.81" />
    <path
       id="path6594"
       style="font-size:20px;font-style:normal;font-variant:normal;font-weight:bold;font-stretch:normal;line-height:125%;letter-spacing:0px;word-spacing:0px;fill:url(#linearGradient8285);fill-opacity:1;stroke:none;font-family:Monospace;-inkscape-font-specification:Monospace Bold"
       d="m 66.464786,357.65923 -4.27734,0 0,2.90039 0.3125,0 c 0.48177,0 0.82519,0.0928 1.03027,0.27832 0.20508,0.18555 0.30761,0.42806 0.30762,0.72754 -1e-5,0.29297 -0.10254,0.53223 -0.30762,0.71777 -0.20508,0.18555 -0.5485,0.27832 -1.03027,0.27832 l -2.45117,0 c -0.48177,0 -0.8252,-0.0928 -1.03028,-0.27832 -0.20507,-0.18554 -0.30761,-0.42806 -0.30761,-0.72754 0,-0.36458 0.1595,-0.64778 0.47851,-0.84961 0.15625,-0.10416 0.48828,-0.15299 0.9961,-0.14648 l 0,-7.83203 c -0.35157,-0.0325 -0.61687,-0.13997 -0.7959,-0.32227 -0.17904,-0.18228 -0.26856,-0.41014 -0.26856,-0.68359 0,-0.29947 0.10254,-0.54198 0.30762,-0.72754 0.20508,-0.18554 0.5485,-0.27831 1.03027,-0.27832 l 2.04102,0.01 c 0.48177,1e-5 0.82519,0.0912 1.03027,0.27343 0.20508,0.18231 0.30761,0.42319 0.30762,0.72266 -1e-5,0.29949 -0.10254,0.542 -0.30762,0.72754 -0.20508,0.18555 -0.5485,0.27833 -1.03027,0.27832 l -0.3125,0 0,2.92969 4.27734,0 0,-2.92969 -0.3125,0 c -0.48177,10e-6 -0.8252,-0.0928 -1.03027,-0.27832 -0.20508,-0.18554 -0.30762,-0.42805 -0.30762,-0.72754 0,-0.29947 0.10254,-0.54198 0.30762,-0.72754 0.20507,-0.18554 0.5485,-0.27831 1.03027,-0.27832 l 2.04102,0.01 c 0.48176,1e-5 0.82518,0.0912 1.03027,0.27343 0.20507,0.18231 0.30761,0.42319 0.30762,0.72266 -10e-6,0.27345 -0.0895,0.50131 -0.26855,0.68359 -0.17905,0.1823 -0.44435,0.28973 -0.7959,0.32227 l 0,7.83203 c 0.51431,0 0.84634,0.0488 0.99609,0.14648 0.319,0.20183 0.4785,0.48829 0.47852,0.85938 -2e-5,0.29297 -0.10255,0.53223 -0.30762,0.71777 -0.20509,0.18555 -0.54851,0.27832 -1.03027,0.27832 l -2.45118,0 c -0.48177,0 -0.8252,-0.0928 -1.03027,-0.27832 -0.20508,-0.18554 -0.30762,-0.42806 -0.30762,-0.72754 0,-0.29296 0.10416,-0.53222 0.3125,-0.71777 0.20833,-0.18554 0.55013,-0.27832 1.02539,-0.27832 l 0.3125,0 z"
       inkscape:connector-curvature="0"
       inkscape:export-filename="C:\Users\jouke\Desktop\app_001_icon.png"
       inkscape:export-xdpi="130.81"
       inkscape:export-ydpi="130.81" />
    <path
       id="path6596"
       style="font-size:20px;font-style:normal;font-variant:normal;font-weight:bold;font-stretch:normal;line-height:125%;letter-spacing:0px;word-spacing:0px;fill:url(#linearGradient8307);fill-opacity:1;stroke:none;font-family:Monospace;-inkscape-font-specification:Monospace Bold"
       d="m 81.289006,359.1436 -8.21289,0 c 0.20833,0.52084 0.5778,0.94076 1.1084,1.25977 0.53059,0.31901 1.24837,0.47852 2.15332,0.47852 0.74218,0 1.72851,-0.15951 2.95898,-0.47852 0.50781,-0.13021 0.85937,-0.19531 1.05469,-0.19531 0.26692,0 0.49153,0.0944 0.67383,0.2832 0.18228,0.1888 0.27343,0.42643 0.27344,0.71289 -1e-5,0.26042 -0.0977,0.48177 -0.29297,0.66406 -0.26043,0.24089 -0.89519,0.47038 -1.9043,0.68848 -1.00912,0.2181 -1.97917,0.32715 -2.91015,0.32715 -1.60157,0 -2.88249,-0.45248 -3.84278,-1.35742 -0.96028,-0.90495 -1.44043,-2.01823 -1.44043,-3.33985 0,-1.40624 0.51921,-2.55045 1.55762,-3.43261 1.03841,-0.88216 2.2347,-1.32324 3.58887,-1.32325 0.81379,1e-5 1.56086,0.14324 2.24121,0.42969 0.68033,0.28647 1.18651,0.59571 1.51855,0.92774 0.46874,0.48177 0.85611,1.07748 1.16211,1.7871 0.20832,0.4948 0.31249,1.06772 0.3125,1.71875 z m -2.21679,-2.00195 c -0.306,-0.57291 -0.70639,-1.00097 -1.20118,-1.28418 -0.4948,-0.28319 -1.08399,-0.4248 -1.76757,-0.4248 -0.67709,0 -1.26303,0.14161 -1.75782,0.4248 -0.49479,0.28321 -0.89844,0.71127 -1.21093,1.28418 z"
       inkscape:connector-curvature="0"
       inkscape:export-filename="C:\Users\jouke\Desktop\app_001_icon.png"
       inkscape:export-xdpi="130.81"
       inkscape:export-ydpi="130.81" />
    <path
       id="path6598"
       style="font-size:20px;font-style:normal;font-variant:normal;font-weight:bold;font-stretch:normal;line-height:125%;letter-spacing:0px;word-spacing:0px;fill:url(#linearGradient8304);fill-opacity:1;stroke:none;font-family:Monospace;-inkscape-font-specification:Monospace Bold"
       d="m 89.257756,349.89556 0,10.66406 2.40235,0 c 0.48176,0 0.82518,0.0928 1.03027,0.27832 0.20507,0.18555 0.30761,0.42806 0.30762,0.72754 -1e-5,0.29297 -0.10255,0.53223 -0.30762,0.71777 -0.20509,0.18555 -0.54851,0.27832 -1.03027,0.27832 l -6.80664,0 c -0.48178,0 -0.8252,-0.0928 -1.03028,-0.27832 -0.20508,-0.18554 -0.30762,-0.42806 -0.30762,-0.72754 0,-0.29296 0.10254,-0.53222 0.30762,-0.71777 0.20508,-0.18554 0.5485,-0.27832 1.03028,-0.27832 l 2.40234,0 0,-8.66211 -1.61133,0 c -0.47526,10e-6 -0.81706,-0.0928 -1.02539,-0.27832 -0.20834,-0.18554 -0.3125,-0.42805 -0.3125,-0.72754 0,-0.29296 0.10254,-0.53221 0.30762,-0.71777 0.20507,-0.18554 0.5485,-0.27831 1.03027,-0.27832 z"
       inkscape:connector-curvature="0"
       inkscape:export-filename="C:\Users\jouke\Desktop\app_001_icon.png"
       inkscape:export-xdpi="130.81"
       inkscape:export-ydpi="130.81" />
    <path
       id="path6600"
       style="font-size:20px;font-style:normal;font-variant:normal;font-weight:bold;font-stretch:normal;line-height:125%;letter-spacing:0px;word-spacing:0px;fill:url(#linearGradient8301);fill-opacity:1;stroke:none;font-family:Monospace;-inkscape-font-specification:Monospace Bold"
       d="m 101.24995,349.89556 0,10.66406 2.40234,0 c 0.48176,0 0.82519,0.0928 1.03028,0.27832 0.20506,0.18555 0.3076,0.42806 0.30761,0.72754 -10e-6,0.29297 -0.10255,0.53223 -0.30761,0.71777 -0.20509,0.18555 -0.54852,0.27832 -1.03028,0.27832 l -6.806644,0 c -0.48177,0 -0.82519,-0.0928 -1.03027,-0.27832 -0.20508,-0.18554 -0.30762,-0.42806 -0.30762,-0.72754 0,-0.29296 0.10254,-0.53222 0.30762,-0.71777 0.20508,-0.18554 0.5485,-0.27832 1.03027,-0.27832 l 2.40235,0 0,-8.66211 -1.61133,0 c -0.47526,10e-6 -0.81706,-0.0928 -1.02539,-0.27832 -0.20834,-0.18554 -0.3125,-0.42805 -0.3125,-0.72754 0,-0.29296 0.10253,-0.53221 0.30762,-0.71777 0.20507,-0.18554 0.54849,-0.27831 1.03027,-0.27832 z"
       inkscape:connector-curvature="0"
       inkscape:export-filename="C:\Users\jouke\Desktop\app_001_icon.png"
       inkscape:export-xdpi="130.81"
       inkscape:export-ydpi="130.81" />
    <path
       id="path6602"
       style="font-size:20px;font-style:normal;font-variant:normal;font-weight:bold;font-stretch:normal;line-height:125%;letter-spacing:0px;word-spacing:0px;fill:url(#linearGradient8298);fill-opacity:1;stroke:none;font-family:Monospace;-inkscape-font-specification:Monospace Bold"
       d="m 117.44136,358.29399 c -2e-5,0.76824 -0.21323,1.51205 -0.63965,2.23145 -0.42644,0.7194 -1.06121,1.29232 -1.9043,1.71875 -0.84311,0.42643 -1.72364,0.63965 -2.6416,0.63965 -0.91146,0 -1.78386,-0.20996 -2.61719,-0.62988 -0.83333,-0.41993 -1.4681,-0.99121 -1.9043,-1.71387 -0.43619,-0.72266 -0.65429,-1.47786 -0.65429,-2.26563 0,-0.80077 0.22135,-1.5869 0.66406,-2.35839 0.44271,-0.77148 1.0791,-1.37858 1.90918,-1.82129 0.83007,-0.4427 1.69759,-0.66406 2.60254,-0.66407 0.91145,1e-5 1.78873,0.22625 2.63184,0.67871 0.84308,0.45249 1.47948,1.06121 1.90917,1.82618 0.42968,0.76498 0.64452,1.55111 0.64454,2.35839 z m -2.00196,0.01 c -1e-5,-0.64453 -0.23113,-1.23697 -0.69336,-1.77734 -0.63151,-0.72916 -1.46159,-1.09375 -2.49023,-1.09375 -0.90495,0 -1.66016,0.28972 -2.26563,0.86914 -0.60547,0.57943 -0.9082,1.25 -0.9082,2.01172 0,0.625 0.30599,1.20931 0.91797,1.75293 0.61197,0.54362 1.36393,0.81543 2.25586,0.81543 0.89843,0 1.65364,-0.27181 2.26562,-0.81543 0.61197,-0.54362 0.91796,-1.13119 0.91797,-1.7627 z"
       inkscape:connector-curvature="0"
       inkscape:export-filename="C:\Users\jouke\Desktop\app_001_icon.png"
       inkscape:export-xdpi="130.81"
       inkscape:export-ydpi="130.81" />
    <path
       inkscape:connector-curvature="0"
       id="path6604"
       style="font-size:20px;font-style:normal;font-variant:normal;font-weight:bold;font-stretch:normal;line-height:125%;letter-spacing:0px;word-spacing:0px;fill:url(#linearGradient8325);fill-opacity:1;stroke:none;font-family:Monospace;-inkscape-font-specification:Monospace Bold"
       d="m 100.68016,319.24851 -1.85547,5.68359 -2.24609,0 -1.19141,-9.83398 c -0.30599,-0.039 -0.5371,-0.14485 -0.69335,-0.31738 -0.15625,-0.17252 -0.23438,-0.39225 -0.23438,-0.65918 0,-0.31249 0.10254,-0.56314 0.30762,-0.75196 0.20508,-0.18879 0.5485,-0.28319 1.03027,-0.2832 l 2.66602,0.01 c 0.481763,10e-6 0.825193,0.0912 1.030273,0.27343 0.20507,0.18231 0.30761,0.42319 0.30762,0.72266 -1e-5,0.29949 -0.10255,0.542 -0.30762,0.72754 -0.20508,0.18555 -0.54851,0.27833 -1.030273,0.27832 l -1.04493,0 0.66407,5.5957 1.572263,-4.6582 2.080067,0 1.5625,4.6582 0.66406,-5.5957 -1.04492,0 c -0.48178,1e-5 -0.8252,-0.0928 -1.03027,-0.27832 -0.20509,-0.18554 -0.30763,-0.42805 -0.30762,-0.72754 -1e-5,-0.29947 0.10253,-0.54198 0.30762,-0.72754 0.20507,-0.18554 0.54849,-0.27831 1.03027,-0.27832 l 2.65625,0.01 c 0.48176,10e-6 0.82519,0.0912 1.03028,0.27343 0.20506,0.18231 0.3076,0.42319 0.30761,0.72266 -10e-6,0.25392 -0.0814,0.47201 -0.24414,0.6543 -0.16277,0.1823 -0.39715,0.29948 -0.70312,0.35156 l -1.15235,9.83398 -2.20703,0 z"
       inkscape:export-filename="C:\Users\jouke\Desktop\app_001_icon.png"
       inkscape:export-xdpi="130.81"
       inkscape:export-ydpi="130.81" />
    <path
       inkscape:connector-curvature="0"
       id="path6606"
       style="font-size:20px;font-style:normal;font-variant:normal;font-weight:bold;font-stretch:normal;line-height:125%;letter-spacing:0px;word-spacing:0px;fill:url(#linearGradient8322);fill-opacity:1;stroke:none;font-family:Monospace;-inkscape-font-specification:Monospace Bold"
       d="m 105.8657,331.77621 c -1e-5,0.76824 -0.21322,1.51205 -0.63964,2.23145 -0.42645,0.7194 -1.06121,1.29232 -1.9043,1.71875 -0.84311,0.42643 -1.72364,0.63965 -2.6416,0.63965 -0.911467,0 -1.783857,-0.20996 -2.617187,-0.62988 -0.83334,-0.41993 -1.4681,-0.99121 -1.9043,-1.71387 -0.4362,-0.72266 -0.6543,-1.47786 -0.65429,-2.26563 -1e-5,-0.80077 0.22135,-1.5869 0.66406,-2.35839 0.4427,-0.77148 1.0791,-1.37858 1.90918,-1.82129 0.83007,-0.4427 1.69758,-0.66406 2.602537,-0.66407 0.91145,10e-6 1.78873,0.22625 2.63183,0.67871 0.84309,0.45249 1.47948,1.06121 1.90918,1.82618 0.42968,0.76498 0.64452,1.55111 0.64453,2.35839 z m -2.00195,0.01 c -10e-6,-0.64453 -0.23113,-1.23697 -0.69336,-1.77734 -0.63152,-0.72916 -1.46159,-1.09375 -2.49023,-1.09375 -0.904957,0 -1.660157,0.28972 -2.265627,0.86914 -0.60547,0.57943 -0.9082,1.25 -0.9082,2.01172 0,0.625 0.30598,1.20931 0.91797,1.75293 0.61197,0.54362 1.36392,0.81543 2.255857,0.81543 0.89843,0 1.65363,-0.27181 2.26562,-0.81543 0.61197,-0.54362 0.91796,-1.13119 0.91797,-1.7627 z"
       inkscape:export-filename="C:\Users\jouke\Desktop\app_001_icon.png"
       inkscape:export-xdpi="130.81"
       inkscape:export-ydpi="130.81" />
    <path
       inkscape:connector-curvature="0"
       id="path6608"
       style="font-size:20px;font-style:normal;font-variant:normal;font-weight:bold;font-stretch:normal;line-height:125%;letter-spacing:0px;word-spacing:0px;fill:url(#linearGradient8319);fill-opacity:1;stroke:none;font-family:Monospace;-inkscape-font-specification:Monospace Bold"
       d="m 100.0161,339.0459 0,1.25 c 0.83982,-0.60547 1.50226,-1.00911 1.98729,-1.21094 0.48502,-0.20182 0.93912,-0.30273 1.36231,-0.30274 0.65103,1e-5 1.28254,0.2409 1.89453,0.72266 0.41665,0.32553 0.62499,0.65756 0.625,0.99609 -1e-5,0.28647 -0.0993,0.52898 -0.29785,0.72754 -0.19858,0.19858 -0.43784,0.29786 -0.71778,0.29785 -0.2474,10e-6 -0.50782,-0.12369 -0.78125,-0.37109 -0.27344,-0.24739 -0.51758,-0.37109 -0.73242,-0.37109 -0.27996,0 -0.69825,0.17578 -1.25488,0.52734 -0.55665,0.35157 -1.25164,0.87891 -2.08495,1.58203 l 0,3.01758 2.85155,0 c 0.48176,0 0.82519,0.0928 1.03027,0.27832 0.20507,0.18555 0.30761,0.42806 0.30762,0.72754 -1e-5,0.29297 -0.10255,0.53223 -0.30762,0.71777 -0.20508,0.18555 -0.54851,0.27832 -1.03027,0.27832 l -6.04491,0 c -0.48178,0 -0.8252,-0.0928 -1.03028,-0.27832 -0.20508,-0.18554 -0.30761,-0.42806 -0.30761,-0.72754 0,-0.29296 0.10253,-0.53222 0.30761,-0.71777 0.20508,-0.18554 0.5485,-0.27832 1.03028,-0.27832 l 1.1914,0 0,-4.86328 -0.72265,0 c -0.48178,1e-5 -0.8252,-0.0928 -1.03028,-0.27832 -0.20508,-0.18554 -0.30761,-0.42805 -0.30761,-0.72754 0,-0.29296 0.10253,-0.53222 0.30761,-0.71777 0.20508,-0.18554 0.5485,-0.27832 1.03028,-0.27832 z"
       inkscape:export-filename="C:\Users\jouke\Desktop\app_001_icon.png"
       inkscape:export-xdpi="130.81"
       inkscape:export-ydpi="130.81" />
    <path
       inkscape:connector-curvature="0"
       id="path6612"
       style="font-size:20px;font-style:normal;font-variant:normal;font-weight:bold;font-stretch:normal;line-height:125%;letter-spacing:0px;word-spacing:0px;fill:url(#linearGradient8313);fill-opacity:1;stroke:none;font-family:Monospace;-inkscape-font-specification:Monospace Bold"
       d="m 104.84032,364.16269 0,10.66406 0.34179,0 c 0.47525,0 0.81705,0.0928 1.02539,0.27832 0.20833,0.18555 0.31249,0.42806 0.3125,0.72754 -10e-6,0.29297 -0.10255,0.53223 -0.30761,0.71777 -0.20509,0.18555 -0.54852,0.27832 -1.03028,0.27832 l -2.34375,0 0,-0.48828 c -0.45573,0.26693 -0.93262,0.46875 -1.43066,0.60547 -0.49805,0.13672 -1.014,0.20508 -1.547847,0.20508 -1.503909,0 -2.714849,-0.43457 -3.632809,-1.30371 -0.91797,-0.86914 -1.37696,-1.9515 -1.37696,-3.24707 0,-1.35416 0.48177,-2.50976 1.44532,-3.4668 0.96353,-0.95702 2.13866,-1.43554 3.525389,-1.43555 0.520817,1e-5 1.031887,0.0798 1.533197,0.23926 0.50129,0.15952 0.99608,0.39877 1.48437,0.71777 l 0,-2.49023 -0.34179,0 c -0.48178,10e-6 -0.82521,-0.0928 -1.03028,-0.27832 -0.20508,-0.18554 -0.30762,-0.42479 -0.30761,-0.71777 -1e-5,-0.29947 0.10253,-0.54198 0.30761,-0.72754 0.20507,-0.18554 0.5485,-0.27831 1.03028,-0.27832 z m -2.00196,8.49609 c 0,-0.82682 -0.28972,-1.52669 -0.86914,-2.09961 -0.57943,-0.57291 -1.28907,-0.85937 -2.128897,-0.85937 -0.83334,0 -1.539719,0.28646 -2.119139,0.85937 -0.57943,0.57292 -0.86915,1.26303 -0.86914,2.07031 -1e-5,0.73568 0.26041,1.33953 0.78125,1.81153 0.52083,0.472 1.256499,0.70801 2.207029,0.70801 0.943997,0 1.679677,-0.23601 2.207027,-0.70801 0.52733,-0.472 0.79101,-1.06608 0.79101,-1.78223 z"
       inkscape:export-filename="C:\Users\jouke\Desktop\app_001_icon.png"
       inkscape:export-xdpi="130.81"
       inkscape:export-ydpi="130.81" />
    <text
       xml:space="preserve"
       style="font-size:25.5888176px;font-style:normal;font-weight:normal;line-height:125%;letter-spacing:0px;word-spacing:0px;fill:url(#linearGradient8353);fill-opacity:1;stroke:none;font-family:monospace;-inkscape-font-specification:monospace"
       x="56.865181"
       y="332.00827"
       id="text8343"
       sodipodi:linespacing="125%"
       inkscape:export-filename="C:\Users\jouke\Desktop\app_001_icon.png"
       inkscape:export-xdpi="130.81"
       inkscape:export-ydpi="130.81"><tspan
         sodipodi:role="line"
         id="tspan8345"
         x="56.865181"
         y="332.00827"
         style="font-size:28px;font-weight:bold;fill:url(#linearGradient8353);fill-opacity:1;stroke:none;font-family:Serif;-inkscape-font-specification:Serif Bold">1</tspan></text>
  </g>
</svg>
